<ttFont>
    <TTGlyph name=".notdef" xMin="100" yMin="0" xMax="658" yMax="531">
      <contour>
        <pt x="100" y="0" on="1"/>
        <pt x="100" y="531" on="1"/>
        <pt x="658" y="531" on="1"/>
        <pt x="658" y="0" on="1"/>
      </contour>
      <contour>
        <pt x="114" y="22" on="1"/>
        <pt x="370" y="266" on="1"/>
        <pt x="114" y="507" on="1"/>
      </contour>
      <contour>
        <pt x="124" y="518" on="1"/>
        <pt x="381" y="276" on="1"/>
        <pt x="635" y="518" on="1"/>
      </contour>
      <contour>
        <pt x="127" y="13" on="1"/>
        <pt x="634" y="13" on="1"/>
        <pt x="381" y="256" on="1"/>
      </contour>
      <contour>
        <pt x="392" y="266" on="1"/>
        <pt x="644" y="25" on="1"/>
        <pt x="644" y="506" on="1"/>
      </contour>
    </TTGlyph>
    <TTGlyph name="A" xMin="45" yMin="0" xMax="615" yMax="732">
      <contour>
        <pt x="45" y="0" on="1"/>
        <pt x="435" y="732" on="1"/>
        <pt x="469" y="732" on="1"/>
        <pt x="615" y="0" on="1"/>
        <pt x="591" y="0" on="1"/>
        <pt x="540" y="253" on="1"/>
        <pt x="207" y="253" on="1"/>
        <pt x="73" y="0" on="1"/>
      </contour>
      <contour>
        <pt x="220" y="277" on="1"/>
        <pt x="535" y="277" on="1"/>
        <pt x="449" y="709" on="1"/>
      </contour>
    </TTGlyph>
    <TTGlyph name="AE" xMin="30" yMin="-4" xMax="985" yMax="733">
      <contour>
        <pt x="708" y="732" on="1"/>
        <pt x="714" y="732" on="0"/>
        <pt x="720" y="732" on="1"/>
        <pt x="985" y="722" on="1"/>
        <pt x="983" y="708" on="1"/>
        <pt x="716" y="708" on="1"/>
        <pt x="649" y="708" on="0"/>
        <pt x="630" y="691" on="1"/>
        <pt x="622" y="683" on="0"/>
        <pt x="612" y="675" on="0"/>
        <pt x="605" y="648" on="0"/>
        <pt x="602" y="637" on="0"/>
        <pt x="597" y="599" on="0"/>
        <pt x="596" y="592" on="1"/>
        <pt x="561" y="375" on="1"/>
        <pt x="890" y="370" on="1"/>
        <pt x="887" y="356" on="1"/>
        <pt x="558" y="351" on="1"/>
        <pt x="521" y="123" on="1"/>
        <pt x="518" y="106" on="0"/>
        <pt x="518" y="93" on="1"/>
        <pt x="518" y="56" on="0"/>
        <pt x="565" y="21" on="0"/>
        <pt x="617" y="21" on="1"/>
        <pt x="874" y="21" on="1"/>
        <pt x="872" y="7" on="1"/>
        <pt x="622" y="-3" on="1"/>
        <pt x="616" y="-3" on="0"/>
        <pt x="590" y="-3" on="0"/>
        <pt x="570" y="0" on="1"/>
        <pt x="495" y="14" on="0"/>
        <pt x="495" y="90" on="1"/>
        <pt x="495" y="104" on="0"/>
        <pt x="497" y="121" on="1"/>
        <pt x="518" y="252" on="1"/>
        <pt x="259" y="252" on="1"/>
        <pt x="60" y="0" on="1"/>
        <pt x="30" y="0" on="1"/>
        <pt x="499" y="590" on="1"/>
        <pt x="564" y="672" on="0"/>
        <pt x="588" y="692" on="1"/>
        <pt x="635" y="732" on="0"/>
      </contour>
      <contour>
        <pt x="279" y="276" on="1"/>
        <pt x="522" y="276" on="1"/>
        <pt x="582" y="657" on="1"/>
      </contour>
    </TTGlyph>
    <TTGlyph name="Aacute" xMin="45" yMin="0" xMax="624" yMax="930">
      <contour>
        <pt x="455" y="797" on="1"/>
        <pt x="597" y="930" on="1"/>
        <pt x="623" y="930" on="1"/>
        <pt x="469" y="797" on="1"/>
      </contour>
      <contour>
        <pt x="45" y="0" on="1"/>
        <pt x="435" y="732" on="1"/>
        <pt x="469" y="732" on="1"/>
        <pt x="615" y="0" on="1"/>
        <pt x="591" y="0" on="1"/>
        <pt x="540" y="253" on="1"/>
        <pt x="207" y="253" on="1"/>
        <pt x="73" y="0" on="1"/>
      </contour>
      <contour>
        <pt x="220" y="277" on="1"/>
        <pt x="535" y="277" on="1"/>
        <pt x="449" y="709" on="1"/>
      </contour>
    </TTGlyph>
    <TTGlyph name="Abreve" xMin="45" yMin="0" xMax="615" yMax="911">
      <contour>
        <pt x="378" y="894" on="1"/>
        <pt x="378" y="862" on="0"/>
        <pt x="422" y="811" on="0"/>
        <pt x="461" y="811" on="1"/>
        <pt x="507" y="811" on="0"/>
        <pt x="541" y="840" on="1"/>
        <pt x="575" y="868" on="0"/>
        <pt x="582" y="911" on="1"/>
        <pt x="596" y="911" on="1"/>
        <pt x="587" y="858" on="0"/>
        <pt x="508" y="797" on="0"/>
        <pt x="418" y="797" on="0"/>
        <pt x="364" y="853" on="0"/>
        <pt x="364" y="891" on="1"/>
        <pt x="364" y="900" on="0"/>
        <pt x="366" y="911" on="1"/>
        <pt x="380" y="911" on="1"/>
        <pt x="378" y="902" on="0"/>
      </contour>
      <contour>
        <pt x="45" y="0" on="1"/>
        <pt x="435" y="732" on="1"/>
        <pt x="469" y="732" on="1"/>
        <pt x="615" y="0" on="1"/>
        <pt x="591" y="0" on="1"/>
        <pt x="540" y="253" on="1"/>
        <pt x="207" y="253" on="1"/>
        <pt x="73" y="0" on="1"/>
      </contour>
      <contour>
        <pt x="220" y="277" on="1"/>
        <pt x="535" y="277" on="1"/>
        <pt x="449" y="709" on="1"/>
      </contour>
    </TTGlyph>
    <TTGlyph name="Acircumflex" xMin="45" yMin="0" xMax="615" yMax="927">
      <contour>
        <pt x="326" y="797" on="1"/>
        <pt x="479" y="927" on="1"/>
        <pt x="500" y="927" on="1"/>
        <pt x="598" y="797" on="1"/>
        <pt x="581" y="797" on="1"/>
        <pt x="487" y="912" on="1"/>
        <pt x="344" y="797" on="1"/>
      </contour>
      <contour>
        <pt x="45" y="0" on="1"/>
        <pt x="435" y="732" on="1"/>
        <pt x="469" y="732" on="1"/>
        <pt x="615" y="0" on="1"/>
        <pt x="591" y="0" on="1"/>
        <pt x="540" y="253" on="1"/>
        <pt x="207" y="253" on="1"/>
        <pt x="73" y="0" on="1"/>
      </contour>
      <contour>
        <pt x="220" y="277" on="1"/>
        <pt x="535" y="277" on="1"/>
        <pt x="449" y="709" on="1"/>
      </contour>
    </TTGlyph>
    <TTGlyph name="Adieresis" xMin="45" yMin="0" xMax="615" yMax="832">
      <contour>
        <pt x="341" y="832" on="1"/>
        <pt x="349" y="832" on="0"/>
        <pt x="357" y="822" on="0"/>
        <pt x="355" y="815" on="1"/>
        <pt x="352" y="797" on="0"/>
        <pt x="335" y="797" on="1"/>
        <pt x="328" y="797" on="0"/>
        <pt x="319" y="808" on="0"/>
        <pt x="320" y="815" on="1"/>
        <pt x="324" y="832" on="0"/>
      </contour>
      <contour>
        <pt x="596" y="832" on="1"/>
        <pt x="604" y="832" on="0"/>
        <pt x="612" y="822" on="0"/>
        <pt x="610" y="815" on="1"/>
        <pt x="607" y="797" on="0"/>
        <pt x="590" y="797" on="1"/>
        <pt x="583" y="797" on="0"/>
        <pt x="574" y="808" on="0"/>
        <pt x="575" y="815" on="1"/>
        <pt x="579" y="832" on="0"/>
      </contour>
      <contour>
        <pt x="45" y="0" on="1"/>
        <pt x="435" y="732" on="1"/>
        <pt x="469" y="732" on="1"/>
        <pt x="615" y="0" on="1"/>
        <pt x="591" y="0" on="1"/>
        <pt x="540" y="253" on="1"/>
        <pt x="207" y="253" on="1"/>
        <pt x="73" y="0" on="1"/>
      </contour>
      <contour>
        <pt x="220" y="277" on="1"/>
        <pt x="535" y="277" on="1"/>
        <pt x="449" y="709" on="1"/>
      </contour>
    </TTGlyph>
    <TTGlyph name="Agrave" xMin="45" yMin="0" xMax="615" yMax="930">
      <contour>
        <pt x="343" y="930" on="1"/>
        <pt x="369" y="930" on="1"/>
        <pt x="469" y="797" on="1"/>
        <pt x="455" y="797" on="1"/>
      </contour>
      <contour>
        <pt x="45" y="0" on="1"/>
        <pt x="435" y="732" on="1"/>
        <pt x="469" y="732" on="1"/>
        <pt x="615" y="0" on="1"/>
        <pt x="591" y="0" on="1"/>
        <pt x="540" y="253" on="1"/>
        <pt x="207" y="253" on="1"/>
        <pt x="73" y="0" on="1"/>
      </contour>
      <contour>
        <pt x="220" y="277" on="1"/>
        <pt x="535" y="277" on="1"/>
        <pt x="449" y="709" on="1"/>
      </contour>
    </TTGlyph>
    <TTGlyph name="Amacron" xMin="45" yMin="0" xMax="615" yMax="812">
      <contour>
        <pt x="337" y="797" on="1"/>
        <pt x="339" y="812" on="1"/>
        <pt x="591" y="812" on="1"/>
        <pt x="589" y="797" on="1"/>
      </contour>
      <contour>
        <pt x="45" y="0" on="1"/>
        <pt x="435" y="732" on="1"/>
        <pt x="469" y="732" on="1"/>
        <pt x="615" y="0" on="1"/>
        <pt x="591" y="0" on="1"/>
        <pt x="540" y="253" on="1"/>
        <pt x="207" y="253" on="1"/>
        <pt x="73" y="0" on="1"/>
      </contour>
      <contour>
        <pt x="220" y="277" on="1"/>
        <pt x="535" y="277" on="1"/>
        <pt x="449" y="709" on="1"/>
      </contour>
    </TTGlyph>
    <TTGlyph name="Aogonek" xMin="147" yMin="-183" xMax="718" yMax="732">
      <contour>
        <pt x="602" y="-110" on="1"/>
        <pt x="602" y="-41" on="0"/>
        <pt x="701" y="0" on="1"/>
        <pt x="713" y="0" on="1"/>
        <pt x="656" y="-22" on="0"/>
        <pt x="632" y="-63" on="1"/>
        <pt x="621" y="-84" on="0"/>
        <pt x="621" y="-120" on="0"/>
        <pt x="632" y="-136" on="1"/>
        <pt x="654" y="-167" on="0"/>
        <pt x="714" y="-167" on="1"/>
        <pt x="716" y="-167" on="0"/>
        <pt x="718" y="-167" on="1"/>
        <pt x="716" y="-181" on="1"/>
        <pt x="704" y="-183" on="0"/>
        <pt x="693" y="-183" on="1"/>
        <pt x="651" y="-183" on="0"/>
        <pt x="602" y="-137" on="0"/>
      </contour>
      <contour>
        <pt x="147" y="0" on="1"/>
        <pt x="537" y="732" on="1"/>
        <pt x="571" y="732" on="1"/>
        <pt x="717" y="0" on="1"/>
        <pt x="693" y="0" on="1"/>
        <pt x="642" y="253" on="1"/>
        <pt x="309" y="253" on="1"/>
        <pt x="175" y="0" on="1"/>
      </contour>
      <contour>
        <pt x="322" y="277" on="1"/>
        <pt x="637" y="277" on="1"/>
        <pt x="551" y="709" on="1"/>
      </contour>
    </TTGlyph>
    <TTGlyph name="Aring" xMin="45" yMin="0" xMax="615" yMax="936">
      <contour>
        <pt x="444" y="935" on="0"/>
        <pt x="529" y="935" on="0"/>
        <pt x="572" y="882" on="0"/>
        <pt x="572" y="850" on="1"/>
        <pt x="572" y="797" on="0"/>
        <pt x="496" y="730" on="0"/>
        <pt x="411" y="730" on="0"/>
        <pt x="366" y="783" on="0"/>
        <pt x="366" y="815" on="1"/>
        <pt x="366" y="868" on="0"/>
      </contour>
      <contour>
        <pt x="381" y="817" on="1"/>
        <pt x="381" y="791" on="0"/>
        <pt x="420" y="745" on="0"/>
        <pt x="480" y="745" on="0"/>
        <pt x="502" y="757" on="1"/>
        <pt x="558" y="787" on="0"/>
        <pt x="558" y="847" on="1"/>
        <pt x="558" y="874" on="0"/>
        <pt x="520" y="920" on="0"/>
        <pt x="448" y="920" on="0"/>
        <pt x="418" y="894" on="1"/>
        <pt x="381" y="862" on="0"/>
      </contour>
      <contour>
        <pt x="45" y="0" on="1"/>
        <pt x="435" y="732" on="1"/>
        <pt x="469" y="732" on="1"/>
        <pt x="615" y="0" on="1"/>
        <pt x="591" y="0" on="1"/>
        <pt x="540" y="253" on="1"/>
        <pt x="207" y="253" on="1"/>
        <pt x="73" y="0" on="1"/>
      </contour>
      <contour>
        <pt x="220" y="277" on="1"/>
        <pt x="535" y="277" on="1"/>
        <pt x="449" y="709" on="1"/>
      </contour>
    </TTGlyph>
    <TTGlyph name="Atilde" xMin="45" yMin="0" xMax="642" yMax="886">
      <contour>
        <pt x="412" y="886" on="1"/>
        <pt x="430" y="886" on="0"/>
        <pt x="474" y="850" on="0"/>
        <pt x="516" y="813" on="0"/>
        <pt x="536" y="813" on="0"/>
        <pt x="549" y="815" on="0"/>
        <pt x="563" y="820" on="0"/>
        <pt x="574" y="825" on="0"/>
        <pt x="589" y="833" on="0"/>
        <pt x="599" y="839" on="0"/>
        <pt x="613" y="849" on="0"/>
        <pt x="620" y="854" on="0"/>
        <pt x="634" y="865" on="0"/>
        <pt x="636" y="866" on="1"/>
        <pt x="641" y="859" on="1"/>
        <pt x="583" y="810" on="0"/>
        <pt x="541" y="797" on="0"/>
        <pt x="509" y="797" on="0"/>
        <pt x="465" y="834" on="0"/>
        <pt x="425" y="870" on="0"/>
        <pt x="403" y="870" on="0"/>
        <pt x="388" y="868" on="0"/>
        <pt x="371" y="861" on="0"/>
        <pt x="360" y="856" on="0"/>
        <pt x="340" y="844" on="0"/>
        <pt x="330" y="839" on="0"/>
        <pt x="307" y="823" on="0"/>
        <pt x="302" y="820" on="1"/>
        <pt x="298" y="828" on="1"/>
        <pt x="374" y="886" on="0"/>
      </contour>
      <contour>
        <pt x="45" y="0" on="1"/>
        <pt x="435" y="732" on="1"/>
        <pt x="469" y="732" on="1"/>
        <pt x="615" y="0" on="1"/>
        <pt x="591" y="0" on="1"/>
        <pt x="540" y="253" on="1"/>
        <pt x="207" y="253" on="1"/>
        <pt x="73" y="0" on="1"/>
      </contour>
      <contour>
        <pt x="220" y="277" on="1"/>
        <pt x="535" y="277" on="1"/>
        <pt x="449" y="709" on="1"/>
      </contour>
    </TTGlyph>
    <TTGlyph name="B" xMin="80" yMin="0" xMax="615" yMax="732">
      <contour>
        <pt x="449" y="732" on="1"/>
        <pt x="554" y="732" on="0"/>
        <pt x="590" y="688" on="1"/>
        <pt x="615" y="656" on="0"/>
        <pt x="615" y="603" on="1"/>
        <pt x="615" y="505" on="0"/>
        <pt x="553" y="440" on="1"/>
        <pt x="506" y="390" on="0"/>
        <pt x="455" y="384" on="1"/>
        <pt x="497" y="374" on="0"/>
        <pt x="561" y="285" on="0"/>
        <pt x="561" y="233" on="1"/>
        <pt x="561" y="216" on="0"/>
        <pt x="558" y="197" on="1"/>
        <pt x="527" y="0" on="0"/>
        <pt x="333" y="0" on="1"/>
        <pt x="80" y="0" on="1"/>
        <pt x="196" y="732" on="1"/>
      </contour>
      <contour>
        <pt x="337" y="25" on="1"/>
        <pt x="506" y="25" on="0"/>
        <pt x="535" y="204" on="1"/>
        <pt x="537" y="218" on="0"/>
        <pt x="537" y="232" on="1"/>
        <pt x="537" y="283" on="0"/>
        <pt x="463" y="371" on="0"/>
        <pt x="397" y="371" on="1"/>
        <pt x="395" y="371" on="0"/>
        <pt x="392" y="371" on="1"/>
        <pt x="163" y="371" on="1"/>
        <pt x="108" y="25" on="1"/>
      </contour>
      <contour>
        <pt x="396" y="395" on="1"/>
        <pt x="466" y="395" on="0"/>
        <pt x="571" y="482" on="0"/>
        <pt x="586" y="555" on="1"/>
        <pt x="592" y="583" on="0"/>
        <pt x="592" y="606" on="1"/>
        <pt x="592" y="652" on="0"/>
        <pt x="568" y="674" on="1"/>
        <pt x="533" y="708" on="0"/>
        <pt x="445" y="708" on="1"/>
        <pt x="216" y="708" on="1"/>
        <pt x="167" y="395" on="1"/>
      </contour>
    </TTGlyph>
    <TTGlyph name="C" xMin="105" yMin="-6" xMax="629" yMax="740">
      <contour>
        <pt x="238" y="693" on="0"/>
        <pt x="342" y="740" on="0"/>
        <pt x="503" y="740" on="0"/>
        <pt x="629" y="716" on="1"/>
        <pt x="627" y="702" on="1"/>
        <pt x="613" y="704" on="0"/>
        <pt x="588" y="706" on="0"/>
        <pt x="556" y="709" on="0"/>
        <pt x="517" y="712" on="0"/>
        <pt x="497" y="713" on="1"/>
        <pt x="437" y="716" on="0"/>
        <pt x="415" y="716" on="1"/>
        <pt x="337" y="716" on="0"/>
        <pt x="287" y="688" on="1"/>
        <pt x="183" y="628" on="0"/>
        <pt x="141" y="366" on="1"/>
        <pt x="130" y="296" on="0"/>
        <pt x="130" y="241" on="1"/>
        <pt x="130" y="18" on="0"/>
        <pt x="306" y="18" on="1"/>
        <pt x="400" y="18" on="0"/>
        <pt x="490" y="27" on="1"/>
        <pt x="520" y="30" on="1"/>
        <pt x="518" y="16" on="1"/>
        <pt x="396" y="-6" on="0"/>
        <pt x="301" y="-6" on="1"/>
        <pt x="105" y="-6" on="0"/>
        <pt x="105" y="240" on="1"/>
        <pt x="105" y="301" on="0"/>
        <pt x="132" y="469" on="0"/>
        <pt x="170" y="593" on="0"/>
      </contour>
    </TTGlyph>
    <TTGlyph name="Cacute" xMin="105" yMin="-6" xMax="629" yMax="933">
      <contour>
        <pt x="420" y="800" on="1"/>
        <pt x="562" y="933" on="1"/>
        <pt x="588" y="933" on="1"/>
        <pt x="434" y="800" on="1"/>
      </contour>
      <contour>
        <pt x="238" y="693" on="0"/>
        <pt x="342" y="740" on="0"/>
        <pt x="503" y="740" on="0"/>
        <pt x="629" y="716" on="1"/>
        <pt x="627" y="702" on="1"/>
        <pt x="613" y="704" on="0"/>
        <pt x="588" y="706" on="0"/>
        <pt x="556" y="709" on="0"/>
        <pt x="517" y="712" on="0"/>
        <pt x="497" y="713" on="1"/>
        <pt x="437" y="716" on="0"/>
        <pt x="415" y="716" on="1"/>
        <pt x="337" y="716" on="0"/>
        <pt x="287" y="688" on="1"/>
        <pt x="183" y="628" on="0"/>
        <pt x="141" y="366" on="1"/>
        <pt x="130" y="296" on="0"/>
        <pt x="130" y="241" on="1"/>
        <pt x="130" y="18" on="0"/>
        <pt x="306" y="18" on="1"/>
        <pt x="400" y="18" on="0"/>
        <pt x="490" y="27" on="1"/>
        <pt x="520" y="30" on="1"/>
        <pt x="518" y="16" on="1"/>
        <pt x="396" y="-6" on="0"/>
        <pt x="301" y="-6" on="1"/>
        <pt x="105" y="-6" on="0"/>
        <pt x="105" y="240" on="1"/>
        <pt x="105" y="301" on="0"/>
        <pt x="132" y="469" on="0"/>
        <pt x="170" y="593" on="0"/>
      </contour>
    </TTGlyph>
    <TTGlyph name="Ccaron" xMin="105" yMin="-6" xMax="629" yMax="930">
      <contour>
        <pt x="311" y="930" on="1"/>
        <pt x="328" y="930" on="1"/>
        <pt x="422" y="815" on="1"/>
        <pt x="565" y="930" on="1"/>
        <pt x="583" y="930" on="1"/>
        <pt x="430" y="800" on="1"/>
        <pt x="409" y="800" on="1"/>
      </contour>
      <contour>
        <pt x="238" y="693" on="0"/>
        <pt x="342" y="740" on="0"/>
        <pt x="503" y="740" on="0"/>
        <pt x="629" y="716" on="1"/>
        <pt x="627" y="702" on="1"/>
        <pt x="613" y="704" on="0"/>
        <pt x="588" y="706" on="0"/>
        <pt x="556" y="709" on="0"/>
        <pt x="517" y="712" on="0"/>
        <pt x="497" y="713" on="1"/>
        <pt x="437" y="716" on="0"/>
        <pt x="415" y="716" on="1"/>
        <pt x="337" y="716" on="0"/>
        <pt x="287" y="688" on="1"/>
        <pt x="183" y="628" on="0"/>
        <pt x="141" y="366" on="1"/>
        <pt x="130" y="296" on="0"/>
        <pt x="130" y="241" on="1"/>
        <pt x="130" y="18" on="0"/>
        <pt x="306" y="18" on="1"/>
        <pt x="400" y="18" on="0"/>
        <pt x="490" y="27" on="1"/>
        <pt x="520" y="30" on="1"/>
        <pt x="518" y="16" on="1"/>
        <pt x="396" y="-6" on="0"/>
        <pt x="301" y="-6" on="1"/>
        <pt x="105" y="-6" on="0"/>
        <pt x="105" y="240" on="1"/>
        <pt x="105" y="301" on="0"/>
        <pt x="132" y="469" on="0"/>
        <pt x="170" y="593" on="0"/>
      </contour>
    </TTGlyph>
    <TTGlyph name="Ccedilla" xMin="105" yMin="-172" xMax="629" yMax="740">
      <contour>
        <pt x="238" y="693" on="0"/>
        <pt x="342" y="740" on="0"/>
        <pt x="503" y="740" on="0"/>
        <pt x="629" y="716" on="1"/>
        <pt x="627" y="702" on="1"/>
        <pt x="613" y="704" on="0"/>
        <pt x="588" y="706" on="0"/>
        <pt x="556" y="709" on="0"/>
        <pt x="517" y="712" on="0"/>
        <pt x="497" y="713" on="1"/>
        <pt x="437" y="716" on="0"/>
        <pt x="415" y="716" on="1"/>
        <pt x="337" y="716" on="0"/>
        <pt x="287" y="688" on="1"/>
        <pt x="183" y="628" on="0"/>
        <pt x="141" y="366" on="1"/>
        <pt x="130" y="296" on="0"/>
        <pt x="130" y="241" on="1"/>
        <pt x="130" y="18" on="0"/>
        <pt x="306" y="18" on="1"/>
        <pt x="400" y="18" on="0"/>
        <pt x="490" y="27" on="1"/>
        <pt x="520" y="30" on="1"/>
        <pt x="518" y="16" on="1"/>
        <pt x="396" y="-6" on="0"/>
        <pt x="301" y="-6" on="1"/>
        <pt x="105" y="-6" on="0"/>
        <pt x="105" y="240" on="1"/>
        <pt x="105" y="301" on="0"/>
        <pt x="132" y="469" on="0"/>
        <pt x="170" y="593" on="0"/>
      </contour>
      <contour>
        <pt x="225" y="-172" on="1"/>
        <pt x="194" y="-172" on="1"/>
        <pt x="195" y="-165" on="1"/>
        <pt x="228" y="-160" on="1"/>
        <pt x="261" y="-155" on="0"/>
        <pt x="293" y="-141" on="0"/>
        <pt x="323" y="-88" on="0"/>
        <pt x="330" y="-36" on="1"/>
        <pt x="347" y="-36" on="1"/>
        <pt x="335" y="-114" on="0"/>
        <pt x="285" y="-172" on="0"/>
      </contour>
    </TTGlyph>
    <TTGlyph name="Ccircumflex" xMin="105" yMin="-6" xMax="629" yMax="930">
      <contour>
        <pt x="291" y="800" on="1"/>
        <pt x="444" y="930" on="1"/>
        <pt x="465" y="930" on="1"/>
        <pt x="563" y="800" on="1"/>
        <pt x="546" y="800" on="1"/>
        <pt x="452" y="915" on="1"/>
        <pt x="309" y="800" on="1"/>
      </contour>
      <contour>
        <pt x="238" y="693" on="0"/>
        <pt x="342" y="740" on="0"/>
        <pt x="503" y="740" on="0"/>
        <pt x="629" y="716" on="1"/>
        <pt x="627" y="702" on="1"/>
        <pt x="613" y="704" on="0"/>
        <pt x="588" y="706" on="0"/>
        <pt x="556" y="709" on="0"/>
        <pt x="517" y="712" on="0"/>
        <pt x="497" y="713" on="1"/>
        <pt x="437" y="716" on="0"/>
        <pt x="415" y="716" on="1"/>
        <pt x="337" y="716" on="0"/>
        <pt x="287" y="688" on="1"/>
        <pt x="183" y="628" on="0"/>
        <pt x="141" y="366" on="1"/>
        <pt x="130" y="296" on="0"/>
        <pt x="130" y="241" on="1"/>
        <pt x="130" y="18" on="0"/>
        <pt x="306" y="18" on="1"/>
        <pt x="400" y="18" on="0"/>
        <pt x="490" y="27" on="1"/>
        <pt x="520" y="30" on="1"/>
        <pt x="518" y="16" on="1"/>
        <pt x="396" y="-6" on="0"/>
        <pt x="301" y="-6" on="1"/>
        <pt x="105" y="-6" on="0"/>
        <pt x="105" y="240" on="1"/>
        <pt x="105" y="301" on="0"/>
        <pt x="132" y="469" on="0"/>
        <pt x="170" y="593" on="0"/>
      </contour>
    </TTGlyph>
    <TTGlyph name="Cdotaccent" xMin="105" yMin="-6" xMax="629" yMax="886">
      <contour>
        <pt x="425" y="886" on="1"/>
        <pt x="436" y="886" on="1"/>
        <pt x="448" y="886" on="0"/>
        <pt x="446" y="874" on="1"/>
        <pt x="436" y="812" on="1"/>
        <pt x="434" y="800" on="0"/>
        <pt x="422" y="800" on="1"/>
        <pt x="411" y="800" on="1"/>
        <pt x="399" y="800" on="0"/>
        <pt x="401" y="812" on="1"/>
        <pt x="411" y="874" on="1"/>
        <pt x="413" y="886" on="0"/>
      </contour>
      <contour>
        <pt x="238" y="693" on="0"/>
        <pt x="342" y="740" on="0"/>
        <pt x="503" y="740" on="0"/>
        <pt x="629" y="716" on="1"/>
        <pt x="627" y="702" on="1"/>
        <pt x="613" y="704" on="0"/>
        <pt x="588" y="706" on="0"/>
        <pt x="556" y="709" on="0"/>
        <pt x="517" y="712" on="0"/>
        <pt x="497" y="713" on="1"/>
        <pt x="437" y="716" on="0"/>
        <pt x="415" y="716" on="1"/>
        <pt x="337" y="716" on="0"/>
        <pt x="287" y="688" on="1"/>
        <pt x="183" y="628" on="0"/>
        <pt x="141" y="366" on="1"/>
        <pt x="130" y="296" on="0"/>
        <pt x="130" y="241" on="1"/>
        <pt x="130" y="18" on="0"/>
        <pt x="306" y="18" on="1"/>
        <pt x="400" y="18" on="0"/>
        <pt x="490" y="27" on="1"/>
        <pt x="520" y="30" on="1"/>
        <pt x="518" y="16" on="1"/>
        <pt x="396" y="-6" on="0"/>
        <pt x="301" y="-6" on="1"/>
        <pt x="105" y="-6" on="0"/>
        <pt x="105" y="240" on="1"/>
        <pt x="105" y="301" on="0"/>
        <pt x="132" y="469" on="0"/>
        <pt x="170" y="593" on="0"/>
      </contour>
    </TTGlyph>
    <TTGlyph name="D" xMin="80" yMin="0" xMax="662" yMax="732">
      <contour>
        <pt x="448" y="732" on="1"/>
        <pt x="513" y="732" on="0"/>
        <pt x="603" y="681" on="0"/>
        <pt x="625" y="642" on="1"/>
        <pt x="662" y="578" on="0"/>
        <pt x="662" y="477" on="1"/>
        <pt x="662" y="426" on="0"/>
        <pt x="635" y="279" on="0"/>
        <pt x="587" y="157" on="0"/>
        <pt x="514" y="56" on="0"/>
        <pt x="406" y="0" on="0"/>
        <pt x="339" y="0" on="1"/>
        <pt x="80" y="0" on="1"/>
        <pt x="196" y="732" on="1"/>
      </contour>
      <contour>
        <pt x="339" y="24" on="1"/>
        <pt x="404" y="24" on="0"/>
        <pt x="509" y="87" on="0"/>
        <pt x="542" y="140" on="1"/>
        <pt x="606" y="241" on="0"/>
        <pt x="626" y="364" on="1"/>
        <pt x="637" y="430" on="0"/>
        <pt x="637" y="482" on="1"/>
        <pt x="637" y="570" on="0"/>
        <pt x="607" y="623" on="1"/>
        <pt x="559" y="708" on="0"/>
        <pt x="443" y="708" on="1"/>
        <pt x="216" y="708" on="1"/>
        <pt x="108" y="24" on="1"/>
      </contour>
    </TTGlyph>
    <TTGlyph name="Dcaron" xMin="80" yMin="0" xMax="662" yMax="927">
      <contour>
        <pt x="327" y="927" on="1"/>
        <pt x="344" y="927" on="1"/>
        <pt x="438" y="812" on="1"/>
        <pt x="581" y="927" on="1"/>
        <pt x="599" y="927" on="1"/>
        <pt x="446" y="797" on="1"/>
        <pt x="425" y="797" on="1"/>
      </contour>
      <contour>
        <pt x="448" y="732" on="1"/>
        <pt x="513" y="732" on="0"/>
        <pt x="603" y="681" on="0"/>
        <pt x="625" y="642" on="1"/>
        <pt x="662" y="578" on="0"/>
        <pt x="662" y="477" on="1"/>
        <pt x="662" y="426" on="0"/>
        <pt x="635" y="279" on="0"/>
        <pt x="587" y="157" on="0"/>
        <pt x="514" y="56" on="0"/>
        <pt x="406" y="0" on="0"/>
        <pt x="339" y="0" on="1"/>
        <pt x="80" y="0" on="1"/>
        <pt x="196" y="732" on="1"/>
      </contour>
      <contour>
        <pt x="339" y="24" on="1"/>
        <pt x="404" y="24" on="0"/>
        <pt x="509" y="87" on="0"/>
        <pt x="542" y="140" on="1"/>
        <pt x="606" y="241" on="0"/>
        <pt x="626" y="364" on="1"/>
        <pt x="637" y="430" on="0"/>
        <pt x="637" y="482" on="1"/>
        <pt x="637" y="570" on="0"/>
        <pt x="607" y="623" on="1"/>
        <pt x="559" y="708" on="0"/>
        <pt x="443" y="708" on="1"/>
        <pt x="216" y="708" on="1"/>
        <pt x="108" y="24" on="1"/>
      </contour>
    </TTGlyph>
    <TTGlyph name="Dcroat" xMin="73" yMin="0" xMax="663" yMax="732">
      <contour>
        <pt x="448" y="732" on="1"/>
        <pt x="513" y="732" on="0"/>
        <pt x="603" y="681" on="0"/>
        <pt x="625" y="642" on="1"/>
        <pt x="662" y="578" on="0"/>
        <pt x="662" y="474" on="1"/>
        <pt x="662" y="422" on="0"/>
        <pt x="636" y="279" on="0"/>
        <pt x="588" y="156" on="0"/>
        <pt x="551" y="106" on="1"/>
        <pt x="473" y="0" on="0"/>
        <pt x="339" y="0" on="1"/>
        <pt x="80" y="0" on="1"/>
        <pt x="138" y="366" on="1"/>
        <pt x="73" y="366" on="1"/>
        <pt x="75" y="380" on="1"/>
        <pt x="140" y="380" on="1"/>
        <pt x="196" y="732" on="1"/>
      </contour>
      <contour>
        <pt x="339" y="24" on="1"/>
        <pt x="404" y="24" on="0"/>
        <pt x="509" y="87" on="0"/>
        <pt x="542" y="140" on="1"/>
        <pt x="606" y="241" on="0"/>
        <pt x="626" y="364" on="1"/>
        <pt x="637" y="430" on="0"/>
        <pt x="637" y="482" on="1"/>
        <pt x="637" y="570" on="0"/>
        <pt x="607" y="623" on="1"/>
        <pt x="559" y="708" on="0"/>
        <pt x="443" y="708" on="1"/>
        <pt x="216" y="708" on="1"/>
        <pt x="164" y="380" on="1"/>
        <pt x="323" y="380" on="1"/>
        <pt x="321" y="366" on="1"/>
        <pt x="162" y="366" on="1"/>
        <pt x="108" y="24" on="1"/>
      </contour>
    </TTGlyph>
    <TTGlyph name="E" xMin="94" yMin="-4" xMax="616" yMax="733">
      <contour>
        <pt x="313" y="732" on="1"/>
        <pt x="317" y="732" on="0"/>
        <pt x="320" y="732" on="1"/>
        <pt x="616" y="722" on="1"/>
        <pt x="614" y="708" on="1"/>
        <pt x="317" y="708" on="1"/>
        <pt x="215" y="708" on="0"/>
        <pt x="198" y="602" on="1"/>
        <pt x="162" y="375" on="1"/>
        <pt x="520" y="370" on="1"/>
        <pt x="518" y="356" on="1"/>
        <pt x="158" y="351" on="1"/>
        <pt x="122" y="123" on="1"/>
        <pt x="119" y="106" on="0"/>
        <pt x="119" y="93" on="1"/>
        <pt x="119" y="56" on="0"/>
        <pt x="166" y="21" on="0"/>
        <pt x="218" y="21" on="1"/>
        <pt x="505" y="21" on="1"/>
        <pt x="503" y="7" on="1"/>
        <pt x="214" y="-3" on="1"/>
        <pt x="210" y="-3" on="0"/>
        <pt x="206" y="-3" on="1"/>
        <pt x="95" y="-3" on="0"/>
        <pt x="95" y="91" on="1"/>
        <pt x="95" y="108" on="0"/>
        <pt x="98" y="128" on="1"/>
        <pt x="174" y="607" on="1"/>
        <pt x="185" y="675" on="0"/>
        <pt x="263" y="732" on="0"/>
      </contour>
    </TTGlyph>
    <TTGlyph name="Eacute" xMin="94" yMin="-4" xMax="616" yMax="925">
      <contour>
        <pt x="408" y="792" on="1"/>
        <pt x="550" y="925" on="1"/>
        <pt x="576" y="925" on="1"/>
        <pt x="422" y="792" on="1"/>
      </contour>
      <contour>
        <pt x="313" y="732" on="1"/>
        <pt x="317" y="732" on="0"/>
        <pt x="320" y="732" on="1"/>
        <pt x="616" y="722" on="1"/>
        <pt x="614" y="708" on="1"/>
        <pt x="317" y="708" on="1"/>
        <pt x="215" y="708" on="0"/>
        <pt x="198" y="602" on="1"/>
        <pt x="162" y="375" on="1"/>
        <pt x="520" y="370" on="1"/>
        <pt x="518" y="356" on="1"/>
        <pt x="158" y="351" on="1"/>
        <pt x="122" y="123" on="1"/>
        <pt x="119" y="106" on="0"/>
        <pt x="119" y="93" on="1"/>
        <pt x="119" y="56" on="0"/>
        <pt x="166" y="21" on="0"/>
        <pt x="218" y="21" on="1"/>
        <pt x="505" y="21" on="1"/>
        <pt x="503" y="7" on="1"/>
        <pt x="214" y="-3" on="1"/>
        <pt x="210" y="-3" on="0"/>
        <pt x="206" y="-3" on="1"/>
        <pt x="95" y="-3" on="0"/>
        <pt x="95" y="91" on="1"/>
        <pt x="95" y="108" on="0"/>
        <pt x="98" y="128" on="1"/>
        <pt x="174" y="607" on="1"/>
        <pt x="185" y="675" on="0"/>
        <pt x="263" y="732" on="0"/>
      </contour>
    </TTGlyph>
    <TTGlyph name="Ecaron" xMin="94" yMin="-4" xMax="616" yMax="927">
      <contour>
        <pt x="313" y="927" on="1"/>
        <pt x="330" y="927" on="1"/>
        <pt x="424" y="812" on="1"/>
        <pt x="567" y="927" on="1"/>
        <pt x="585" y="927" on="1"/>
        <pt x="432" y="797" on="1"/>
        <pt x="411" y="797" on="1"/>
      </contour>
      <contour>
        <pt x="313" y="732" on="1"/>
        <pt x="317" y="732" on="0"/>
        <pt x="320" y="732" on="1"/>
        <pt x="616" y="722" on="1"/>
        <pt x="614" y="708" on="1"/>
        <pt x="317" y="708" on="1"/>
        <pt x="215" y="708" on="0"/>
        <pt x="198" y="602" on="1"/>
        <pt x="162" y="375" on="1"/>
        <pt x="520" y="370" on="1"/>
        <pt x="518" y="356" on="1"/>
        <pt x="158" y="351" on="1"/>
        <pt x="122" y="123" on="1"/>
        <pt x="119" y="106" on="0"/>
        <pt x="119" y="93" on="1"/>
        <pt x="119" y="56" on="0"/>
        <pt x="166" y="21" on="0"/>
        <pt x="218" y="21" on="1"/>
        <pt x="505" y="21" on="1"/>
        <pt x="503" y="7" on="1"/>
        <pt x="214" y="-3" on="1"/>
        <pt x="210" y="-3" on="0"/>
        <pt x="206" y="-3" on="1"/>
        <pt x="95" y="-3" on="0"/>
        <pt x="95" y="91" on="1"/>
        <pt x="95" y="108" on="0"/>
        <pt x="98" y="128" on="1"/>
        <pt x="174" y="607" on="1"/>
        <pt x="185" y="675" on="0"/>
        <pt x="263" y="732" on="0"/>
      </contour>
    </TTGlyph>
    <TTGlyph name="Ecircumflex" xMin="94" yMin="-4" xMax="616" yMax="922">
      <contour>
        <pt x="294" y="792" on="1"/>
        <pt x="447" y="922" on="1"/>
        <pt x="468" y="922" on="1"/>
        <pt x="566" y="792" on="1"/>
        <pt x="549" y="792" on="1"/>
        <pt x="455" y="907" on="1"/>
        <pt x="312" y="792" on="1"/>
      </contour>
      <contour>
        <pt x="313" y="732" on="1"/>
        <pt x="317" y="732" on="0"/>
        <pt x="320" y="732" on="1"/>
        <pt x="616" y="722" on="1"/>
        <pt x="614" y="708" on="1"/>
        <pt x="317" y="708" on="1"/>
        <pt x="215" y="708" on="0"/>
        <pt x="198" y="602" on="1"/>
        <pt x="162" y="375" on="1"/>
        <pt x="520" y="370" on="1"/>
        <pt x="518" y="356" on="1"/>
        <pt x="158" y="351" on="1"/>
        <pt x="122" y="123" on="1"/>
        <pt x="119" y="106" on="0"/>
        <pt x="119" y="93" on="1"/>
        <pt x="119" y="56" on="0"/>
        <pt x="166" y="21" on="0"/>
        <pt x="218" y="21" on="1"/>
        <pt x="505" y="21" on="1"/>
        <pt x="503" y="7" on="1"/>
        <pt x="214" y="-3" on="1"/>
        <pt x="210" y="-3" on="0"/>
        <pt x="206" y="-3" on="1"/>
        <pt x="95" y="-3" on="0"/>
        <pt x="95" y="91" on="1"/>
        <pt x="95" y="108" on="0"/>
        <pt x="98" y="128" on="1"/>
        <pt x="174" y="607" on="1"/>
        <pt x="185" y="675" on="0"/>
        <pt x="263" y="732" on="0"/>
      </contour>
    </TTGlyph>
    <TTGlyph name="Edieresis" xMin="94" yMin="-4" xMax="616" yMax="860">
      <contour>
        <pt x="283" y="843" on="1"/>
        <pt x="286" y="860" on="0"/>
        <pt x="321" y="860" on="0"/>
        <pt x="318" y="843" on="1"/>
        <pt x="314" y="825" on="0"/>
        <pt x="298" y="825" on="1"/>
        <pt x="290" y="825" on="0"/>
        <pt x="282" y="836" on="0"/>
      </contour>
      <contour>
        <pt x="538" y="843" on="1"/>
        <pt x="541" y="860" on="0"/>
        <pt x="576" y="860" on="0"/>
        <pt x="573" y="843" on="1"/>
        <pt x="569" y="825" on="0"/>
        <pt x="553" y="825" on="1"/>
        <pt x="545" y="825" on="0"/>
        <pt x="537" y="836" on="0"/>
      </contour>
      <contour>
        <pt x="313" y="732" on="1"/>
        <pt x="317" y="732" on="0"/>
        <pt x="320" y="732" on="1"/>
        <pt x="616" y="722" on="1"/>
        <pt x="614" y="708" on="1"/>
        <pt x="317" y="708" on="1"/>
        <pt x="215" y="708" on="0"/>
        <pt x="198" y="602" on="1"/>
        <pt x="162" y="375" on="1"/>
        <pt x="520" y="370" on="1"/>
        <pt x="518" y="356" on="1"/>
        <pt x="158" y="351" on="1"/>
        <pt x="122" y="123" on="1"/>
        <pt x="119" y="106" on="0"/>
        <pt x="119" y="93" on="1"/>
        <pt x="119" y="56" on="0"/>
        <pt x="166" y="21" on="0"/>
        <pt x="218" y="21" on="1"/>
        <pt x="505" y="21" on="1"/>
        <pt x="503" y="7" on="1"/>
        <pt x="214" y="-3" on="1"/>
        <pt x="210" y="-3" on="0"/>
        <pt x="206" y="-3" on="1"/>
        <pt x="95" y="-3" on="0"/>
        <pt x="95" y="91" on="1"/>
        <pt x="95" y="108" on="0"/>
        <pt x="98" y="128" on="1"/>
        <pt x="174" y="607" on="1"/>
        <pt x="185" y="675" on="0"/>
        <pt x="263" y="732" on="0"/>
      </contour>
    </TTGlyph>
    <TTGlyph name="Edotaccent" xMin="94" yMin="-4" xMax="616" yMax="883">
      <contour>
        <pt x="426" y="883" on="1"/>
        <pt x="437" y="883" on="1"/>
        <pt x="449" y="883" on="0"/>
        <pt x="447" y="871" on="1"/>
        <pt x="437" y="809" on="1"/>
        <pt x="435" y="797" on="0"/>
        <pt x="423" y="797" on="1"/>
        <pt x="412" y="797" on="1"/>
        <pt x="400" y="797" on="0"/>
        <pt x="402" y="809" on="1"/>
        <pt x="412" y="871" on="1"/>
        <pt x="414" y="883" on="0"/>
      </contour>
      <contour>
        <pt x="313" y="732" on="1"/>
        <pt x="317" y="732" on="0"/>
        <pt x="320" y="732" on="1"/>
        <pt x="616" y="722" on="1"/>
        <pt x="614" y="708" on="1"/>
        <pt x="317" y="708" on="1"/>
        <pt x="215" y="708" on="0"/>
        <pt x="198" y="602" on="1"/>
        <pt x="162" y="375" on="1"/>
        <pt x="520" y="370" on="1"/>
        <pt x="518" y="356" on="1"/>
        <pt x="158" y="351" on="1"/>
        <pt x="122" y="123" on="1"/>
        <pt x="119" y="106" on="0"/>
        <pt x="119" y="93" on="1"/>
        <pt x="119" y="56" on="0"/>
        <pt x="166" y="21" on="0"/>
        <pt x="218" y="21" on="1"/>
        <pt x="505" y="21" on="1"/>
        <pt x="503" y="7" on="1"/>
        <pt x="214" y="-3" on="1"/>
        <pt x="210" y="-3" on="0"/>
        <pt x="206" y="-3" on="1"/>
        <pt x="95" y="-3" on="0"/>
        <pt x="95" y="91" on="1"/>
        <pt x="95" y="108" on="0"/>
        <pt x="98" y="128" on="1"/>
        <pt x="174" y="607" on="1"/>
        <pt x="185" y="675" on="0"/>
        <pt x="263" y="732" on="0"/>
      </contour>
    </TTGlyph>
    <TTGlyph name="Egrave" xMin="94" yMin="-4" xMax="616" yMax="925">
      <contour>
        <pt x="310" y="925" on="1"/>
        <pt x="336" y="925" on="1"/>
        <pt x="436" y="792" on="1"/>
        <pt x="422" y="792" on="1"/>
      </contour>
      <contour>
        <pt x="313" y="732" on="1"/>
        <pt x="317" y="732" on="0"/>
        <pt x="320" y="732" on="1"/>
        <pt x="616" y="722" on="1"/>
        <pt x="614" y="708" on="1"/>
        <pt x="317" y="708" on="1"/>
        <pt x="215" y="708" on="0"/>
        <pt x="198" y="602" on="1"/>
        <pt x="162" y="375" on="1"/>
        <pt x="520" y="370" on="1"/>
        <pt x="518" y="356" on="1"/>
        <pt x="158" y="351" on="1"/>
        <pt x="122" y="123" on="1"/>
        <pt x="119" y="106" on="0"/>
        <pt x="119" y="93" on="1"/>
        <pt x="119" y="56" on="0"/>
        <pt x="166" y="21" on="0"/>
        <pt x="218" y="21" on="1"/>
        <pt x="505" y="21" on="1"/>
        <pt x="503" y="7" on="1"/>
        <pt x="214" y="-3" on="1"/>
        <pt x="210" y="-3" on="0"/>
        <pt x="206" y="-3" on="1"/>
        <pt x="95" y="-3" on="0"/>
        <pt x="95" y="91" on="1"/>
        <pt x="95" y="108" on="0"/>
        <pt x="98" y="128" on="1"/>
        <pt x="174" y="607" on="1"/>
        <pt x="185" y="675" on="0"/>
        <pt x="263" y="732" on="0"/>
      </contour>
    </TTGlyph>
    <TTGlyph name="Emacron" xMin="94" yMin="-4" xMax="616" yMax="812">
      <contour>
        <pt x="302" y="797" on="1"/>
        <pt x="304" y="812" on="1"/>
        <pt x="556" y="812" on="1"/>
        <pt x="554" y="797" on="1"/>
      </contour>
      <contour>
        <pt x="313" y="732" on="1"/>
        <pt x="317" y="732" on="0"/>
        <pt x="320" y="732" on="1"/>
        <pt x="616" y="722" on="1"/>
        <pt x="614" y="708" on="1"/>
        <pt x="317" y="708" on="1"/>
        <pt x="215" y="708" on="0"/>
        <pt x="198" y="602" on="1"/>
        <pt x="162" y="375" on="1"/>
        <pt x="520" y="370" on="1"/>
        <pt x="518" y="356" on="1"/>
        <pt x="158" y="351" on="1"/>
        <pt x="122" y="123" on="1"/>
        <pt x="119" y="106" on="0"/>
        <pt x="119" y="93" on="1"/>
        <pt x="119" y="56" on="0"/>
        <pt x="166" y="21" on="0"/>
        <pt x="218" y="21" on="1"/>
        <pt x="505" y="21" on="1"/>
        <pt x="503" y="7" on="1"/>
        <pt x="214" y="-3" on="1"/>
        <pt x="210" y="-3" on="0"/>
        <pt x="206" y="-3" on="1"/>
        <pt x="95" y="-3" on="0"/>
        <pt x="95" y="91" on="1"/>
        <pt x="95" y="108" on="0"/>
        <pt x="98" y="128" on="1"/>
        <pt x="174" y="607" on="1"/>
        <pt x="185" y="675" on="0"/>
        <pt x="263" y="732" on="0"/>
      </contour>
    </TTGlyph>
    <TTGlyph name="Eng" xMin="80" yMin="-257" xMax="665" yMax="732">
      <contour>
        <pt x="80" y="0" on="1"/>
        <pt x="196" y="732" on="1"/>
        <pt x="221" y="732" on="1"/>
        <pt x="533" y="48" on="1"/>
        <pt x="641" y="732" on="1"/>
        <pt x="665" y="732" on="1"/>
        <pt x="536" y="-84" on="1"/>
        <pt x="527" y="-141" on="0"/>
        <pt x="499" y="-209" on="0"/>
        <pt x="450" y="-246" on="0"/>
        <pt x="392" y="-257" on="0"/>
        <pt x="344" y="-257" on="1"/>
        <pt x="347" y="-239" on="1"/>
        <pt x="418" y="-231" on="0"/>
        <pt x="435" y="-224" on="1"/>
        <pt x="493" y="-202" on="0"/>
        <pt x="512" y="-85" on="1"/>
        <pt x="525" y="0" on="1"/>
        <pt x="213" y="684" on="1"/>
        <pt x="105" y="0" on="1"/>
      </contour>
    </TTGlyph>
    <TTGlyph name="Eogonek" xMin="94" yMin="-176" xMax="616" yMax="733">
      <contour>
        <pt x="391" y="-103" on="1"/>
        <pt x="391" y="-34" on="0"/>
        <pt x="490" y="7" on="1"/>
        <pt x="502" y="7" on="1"/>
        <pt x="468" y="-6" on="0"/>
        <pt x="445" y="-28" on="1"/>
        <pt x="412" y="-59" on="0"/>
        <pt x="412" y="-95" on="1"/>
        <pt x="412" y="-131" on="0"/>
        <pt x="445" y="-148" on="1"/>
        <pt x="468" y="-160" on="0"/>
        <pt x="503" y="-160" on="1"/>
        <pt x="505" y="-160" on="0"/>
        <pt x="507" y="-160" on="1"/>
        <pt x="505" y="-174" on="1"/>
        <pt x="494" y="-176" on="0"/>
        <pt x="483" y="-176" on="1"/>
        <pt x="441" y="-176" on="0"/>
        <pt x="391" y="-130" on="0"/>
      </contour>
      <contour>
        <pt x="313" y="732" on="1"/>
        <pt x="317" y="732" on="0"/>
        <pt x="320" y="732" on="1"/>
        <pt x="616" y="722" on="1"/>
        <pt x="614" y="708" on="1"/>
        <pt x="317" y="708" on="1"/>
        <pt x="215" y="708" on="0"/>
        <pt x="198" y="602" on="1"/>
        <pt x="162" y="375" on="1"/>
        <pt x="520" y="370" on="1"/>
        <pt x="518" y="356" on="1"/>
        <pt x="158" y="351" on="1"/>
        <pt x="122" y="123" on="1"/>
        <pt x="119" y="106" on="0"/>
        <pt x="119" y="93" on="1"/>
        <pt x="119" y="56" on="0"/>
        <pt x="166" y="21" on="0"/>
        <pt x="218" y="21" on="1"/>
        <pt x="505" y="21" on="1"/>
        <pt x="503" y="7" on="1"/>
        <pt x="214" y="-3" on="1"/>
        <pt x="210" y="-3" on="0"/>
        <pt x="206" y="-3" on="1"/>
        <pt x="95" y="-3" on="0"/>
        <pt x="95" y="91" on="1"/>
        <pt x="95" y="108" on="0"/>
        <pt x="98" y="128" on="1"/>
        <pt x="174" y="607" on="1"/>
        <pt x="185" y="675" on="0"/>
        <pt x="263" y="732" on="0"/>
      </contour>
    </TTGlyph>
    <TTGlyph name="Eth" xMin="72" yMin="0" xMax="662" yMax="732">
      <contour>
        <pt x="447" y="732" on="1"/>
        <pt x="512" y="732" on="0"/>
        <pt x="602" y="681" on="0"/>
        <pt x="624" y="642" on="1"/>
        <pt x="661" y="578" on="0"/>
        <pt x="661" y="474" on="1"/>
        <pt x="661" y="422" on="0"/>
        <pt x="635" y="279" on="0"/>
        <pt x="587" y="156" on="0"/>
        <pt x="550" y="106" on="1"/>
        <pt x="472" y="0" on="0"/>
        <pt x="338" y="0" on="1"/>
        <pt x="79" y="0" on="1"/>
        <pt x="137" y="366" on="1"/>
        <pt x="72" y="366" on="1"/>
        <pt x="74" y="380" on="1"/>
        <pt x="139" y="380" on="1"/>
        <pt x="195" y="732" on="1"/>
      </contour>
      <contour>
        <pt x="338" y="24" on="1"/>
        <pt x="403" y="24" on="0"/>
        <pt x="508" y="87" on="0"/>
        <pt x="541" y="140" on="1"/>
        <pt x="605" y="241" on="0"/>
        <pt x="625" y="364" on="1"/>
        <pt x="636" y="430" on="0"/>
        <pt x="636" y="482" on="1"/>
        <pt x="636" y="570" on="0"/>
        <pt x="606" y="623" on="1"/>
        <pt x="558" y="708" on="0"/>
        <pt x="442" y="708" on="1"/>
        <pt x="215" y="708" on="1"/>
        <pt x="163" y="380" on="1"/>
        <pt x="322" y="380" on="1"/>
        <pt x="320" y="366" on="1"/>
        <pt x="161" y="366" on="1"/>
        <pt x="107" y="24" on="1"/>
      </contour>
    </TTGlyph>
    <TTGlyph name="Euro" xMin="70" yMin="-6" xMax="678" yMax="740">
      <contour>
        <pt x="466" y="271" on="1"/>
        <pt x="313" y="271" on="1"/>
        <pt x="178" y="271" on="0"/>
        <pt x="181" y="268" on="1"/>
        <pt x="175" y="233" on="0"/>
        <pt x="175" y="203" on="1"/>
        <pt x="175" y="134" on="0"/>
        <pt x="206" y="88" on="1"/>
        <pt x="252" y="20" on="0"/>
        <pt x="352" y="18" on="1"/>
        <pt x="364" y="18" on="0"/>
        <pt x="389" y="18" on="1"/>
        <pt x="464" y="18" on="0"/>
        <pt x="542" y="26" on="1"/>
        <pt x="573" y="30" on="1"/>
        <pt x="570" y="15" on="1"/>
        <pt x="477" y="-6" on="0"/>
        <pt x="354" y="-6" on="1"/>
        <pt x="281" y="-6" on="0"/>
        <pt x="232" y="26" on="1"/>
        <pt x="182" y="61" on="0"/>
        <pt x="167" y="109" on="1"/>
        <pt x="151" y="160" on="0"/>
        <pt x="151" y="235" on="0"/>
        <pt x="157" y="268" on="1"/>
        <pt x="70" y="272" on="1"/>
        <pt x="72" y="286" on="1"/>
        <pt x="161" y="289" on="1"/>
        <pt x="183" y="430" on="1"/>
        <pt x="96" y="433" on="1"/>
        <pt x="98" y="446" on="1"/>
        <pt x="186" y="450" on="1"/>
        <pt x="203" y="559" on="0"/>
        <pt x="236" y="617" on="1"/>
        <pt x="306" y="740" on="0"/>
        <pt x="466" y="740" on="1"/>
        <pt x="573" y="740" on="0"/>
        <pt x="678" y="720" on="1"/>
        <pt x="676" y="706" on="1"/>
        <pt x="536" y="716" on="0"/>
        <pt x="411" y="716" on="0"/>
        <pt x="327" y="685" on="0"/>
        <pt x="274" y="638" on="0"/>
        <pt x="255" y="602" on="1"/>
        <pt x="224" y="542" on="0"/>
        <pt x="210" y="450" on="1"/>
        <pt x="494" y="447" on="1"/>
        <pt x="492" y="433" on="1"/>
        <pt x="207" y="430" on="1"/>
        <pt x="185" y="289" on="1"/>
        <pt x="468" y="285" on="1"/>
      </contour>
    </TTGlyph>
    <TTGlyph name="Euro.smcp" xMin="47" yMin="-5" xMax="543" yMax="577">
      <contour>
        <pt x="227" y="538" on="0"/>
        <pt x="311" y="577" on="0"/>
        <pt x="421" y="577" on="0"/>
        <pt x="543" y="554" on="1"/>
        <pt x="541" y="542" on="1"/>
        <pt x="425" y="553" on="0"/>
        <pt x="361" y="553" on="1"/>
        <pt x="193" y="553" on="0"/>
        <pt x="161" y="349" on="1"/>
        <pt x="345" y="343" on="1"/>
        <pt x="343" y="332" on="1"/>
        <pt x="158" y="327" on="1"/>
        <pt x="143" y="233" on="1"/>
        <pt x="327" y="228" on="1"/>
        <pt x="325" y="216" on="1"/>
        <pt x="313" y="216" on="0"/>
        <pt x="274" y="215" on="0"/>
        <pt x="233" y="214" on="1"/>
        <pt x="137" y="212" on="0"/>
        <pt x="139" y="210" on="1"/>
        <pt x="135" y="182" on="0"/>
        <pt x="135" y="158" on="1"/>
        <pt x="135" y="19" on="0"/>
        <pt x="277" y="19" on="1"/>
        <pt x="349" y="19" on="0"/>
        <pt x="434" y="31" on="1"/>
        <pt x="463" y="35" on="1"/>
        <pt x="461" y="23" on="1"/>
        <pt x="358" y="-5" on="0"/>
        <pt x="185" y="-5" on="0"/>
        <pt x="141" y="48" on="1"/>
        <pt x="109" y="87" on="0"/>
        <pt x="109" y="154" on="1"/>
        <pt x="109" y="180" on="0"/>
        <pt x="114" y="210" on="1"/>
        <pt x="47" y="216" on="1"/>
        <pt x="49" y="226" on="1"/>
        <pt x="118" y="233" on="1"/>
        <pt x="133" y="327" on="1"/>
        <pt x="66" y="333" on="1"/>
        <pt x="67" y="342" on="1"/>
        <pt x="136" y="349" on="1"/>
        <pt x="144" y="401" on="0"/>
        <pt x="182" y="489" on="0"/>
      </contour>
    </TTGlyph>
    <TTGlyph name="F" xMin="80" yMin="0" xMax="617" yMax="733">
      <contour>
        <pt x="313" y="732" on="1"/>
        <pt x="317" y="732" on="0"/>
        <pt x="321" y="732" on="1"/>
        <pt x="617" y="722" on="1"/>
        <pt x="615" y="708" on="1"/>
        <pt x="316" y="708" on="1"/>
        <pt x="265" y="708" on="0"/>
        <pt x="208" y="658" on="0"/>
        <pt x="199" y="602" on="1"/>
        <pt x="163" y="375" on="1"/>
        <pt x="522" y="370" on="1"/>
        <pt x="519" y="356" on="1"/>
        <pt x="160" y="351" on="1"/>
        <pt x="104" y="0" on="1"/>
        <pt x="80" y="0" on="1"/>
        <pt x="174" y="598" on="1"/>
        <pt x="186" y="677" on="0"/>
        <pt x="260" y="732" on="0"/>
      </contour>
    </TTGlyph>
    <TTGlyph name="G" xMin="107" yMin="-5" xMax="647" yMax="740">
      <contour>
        <pt x="256" y="701" on="0"/>
        <pt x="344" y="740" on="0"/>
        <pt x="441" y="740" on="0"/>
        <pt x="596" y="723" on="0"/>
        <pt x="647" y="713" on="1"/>
        <pt x="644" y="694" on="1"/>
        <pt x="602" y="700" on="1"/>
        <pt x="474" y="716" on="0"/>
        <pt x="398" y="716" on="1"/>
        <pt x="282" y="716" on="0"/>
        <pt x="177" y="548" on="0"/>
        <pt x="149" y="368" on="1"/>
        <pt x="132" y="271" on="0"/>
        <pt x="132" y="140" on="0"/>
        <pt x="146" y="100" on="1"/>
        <pt x="177" y="19" on="0"/>
        <pt x="293" y="19" on="1"/>
        <pt x="362" y="19" on="0"/>
        <pt x="494" y="56" on="1"/>
        <pt x="538" y="69" on="1"/>
        <pt x="584" y="364" on="1"/>
        <pt x="370" y="364" on="1"/>
        <pt x="373" y="378" on="1"/>
        <pt x="415" y="389" on="0"/>
        <pt x="576" y="389" on="0"/>
        <pt x="612" y="386" on="1"/>
        <pt x="551" y="0" on="1"/>
        <pt x="537" y="0" on="1"/>
        <pt x="537" y="54" on="1"/>
        <pt x="502" y="37" on="0"/>
        <pt x="348" y="-5" on="0"/>
        <pt x="239" y="-5" on="0"/>
        <pt x="167" y="20" on="0"/>
        <pt x="127" y="75" on="0"/>
        <pt x="107" y="138" on="0"/>
        <pt x="107" y="186" on="1"/>
        <pt x="107" y="259" on="0"/>
        <pt x="136" y="446" on="0"/>
        <pt x="158" y="540" on="0"/>
        <pt x="200" y="641" on="0"/>
      </contour>
    </TTGlyph>
    <TTGlyph name="Gbreve" xMin="107" yMin="-5" xMax="647" yMax="914">
      <contour>
        <pt x="327" y="897" on="1"/>
        <pt x="327" y="865" on="0"/>
        <pt x="371" y="814" on="0"/>
        <pt x="411" y="814" on="1"/>
        <pt x="456" y="814" on="0"/>
        <pt x="524" y="871" on="0"/>
        <pt x="531" y="914" on="1"/>
        <pt x="545" y="914" on="1"/>
        <pt x="536" y="861" on="0"/>
        <pt x="457" y="800" on="0"/>
        <pt x="367" y="800" on="0"/>
        <pt x="313" y="856" on="0"/>
        <pt x="313" y="894" on="1"/>
        <pt x="313" y="903" on="0"/>
        <pt x="315" y="914" on="1"/>
        <pt x="329" y="914" on="1"/>
        <pt x="327" y="905" on="0"/>
      </contour>
      <contour>
        <pt x="256" y="701" on="0"/>
        <pt x="344" y="740" on="0"/>
        <pt x="441" y="740" on="0"/>
        <pt x="596" y="723" on="0"/>
        <pt x="647" y="713" on="1"/>
        <pt x="644" y="694" on="1"/>
        <pt x="602" y="700" on="1"/>
        <pt x="474" y="716" on="0"/>
        <pt x="398" y="716" on="1"/>
        <pt x="282" y="716" on="0"/>
        <pt x="177" y="548" on="0"/>
        <pt x="149" y="368" on="1"/>
        <pt x="132" y="271" on="0"/>
        <pt x="132" y="140" on="0"/>
        <pt x="146" y="100" on="1"/>
        <pt x="177" y="19" on="0"/>
        <pt x="293" y="19" on="1"/>
        <pt x="362" y="19" on="0"/>
        <pt x="494" y="56" on="1"/>
        <pt x="538" y="69" on="1"/>
        <pt x="584" y="364" on="1"/>
        <pt x="370" y="364" on="1"/>
        <pt x="373" y="378" on="1"/>
        <pt x="415" y="389" on="0"/>
        <pt x="576" y="389" on="0"/>
        <pt x="612" y="386" on="1"/>
        <pt x="551" y="0" on="1"/>
        <pt x="537" y="0" on="1"/>
        <pt x="537" y="54" on="1"/>
        <pt x="502" y="37" on="0"/>
        <pt x="348" y="-5" on="0"/>
        <pt x="239" y="-5" on="0"/>
        <pt x="167" y="20" on="0"/>
        <pt x="127" y="75" on="0"/>
        <pt x="107" y="138" on="0"/>
        <pt x="107" y="186" on="1"/>
        <pt x="107" y="259" on="0"/>
        <pt x="136" y="446" on="0"/>
        <pt x="158" y="540" on="0"/>
        <pt x="200" y="641" on="0"/>
      </contour>
    </TTGlyph>
    <TTGlyph name="Gcircumflex" xMin="107" yMin="-5" xMax="647" yMax="930">
      <contour>
        <pt x="276" y="800" on="1"/>
        <pt x="429" y="930" on="1"/>
        <pt x="450" y="930" on="1"/>
        <pt x="548" y="800" on="1"/>
        <pt x="531" y="800" on="1"/>
        <pt x="437" y="915" on="1"/>
        <pt x="294" y="800" on="1"/>
      </contour>
      <contour>
        <pt x="256" y="701" on="0"/>
        <pt x="344" y="740" on="0"/>
        <pt x="441" y="740" on="0"/>
        <pt x="596" y="723" on="0"/>
        <pt x="647" y="713" on="1"/>
        <pt x="644" y="694" on="1"/>
        <pt x="602" y="700" on="1"/>
        <pt x="474" y="716" on="0"/>
        <pt x="398" y="716" on="1"/>
        <pt x="282" y="716" on="0"/>
        <pt x="177" y="548" on="0"/>
        <pt x="149" y="368" on="1"/>
        <pt x="132" y="271" on="0"/>
        <pt x="132" y="140" on="0"/>
        <pt x="146" y="100" on="1"/>
        <pt x="177" y="19" on="0"/>
        <pt x="293" y="19" on="1"/>
        <pt x="362" y="19" on="0"/>
        <pt x="494" y="56" on="1"/>
        <pt x="538" y="69" on="1"/>
        <pt x="584" y="364" on="1"/>
        <pt x="370" y="364" on="1"/>
        <pt x="373" y="378" on="1"/>
        <pt x="415" y="389" on="0"/>
        <pt x="576" y="389" on="0"/>
        <pt x="612" y="386" on="1"/>
        <pt x="551" y="0" on="1"/>
        <pt x="537" y="0" on="1"/>
        <pt x="537" y="54" on="1"/>
        <pt x="502" y="37" on="0"/>
        <pt x="348" y="-5" on="0"/>
        <pt x="239" y="-5" on="0"/>
        <pt x="167" y="20" on="0"/>
        <pt x="127" y="75" on="0"/>
        <pt x="107" y="138" on="0"/>
        <pt x="107" y="186" on="1"/>
        <pt x="107" y="259" on="0"/>
        <pt x="136" y="446" on="0"/>
        <pt x="158" y="540" on="0"/>
        <pt x="200" y="641" on="0"/>
      </contour>
    </TTGlyph>
    <TTGlyph name="Gcommaaccent" xMin="107" yMin="-203" xMax="647" yMax="740">
      <contour>
        <pt x="313" y="-140" on="1"/>
        <pt x="302" y="-140" on="0"/>
        <pt x="304" y="-128" on="1"/>
        <pt x="313" y="-72" on="1"/>
        <pt x="315" y="-61" on="0"/>
        <pt x="325" y="-61" on="1"/>
        <pt x="334" y="-61" on="1"/>
        <pt x="345" y="-61" on="0"/>
        <pt x="343" y="-72" on="1"/>
        <pt x="327" y="-173" on="1"/>
        <pt x="325" y="-189" on="0"/>
        <pt x="309" y="-202" on="0"/>
        <pt x="302" y="-202" on="0"/>
        <pt x="294" y="-201" on="1"/>
        <pt x="295" y="-196" on="1"/>
        <pt x="309" y="-196" on="0"/>
        <pt x="312" y="-182" on="1"/>
        <pt x="318" y="-140" on="1"/>
      </contour>
      <contour>
        <pt x="256" y="701" on="0"/>
        <pt x="344" y="740" on="0"/>
        <pt x="441" y="740" on="0"/>
        <pt x="596" y="723" on="0"/>
        <pt x="647" y="713" on="1"/>
        <pt x="644" y="694" on="1"/>
        <pt x="602" y="700" on="1"/>
        <pt x="474" y="716" on="0"/>
        <pt x="398" y="716" on="1"/>
        <pt x="282" y="716" on="0"/>
        <pt x="177" y="548" on="0"/>
        <pt x="149" y="368" on="1"/>
        <pt x="132" y="271" on="0"/>
        <pt x="132" y="140" on="0"/>
        <pt x="146" y="100" on="1"/>
        <pt x="177" y="19" on="0"/>
        <pt x="293" y="19" on="1"/>
        <pt x="362" y="19" on="0"/>
        <pt x="494" y="56" on="1"/>
        <pt x="538" y="69" on="1"/>
        <pt x="584" y="364" on="1"/>
        <pt x="370" y="364" on="1"/>
        <pt x="373" y="378" on="1"/>
        <pt x="415" y="389" on="0"/>
        <pt x="576" y="389" on="0"/>
        <pt x="612" y="386" on="1"/>
        <pt x="551" y="0" on="1"/>
        <pt x="537" y="0" on="1"/>
        <pt x="537" y="54" on="1"/>
        <pt x="502" y="37" on="0"/>
        <pt x="348" y="-5" on="0"/>
        <pt x="239" y="-5" on="0"/>
        <pt x="167" y="20" on="0"/>
        <pt x="127" y="75" on="0"/>
        <pt x="107" y="138" on="0"/>
        <pt x="107" y="186" on="1"/>
        <pt x="107" y="259" on="0"/>
        <pt x="136" y="446" on="0"/>
        <pt x="158" y="540" on="0"/>
        <pt x="200" y="641" on="0"/>
      </contour>
    </TTGlyph>
    <TTGlyph name="Gdotaccent" xMin="107" yMin="-5" xMax="647" yMax="886">
      <contour>
        <pt x="439" y="886" on="1"/>
        <pt x="450" y="886" on="1"/>
        <pt x="462" y="886" on="0"/>
        <pt x="460" y="874" on="1"/>
        <pt x="450" y="812" on="1"/>
        <pt x="448" y="800" on="0"/>
        <pt x="436" y="800" on="1"/>
        <pt x="425" y="800" on="1"/>
        <pt x="413" y="800" on="0"/>
        <pt x="415" y="812" on="1"/>
        <pt x="425" y="874" on="1"/>
        <pt x="427" y="886" on="0"/>
      </contour>
      <contour>
        <pt x="256" y="701" on="0"/>
        <pt x="344" y="740" on="0"/>
        <pt x="441" y="740" on="0"/>
        <pt x="596" y="723" on="0"/>
        <pt x="647" y="713" on="1"/>
        <pt x="644" y="694" on="1"/>
        <pt x="602" y="700" on="1"/>
        <pt x="474" y="716" on="0"/>
        <pt x="398" y="716" on="1"/>
        <pt x="282" y="716" on="0"/>
        <pt x="177" y="548" on="0"/>
        <pt x="149" y="368" on="1"/>
        <pt x="132" y="271" on="0"/>
        <pt x="132" y="140" on="0"/>
        <pt x="146" y="100" on="1"/>
        <pt x="177" y="19" on="0"/>
        <pt x="293" y="19" on="1"/>
        <pt x="362" y="19" on="0"/>
        <pt x="494" y="56" on="1"/>
        <pt x="538" y="69" on="1"/>
        <pt x="584" y="364" on="1"/>
        <pt x="370" y="364" on="1"/>
        <pt x="373" y="378" on="1"/>
        <pt x="415" y="389" on="0"/>
        <pt x="576" y="389" on="0"/>
        <pt x="612" y="386" on="1"/>
        <pt x="551" y="0" on="1"/>
        <pt x="537" y="0" on="1"/>
        <pt x="537" y="54" on="1"/>
        <pt x="502" y="37" on="0"/>
        <pt x="348" y="-5" on="0"/>
        <pt x="239" y="-5" on="0"/>
        <pt x="167" y="20" on="0"/>
        <pt x="127" y="75" on="0"/>
        <pt x="107" y="138" on="0"/>
        <pt x="107" y="186" on="1"/>
        <pt x="107" y="259" on="0"/>
        <pt x="136" y="446" on="0"/>
        <pt x="158" y="540" on="0"/>
        <pt x="200" y="641" on="0"/>
      </contour>
    </TTGlyph>
    <TTGlyph name="H" xMin="85" yMin="0" xMax="689" yMax="732">
      <contour>
        <pt x="85" y="0" on="1"/>
        <pt x="201" y="732" on="1"/>
        <pt x="225" y="732" on="1"/>
        <pt x="167" y="366" on="1"/>
        <pt x="607" y="366" on="1"/>
        <pt x="665" y="732" on="1"/>
        <pt x="689" y="732" on="1"/>
        <pt x="573" y="0" on="1"/>
        <pt x="549" y="0" on="1"/>
        <pt x="603" y="342" on="1"/>
        <pt x="163" y="342" on="1"/>
        <pt x="109" y="0" on="1"/>
      </contour>
    </TTGlyph>
    <TTGlyph name="Hbar" xMin="85" yMin="0" xMax="705" yMax="732">
      <contour>
        <pt x="85" y="0" on="1"/>
        <pt x="170" y="537" on="1"/>
        <pt x="105" y="537" on="1"/>
        <pt x="107" y="552" on="1"/>
        <pt x="172" y="552" on="1"/>
        <pt x="201" y="732" on="1"/>
        <pt x="225" y="732" on="1"/>
        <pt x="196" y="552" on="1"/>
        <pt x="616" y="552" on="1"/>
        <pt x="645" y="732" on="1"/>
        <pt x="669" y="732" on="1"/>
        <pt x="640" y="552" on="1"/>
        <pt x="705" y="552" on="1"/>
        <pt x="703" y="537" on="1"/>
        <pt x="638" y="537" on="1"/>
        <pt x="553" y="0" on="1"/>
        <pt x="529" y="0" on="1"/>
        <pt x="583" y="342" on="1"/>
        <pt x="163" y="342" on="1"/>
        <pt x="109" y="0" on="1"/>
      </contour>
      <contour>
        <pt x="167" y="366" on="1"/>
        <pt x="587" y="366" on="1"/>
        <pt x="614" y="537" on="1"/>
        <pt x="194" y="537" on="1"/>
      </contour>
    </TTGlyph>
    <TTGlyph name="Hcircumflex" xMin="85" yMin="0" xMax="689" yMax="927">
      <contour>
        <pt x="319" y="797" on="1"/>
        <pt x="472" y="927" on="1"/>
        <pt x="493" y="927" on="1"/>
        <pt x="591" y="797" on="1"/>
        <pt x="574" y="797" on="1"/>
        <pt x="480" y="912" on="1"/>
        <pt x="337" y="797" on="1"/>
      </contour>
      <contour>
        <pt x="85" y="0" on="1"/>
        <pt x="201" y="732" on="1"/>
        <pt x="225" y="732" on="1"/>
        <pt x="167" y="366" on="1"/>
        <pt x="607" y="366" on="1"/>
        <pt x="665" y="732" on="1"/>
        <pt x="689" y="732" on="1"/>
        <pt x="573" y="0" on="1"/>
        <pt x="549" y="0" on="1"/>
        <pt x="603" y="342" on="1"/>
        <pt x="163" y="342" on="1"/>
        <pt x="109" y="0" on="1"/>
      </contour>
    </TTGlyph>
    <TTGlyph name="I" xMin="90" yMin="0" xMax="230" yMax="732">
      <contour>
        <pt x="90" y="0" on="1"/>
        <pt x="206" y="732" on="1"/>
        <pt x="230" y="732" on="1"/>
        <pt x="114" y="0" on="1"/>
      </contour>
    </TTGlyph>
    <TTGlyph name="Iacute" xMin="90" yMin="0" xMax="390" yMax="930">
      <contour>
        <pt x="221" y="797" on="1"/>
        <pt x="363" y="930" on="1"/>
        <pt x="389" y="930" on="1"/>
        <pt x="235" y="797" on="1"/>
      </contour>
      <contour>
        <pt x="90" y="0" on="1"/>
        <pt x="206" y="732" on="1"/>
        <pt x="230" y="732" on="1"/>
        <pt x="114" y="0" on="1"/>
      </contour>
    </TTGlyph>
    <TTGlyph name="Icircumflex" xMin="90" yMin="0" xMax="365" yMax="927">
      <contour>
        <pt x="92" y="797" on="1"/>
        <pt x="245" y="927" on="1"/>
        <pt x="266" y="927" on="1"/>
        <pt x="364" y="797" on="1"/>
        <pt x="347" y="797" on="1"/>
        <pt x="253" y="912" on="1"/>
        <pt x="110" y="797" on="1"/>
      </contour>
      <contour>
        <pt x="90" y="0" on="1"/>
        <pt x="206" y="732" on="1"/>
        <pt x="230" y="732" on="1"/>
        <pt x="114" y="0" on="1"/>
      </contour>
    </TTGlyph>
    <TTGlyph name="Idieresis" xMin="85" yMin="0" xMax="377" yMax="832">
      <contour>
        <pt x="107" y="832" on="1"/>
        <pt x="115" y="832" on="0"/>
        <pt x="123" y="822" on="0"/>
        <pt x="121" y="815" on="1"/>
        <pt x="118" y="797" on="0"/>
        <pt x="101" y="797" on="1"/>
        <pt x="94" y="797" on="0"/>
        <pt x="86" y="806" on="0"/>
        <pt x="86" y="811" on="1"/>
        <pt x="86" y="832" on="0"/>
      </contour>
      <contour>
        <pt x="341" y="815" on="1"/>
        <pt x="345" y="832" on="0"/>
        <pt x="377" y="832" on="0"/>
        <pt x="377" y="819" on="1"/>
        <pt x="377" y="797" on="0"/>
        <pt x="356" y="797" on="1"/>
        <pt x="349" y="797" on="0"/>
        <pt x="340" y="808" on="0"/>
      </contour>
      <contour>
        <pt x="90" y="0" on="1"/>
        <pt x="206" y="732" on="1"/>
        <pt x="230" y="732" on="1"/>
        <pt x="114" y="0" on="1"/>
      </contour>
    </TTGlyph>
    <TTGlyph name="Idotaccent" xMin="90" yMin="0" xMax="258" yMax="883">
      <contour>
        <pt x="237" y="883" on="1"/>
        <pt x="248" y="883" on="1"/>
        <pt x="260" y="883" on="0"/>
        <pt x="258" y="871" on="1"/>
        <pt x="248" y="809" on="1"/>
        <pt x="246" y="797" on="0"/>
        <pt x="234" y="797" on="1"/>
        <pt x="223" y="797" on="1"/>
        <pt x="211" y="797" on="0"/>
        <pt x="213" y="809" on="1"/>
        <pt x="223" y="871" on="1"/>
        <pt x="225" y="883" on="0"/>
      </contour>
      <contour>
        <pt x="90" y="0" on="1"/>
        <pt x="206" y="732" on="1"/>
        <pt x="230" y="732" on="1"/>
        <pt x="114" y="0" on="1"/>
      </contour>
    </TTGlyph>
    <TTGlyph name="Idotaccent.smcp" xMin="60" yMin="0" xMax="203" yMax="710">
      <contour>
        <pt x="60" y="0" on="1"/>
        <pt x="150" y="570" on="1"/>
        <pt x="174" y="570" on="1"/>
        <pt x="84" y="0" on="1"/>
      </contour>
      <contour>
        <pt x="182" y="710" on="1"/>
        <pt x="193" y="710" on="1"/>
        <pt x="205" y="710" on="0"/>
        <pt x="203" y="698" on="1"/>
        <pt x="193" y="636" on="1"/>
        <pt x="191" y="624" on="0"/>
        <pt x="179" y="624" on="1"/>
        <pt x="168" y="624" on="1"/>
        <pt x="156" y="624" on="0"/>
        <pt x="158" y="636" on="1"/>
        <pt x="168" y="698" on="1"/>
        <pt x="170" y="710" on="0"/>
      </contour>
    </TTGlyph>
    <TTGlyph name="Igrave" xMin="90" yMin="0" xMax="236" yMax="930">
      <contour>
        <pt x="109" y="930" on="1"/>
        <pt x="135" y="930" on="1"/>
        <pt x="235" y="797" on="1"/>
        <pt x="221" y="797" on="1"/>
      </contour>
      <contour>
        <pt x="90" y="0" on="1"/>
        <pt x="206" y="732" on="1"/>
        <pt x="230" y="732" on="1"/>
        <pt x="114" y="0" on="1"/>
      </contour>
    </TTGlyph>
    <TTGlyph name="Imacron" xMin="90" yMin="0" xMax="357" yMax="812">
      <contour>
        <pt x="103" y="797" on="1"/>
        <pt x="105" y="812" on="1"/>
        <pt x="357" y="812" on="1"/>
        <pt x="355" y="797" on="1"/>
      </contour>
      <contour>
        <pt x="90" y="0" on="1"/>
        <pt x="206" y="732" on="1"/>
        <pt x="230" y="732" on="1"/>
        <pt x="114" y="0" on="1"/>
      </contour>
    </TTGlyph>
    <TTGlyph name="Iogonek" xMin="-2" yMin="-183" xMax="230" yMax="732">
      <contour>
        <pt x="-2" y="-110" on="1"/>
        <pt x="-2" y="-41" on="0"/>
        <pt x="97" y="0" on="1"/>
        <pt x="109" y="0" on="1"/>
        <pt x="75" y="-13" on="0"/>
        <pt x="52" y="-35" on="1"/>
        <pt x="19" y="-65" on="0"/>
        <pt x="19" y="-102" on="1"/>
        <pt x="19" y="-138" on="0"/>
        <pt x="52" y="-155" on="1"/>
        <pt x="75" y="-167" on="0"/>
        <pt x="110" y="-167" on="1"/>
        <pt x="112" y="-167" on="0"/>
        <pt x="114" y="-167" on="1"/>
        <pt x="112" y="-181" on="1"/>
        <pt x="101" y="-182" on="0"/>
        <pt x="90" y="-182" on="1"/>
        <pt x="48" y="-182" on="0"/>
        <pt x="-2" y="-137" on="0"/>
      </contour>
      <contour>
        <pt x="90" y="0" on="1"/>
        <pt x="206" y="732" on="1"/>
        <pt x="230" y="732" on="1"/>
        <pt x="114" y="0" on="1"/>
      </contour>
    </TTGlyph>
    <TTGlyph name="Itilde" xMin="90" yMin="0" xMax="433" yMax="891">
      <contour>
        <pt x="205" y="891" on="1"/>
        <pt x="225" y="891" on="0"/>
        <pt x="306" y="818" on="0"/>
        <pt x="321" y="818" on="1"/>
        <pt x="355" y="818" on="0"/>
        <pt x="418" y="864" on="1"/>
        <pt x="427" y="870" on="0"/>
        <pt x="428" y="871" on="1"/>
        <pt x="433" y="864" on="1"/>
        <pt x="407" y="842" on="0"/>
        <pt x="394" y="832" on="1"/>
        <pt x="353" y="802" on="0"/>
        <pt x="318" y="802" on="1"/>
        <pt x="296" y="802" on="0"/>
        <pt x="218" y="875" on="0"/>
        <pt x="195" y="875" on="0"/>
        <pt x="180" y="873" on="0"/>
        <pt x="163" y="866" on="0"/>
        <pt x="151" y="861" on="0"/>
        <pt x="132" y="849" on="0"/>
        <pt x="127" y="846" on="1"/>
        <pt x="114" y="840" on="0"/>
        <pt x="94" y="825" on="1"/>
        <pt x="90" y="833" on="1"/>
        <pt x="165" y="891" on="0"/>
      </contour>
      <contour>
        <pt x="109" y="0" on="1"/>
        <pt x="225" y="732" on="1"/>
        <pt x="249" y="732" on="1"/>
        <pt x="133" y="0" on="1"/>
      </contour>
    </TTGlyph>
    <TTGlyph name="J" xMin="38" yMin="-6" xMax="385" yMax="732">
      <contour>
        <pt x="130" y="19" on="1"/>
        <pt x="247" y="19" on="0"/>
        <pt x="271" y="165" on="1"/>
        <pt x="361" y="732" on="1"/>
        <pt x="385" y="732" on="1"/>
        <pt x="295" y="165" on="1"/>
        <pt x="279" y="57" on="0"/>
        <pt x="220" y="18" on="1"/>
        <pt x="185" y="-5" on="0"/>
        <pt x="133" y="-5" on="1"/>
        <pt x="74" y="-5" on="0"/>
        <pt x="38" y="21" on="1"/>
        <pt x="44" y="35" on="1"/>
        <pt x="92" y="19" on="0"/>
      </contour>
    </TTGlyph>
    <TTGlyph name="Jcircumflex" xMin="38" yMin="-6" xMax="520" yMax="927">
      <contour>
        <pt x="247" y="797" on="1"/>
        <pt x="400" y="927" on="1"/>
        <pt x="421" y="927" on="1"/>
        <pt x="519" y="797" on="1"/>
        <pt x="502" y="797" on="1"/>
        <pt x="408" y="912" on="1"/>
        <pt x="265" y="797" on="1"/>
      </contour>
      <contour>
        <pt x="130" y="19" on="1"/>
        <pt x="247" y="19" on="0"/>
        <pt x="271" y="165" on="1"/>
        <pt x="361" y="732" on="1"/>
        <pt x="385" y="732" on="1"/>
        <pt x="295" y="165" on="1"/>
        <pt x="279" y="57" on="0"/>
        <pt x="220" y="18" on="1"/>
        <pt x="185" y="-5" on="0"/>
        <pt x="133" y="-5" on="1"/>
        <pt x="74" y="-5" on="0"/>
        <pt x="38" y="21" on="1"/>
        <pt x="44" y="35" on="1"/>
        <pt x="92" y="19" on="0"/>
      </contour>
    </TTGlyph>
    <TTGlyph name="K" xMin="80" yMin="0" xMax="641" yMax="732">
      <contour>
        <pt x="80" y="0" on="1"/>
        <pt x="196" y="732" on="1"/>
        <pt x="220" y="732" on="1"/>
        <pt x="164" y="379" on="1"/>
        <pt x="317" y="379" on="1"/>
        <pt x="611" y="732" on="1"/>
        <pt x="641" y="732" on="1"/>
        <pt x="339" y="368" on="1"/>
        <pt x="526" y="0" on="1"/>
        <pt x="498" y="0" on="1"/>
        <pt x="317" y="355" on="1"/>
        <pt x="161" y="355" on="1"/>
        <pt x="105" y="0" on="1"/>
      </contour>
    </TTGlyph>
    <TTGlyph name="Kcommaaccent" xMin="80" yMin="-198" xMax="641" yMax="732">
      <contour>
        <pt x="271" y="-135" on="1"/>
        <pt x="260" y="-135" on="0"/>
        <pt x="262" y="-123" on="1"/>
        <pt x="271" y="-68" on="1"/>
        <pt x="273" y="-56" on="0"/>
        <pt x="283" y="-56" on="1"/>
        <pt x="292" y="-56" on="1"/>
        <pt x="303" y="-56" on="0"/>
        <pt x="301" y="-68" on="1"/>
        <pt x="285" y="-168" on="1"/>
        <pt x="283" y="-184" on="0"/>
        <pt x="267" y="-197" on="0"/>
        <pt x="260" y="-197" on="0"/>
        <pt x="252" y="-196" on="1"/>
        <pt x="253" y="-191" on="1"/>
        <pt x="267" y="-191" on="0"/>
        <pt x="270" y="-177" on="1"/>
        <pt x="276" y="-135" on="1"/>
      </contour>
      <contour>
        <pt x="80" y="0" on="1"/>
        <pt x="196" y="732" on="1"/>
        <pt x="220" y="732" on="1"/>
        <pt x="164" y="379" on="1"/>
        <pt x="317" y="379" on="1"/>
        <pt x="611" y="732" on="1"/>
        <pt x="641" y="732" on="1"/>
        <pt x="339" y="368" on="1"/>
        <pt x="526" y="0" on="1"/>
        <pt x="498" y="0" on="1"/>
        <pt x="317" y="355" on="1"/>
        <pt x="161" y="355" on="1"/>
        <pt x="105" y="0" on="1"/>
      </contour>
    </TTGlyph>
    <TTGlyph name="L" xMin="96" yMin="0" xMax="495" yMax="732">
      <contour>
        <pt x="120" y="96" on="1"/>
        <pt x="120" y="59" on="0"/>
        <pt x="168" y="24" on="0"/>
        <pt x="219" y="24" on="1"/>
        <pt x="495" y="24" on="1"/>
        <pt x="491" y="0" on="1"/>
        <pt x="220" y="0" on="1"/>
        <pt x="163" y="0" on="0"/>
        <pt x="128" y="20" on="1"/>
        <pt x="96" y="39" on="0"/>
        <pt x="96" y="93" on="1"/>
        <pt x="96" y="108" on="0"/>
        <pt x="99" y="126" on="1"/>
        <pt x="195" y="732" on="1"/>
        <pt x="219" y="732" on="1"/>
        <pt x="123" y="126" on="1"/>
        <pt x="120" y="109" on="0"/>
      </contour>
    </TTGlyph>
    <TTGlyph name="Lacute" xMin="96" yMin="0" xMax="495" yMax="930">
      <contour>
        <pt x="214" y="797" on="1"/>
        <pt x="356" y="930" on="1"/>
        <pt x="382" y="930" on="1"/>
        <pt x="228" y="797" on="1"/>
      </contour>
      <contour>
        <pt x="120" y="96" on="1"/>
        <pt x="120" y="59" on="0"/>
        <pt x="168" y="24" on="0"/>
        <pt x="219" y="24" on="1"/>
        <pt x="495" y="24" on="1"/>
        <pt x="491" y="0" on="1"/>
        <pt x="220" y="0" on="1"/>
        <pt x="163" y="0" on="0"/>
        <pt x="128" y="20" on="1"/>
        <pt x="96" y="39" on="0"/>
        <pt x="96" y="93" on="1"/>
        <pt x="96" y="108" on="0"/>
        <pt x="99" y="126" on="1"/>
        <pt x="195" y="732" on="1"/>
        <pt x="219" y="732" on="1"/>
        <pt x="123" y="126" on="1"/>
        <pt x="120" y="109" on="0"/>
      </contour>
    </TTGlyph>
    <TTGlyph name="Lcaron" xMin="95" yMin="0" xMax="495" yMax="772">
      <contour>
        <pt x="120" y="96" on="1"/>
        <pt x="120" y="59" on="0"/>
        <pt x="168" y="24" on="0"/>
        <pt x="219" y="24" on="1"/>
        <pt x="495" y="24" on="1"/>
        <pt x="491" y="0" on="1"/>
        <pt x="215" y="0" on="1"/>
        <pt x="153" y="0" on="0"/>
        <pt x="120" y="25" on="1"/>
        <pt x="96" y="43" on="0"/>
        <pt x="96" y="89" on="1"/>
        <pt x="96" y="106" on="0"/>
        <pt x="99" y="126" on="1"/>
        <pt x="195" y="732" on="1"/>
        <pt x="219" y="732" on="1"/>
        <pt x="123" y="126" on="1"/>
        <pt x="120" y="109" on="0"/>
      </contour>
      <contour>
        <pt x="285" y="571" on="1"/>
        <pt x="300" y="705" on="1"/>
        <pt x="310" y="772" on="1"/>
        <pt x="335" y="772" on="1"/>
        <pt x="325" y="705" on="1"/>
        <pt x="297" y="571" on="1"/>
      </contour>
    </TTGlyph>
    <TTGlyph name="Lcommaaccent" xMin="96" yMin="-198" xMax="495" yMax="732">
      <contour>
        <pt x="277" y="-135" on="1"/>
        <pt x="266" y="-135" on="0"/>
        <pt x="268" y="-123" on="1"/>
        <pt x="277" y="-68" on="1"/>
        <pt x="279" y="-56" on="0"/>
        <pt x="289" y="-56" on="1"/>
        <pt x="298" y="-56" on="1"/>
        <pt x="309" y="-56" on="0"/>
        <pt x="307" y="-68" on="1"/>
        <pt x="291" y="-168" on="1"/>
        <pt x="289" y="-184" on="0"/>
        <pt x="273" y="-197" on="0"/>
        <pt x="266" y="-197" on="0"/>
        <pt x="258" y="-196" on="1"/>
        <pt x="259" y="-191" on="1"/>
        <pt x="273" y="-191" on="0"/>
        <pt x="276" y="-177" on="1"/>
        <pt x="282" y="-135" on="1"/>
      </contour>
      <contour>
        <pt x="120" y="96" on="1"/>
        <pt x="120" y="59" on="0"/>
        <pt x="168" y="24" on="0"/>
        <pt x="219" y="24" on="1"/>
        <pt x="495" y="24" on="1"/>
        <pt x="491" y="0" on="1"/>
        <pt x="220" y="0" on="1"/>
        <pt x="163" y="0" on="0"/>
        <pt x="128" y="20" on="1"/>
        <pt x="96" y="39" on="0"/>
        <pt x="96" y="93" on="1"/>
        <pt x="96" y="108" on="0"/>
        <pt x="99" y="126" on="1"/>
        <pt x="195" y="732" on="1"/>
        <pt x="219" y="732" on="1"/>
        <pt x="123" y="126" on="1"/>
        <pt x="120" y="109" on="0"/>
      </contour>
    </TTGlyph>
    <TTGlyph name="Lslash" xMin="54" yMin="0" xMax="496" yMax="732">
      <contour>
        <pt x="121" y="96" on="1"/>
        <pt x="121" y="59" on="0"/>
        <pt x="169" y="24" on="0"/>
        <pt x="220" y="24" on="1"/>
        <pt x="496" y="24" on="1"/>
        <pt x="492" y="0" on="1"/>
        <pt x="219" y="0" on="1"/>
        <pt x="162" y="0" on="0"/>
        <pt x="129" y="20" on="1"/>
        <pt x="97" y="39" on="0"/>
        <pt x="97" y="93" on="1"/>
        <pt x="97" y="108" on="0"/>
        <pt x="100" y="126" on="1"/>
        <pt x="143" y="396" on="1"/>
        <pt x="54" y="360" on="1"/>
        <pt x="57" y="381" on="1"/>
        <pt x="146" y="417" on="1"/>
        <pt x="196" y="732" on="1"/>
        <pt x="220" y="732" on="1"/>
        <pt x="172" y="427" on="1"/>
        <pt x="300" y="479" on="1"/>
        <pt x="296" y="459" on="1"/>
        <pt x="168" y="407" on="1"/>
        <pt x="124" y="126" on="1"/>
        <pt x="121" y="109" on="0"/>
      </contour>
    </TTGlyph>
    <TTGlyph name="M" xMin="71" yMin="0" xMax="764" yMax="732">
      <contour>
        <pt x="71" y="0" on="1"/>
        <pt x="268" y="732" on="1"/>
        <pt x="302" y="732" on="1"/>
        <pt x="407" y="41" on="1"/>
        <pt x="725" y="732" on="1"/>
        <pt x="764" y="732" on="1"/>
        <pt x="732" y="0" on="1"/>
        <pt x="707" y="0" on="1"/>
        <pt x="739" y="701" on="1"/>
        <pt x="415" y="0" on="1"/>
        <pt x="387" y="0" on="1"/>
        <pt x="284" y="696" on="1"/>
        <pt x="96" y="0" on="1"/>
      </contour>
    </TTGlyph>
    <TTGlyph name="M.salt" xMin="55" yMin="0" xMax="784" yMax="740">
      <contour>
        <pt x="203" y="681" on="0"/>
        <pt x="234" y="724" on="0"/>
        <pt x="271" y="739" on="0"/>
        <pt x="281" y="739" on="1"/>
        <pt x="338" y="739" on="0"/>
        <pt x="347" y="680" on="1"/>
        <pt x="404" y="270" on="1"/>
        <pt x="407" y="249" on="0"/>
        <pt x="432" y="236" on="0"/>
        <pt x="461" y="251" on="0"/>
        <pt x="469" y="270" on="1"/>
        <pt x="643" y="681" on="1"/>
        <pt x="662" y="723" on="0"/>
        <pt x="698" y="736" on="1"/>
        <pt x="711" y="740" on="0"/>
        <pt x="743" y="740" on="0"/>
        <pt x="784" y="706" on="0"/>
        <pt x="784" y="666" on="1"/>
        <pt x="784" y="660" on="0"/>
        <pt x="783" y="654" on="1"/>
        <pt x="728" y="0" on="1"/>
        <pt x="704" y="0" on="1"/>
        <pt x="759" y="662" on="1"/>
        <pt x="759" y="665" on="0"/>
        <pt x="759" y="668" on="1"/>
        <pt x="759" y="694" on="0"/>
        <pt x="732" y="716" on="0"/>
        <pt x="721" y="716" on="1"/>
        <pt x="682" y="716" on="0"/>
        <pt x="665" y="673" on="1"/>
        <pt x="491" y="263" on="1"/>
        <pt x="478" y="233" on="0"/>
        <pt x="453" y="221" on="1"/>
        <pt x="440" y="215" on="0"/>
        <pt x="416" y="215" on="0"/>
        <pt x="406" y="220" on="1"/>
        <pt x="383" y="231" on="0"/>
        <pt x="379" y="263" on="1"/>
        <pt x="322" y="672" on="1"/>
        <pt x="318" y="704" on="0"/>
        <pt x="296" y="712" on="1"/>
        <pt x="289" y="716" on="0"/>
        <pt x="267" y="716" on="0"/>
        <pt x="231" y="691" on="0"/>
        <pt x="225" y="662" on="1"/>
        <pt x="78" y="0" on="1"/>
        <pt x="55" y="0" on="1"/>
        <pt x="198" y="652" on="1"/>
      </contour>
    </TTGlyph>
    <TTGlyph name="N" xMin="80" yMin="0" xMax="685" yMax="732">
      <contour>
        <pt x="80" y="0" on="1"/>
        <pt x="196" y="732" on="1"/>
        <pt x="221" y="732" on="1"/>
        <pt x="551" y="43" on="1"/>
        <pt x="661" y="732" on="1"/>
        <pt x="685" y="732" on="1"/>
        <pt x="569" y="0" on="1"/>
        <pt x="545" y="0" on="1"/>
        <pt x="214" y="690" on="1"/>
        <pt x="104" y="0" on="1"/>
      </contour>
    </TTGlyph>
    <TTGlyph name="N.salt" xMin="80" yMin="-9" xMax="711" yMax="738">
      <contour>
        <pt x="182" y="656" on="1"/>
        <pt x="187" y="691" on="0"/>
        <pt x="240" y="737" on="0"/>
        <pt x="282" y="737" on="1"/>
        <pt x="295" y="737" on="0"/>
        <pt x="341" y="709" on="0"/>
        <pt x="347" y="677" on="1"/>
        <pt x="465" y="59" on="1"/>
        <pt x="473" y="16" on="0"/>
        <pt x="513" y="16" on="1"/>
        <pt x="550" y="28" on="1"/>
        <pt x="577" y="46" on="0"/>
        <pt x="583" y="77" on="1"/>
        <pt x="687" y="732" on="1"/>
        <pt x="711" y="732" on="1"/>
        <pt x="608" y="75" on="1"/>
        <pt x="601" y="30" on="0"/>
        <pt x="564" y="6" on="1"/>
        <pt x="539" y="-9" on="0"/>
        <pt x="520" y="-9" on="1"/>
        <pt x="453" y="-9" on="0"/>
        <pt x="441" y="52" on="1"/>
        <pt x="322" y="672" on="1"/>
        <pt x="316" y="702" on="0"/>
        <pt x="290" y="711" on="1"/>
        <pt x="282" y="714" on="0"/>
        <pt x="256" y="714" on="0"/>
        <pt x="213" y="686" on="0"/>
        <pt x="207" y="650" on="1"/>
        <pt x="104" y="0" on="1"/>
        <pt x="80" y="0" on="1"/>
      </contour>
    </TTGlyph>
    <TTGlyph name="Nacute" xMin="80" yMin="0" xMax="685" yMax="930">
      <contour>
        <pt x="444" y="797" on="1"/>
        <pt x="586" y="930" on="1"/>
        <pt x="612" y="930" on="1"/>
        <pt x="458" y="797" on="1"/>
      </contour>
      <contour>
        <pt x="80" y="0" on="1"/>
        <pt x="196" y="732" on="1"/>
        <pt x="221" y="732" on="1"/>
        <pt x="551" y="43" on="1"/>
        <pt x="661" y="732" on="1"/>
        <pt x="685" y="732" on="1"/>
        <pt x="569" y="0" on="1"/>
        <pt x="545" y="0" on="1"/>
        <pt x="214" y="690" on="1"/>
        <pt x="104" y="0" on="1"/>
      </contour>
    </TTGlyph>
    <TTGlyph name="Nacute.salt" xMin="80" yMin="-9" xMax="711" yMax="930">
      <contour>
        <pt x="447" y="797" on="1"/>
        <pt x="589" y="930" on="1"/>
        <pt x="615" y="930" on="1"/>
        <pt x="461" y="797" on="1"/>
      </contour>
      <contour>
        <pt x="182" y="656" on="1"/>
        <pt x="187" y="691" on="0"/>
        <pt x="240" y="737" on="0"/>
        <pt x="282" y="737" on="1"/>
        <pt x="295" y="737" on="0"/>
        <pt x="341" y="709" on="0"/>
        <pt x="347" y="677" on="1"/>
        <pt x="465" y="59" on="1"/>
        <pt x="473" y="16" on="0"/>
        <pt x="513" y="16" on="1"/>
        <pt x="550" y="28" on="1"/>
        <pt x="577" y="46" on="0"/>
        <pt x="583" y="77" on="1"/>
        <pt x="687" y="732" on="1"/>
        <pt x="711" y="732" on="1"/>
        <pt x="608" y="75" on="1"/>
        <pt x="601" y="30" on="0"/>
        <pt x="564" y="6" on="1"/>
        <pt x="539" y="-9" on="0"/>
        <pt x="520" y="-9" on="1"/>
        <pt x="453" y="-9" on="0"/>
        <pt x="441" y="52" on="1"/>
        <pt x="322" y="672" on="1"/>
        <pt x="316" y="702" on="0"/>
        <pt x="290" y="711" on="1"/>
        <pt x="282" y="714" on="0"/>
        <pt x="256" y="714" on="0"/>
        <pt x="213" y="686" on="0"/>
        <pt x="207" y="650" on="1"/>
        <pt x="104" y="0" on="1"/>
        <pt x="80" y="0" on="1"/>
      </contour>
    </TTGlyph>
    <TTGlyph name="Ncaron" xMin="80" yMin="0" xMax="685" yMax="927">
      <contour>
        <pt x="336" y="927" on="1"/>
        <pt x="353" y="927" on="1"/>
        <pt x="447" y="812" on="1"/>
        <pt x="590" y="927" on="1"/>
        <pt x="608" y="927" on="1"/>
        <pt x="455" y="797" on="1"/>
        <pt x="434" y="797" on="1"/>
      </contour>
      <contour>
        <pt x="80" y="0" on="1"/>
        <pt x="196" y="732" on="1"/>
        <pt x="221" y="732" on="1"/>
        <pt x="551" y="43" on="1"/>
        <pt x="661" y="732" on="1"/>
        <pt x="685" y="732" on="1"/>
        <pt x="569" y="0" on="1"/>
        <pt x="545" y="0" on="1"/>
        <pt x="214" y="690" on="1"/>
        <pt x="104" y="0" on="1"/>
      </contour>
    </TTGlyph>
    <TTGlyph name="Ncaron.salt" xMin="80" yMin="-9" xMax="711" yMax="927">
      <contour>
        <pt x="362" y="927" on="1"/>
        <pt x="379" y="927" on="1"/>
        <pt x="473" y="812" on="1"/>
        <pt x="616" y="927" on="1"/>
        <pt x="634" y="927" on="1"/>
        <pt x="481" y="797" on="1"/>
        <pt x="460" y="797" on="1"/>
      </contour>
      <contour>
        <pt x="182" y="656" on="1"/>
        <pt x="187" y="691" on="0"/>
        <pt x="240" y="737" on="0"/>
        <pt x="282" y="737" on="1"/>
        <pt x="295" y="737" on="0"/>
        <pt x="341" y="709" on="0"/>
        <pt x="347" y="677" on="1"/>
        <pt x="465" y="59" on="1"/>
        <pt x="473" y="16" on="0"/>
        <pt x="513" y="16" on="1"/>
        <pt x="550" y="28" on="1"/>
        <pt x="577" y="46" on="0"/>
        <pt x="583" y="77" on="1"/>
        <pt x="687" y="732" on="1"/>
        <pt x="711" y="732" on="1"/>
        <pt x="608" y="75" on="1"/>
        <pt x="601" y="30" on="0"/>
        <pt x="564" y="6" on="1"/>
        <pt x="539" y="-9" on="0"/>
        <pt x="520" y="-9" on="1"/>
        <pt x="453" y="-9" on="0"/>
        <pt x="441" y="52" on="1"/>
        <pt x="322" y="672" on="1"/>
        <pt x="316" y="702" on="0"/>
        <pt x="290" y="711" on="1"/>
        <pt x="282" y="714" on="0"/>
        <pt x="256" y="714" on="0"/>
        <pt x="213" y="686" on="0"/>
        <pt x="207" y="650" on="1"/>
        <pt x="104" y="0" on="1"/>
        <pt x="80" y="0" on="1"/>
      </contour>
    </TTGlyph>
    <TTGlyph name="Ncommaaccent" xMin="80" yMin="-198" xMax="685" yMax="732">
      <contour>
        <pt x="313" y="-135" on="1"/>
        <pt x="302" y="-135" on="0"/>
        <pt x="304" y="-123" on="1"/>
        <pt x="313" y="-68" on="1"/>
        <pt x="315" y="-56" on="0"/>
        <pt x="325" y="-56" on="1"/>
        <pt x="334" y="-56" on="1"/>
        <pt x="345" y="-56" on="0"/>
        <pt x="343" y="-68" on="1"/>
        <pt x="327" y="-168" on="1"/>
        <pt x="325" y="-184" on="0"/>
        <pt x="309" y="-197" on="0"/>
        <pt x="302" y="-197" on="0"/>
        <pt x="294" y="-196" on="1"/>
        <pt x="295" y="-191" on="1"/>
        <pt x="309" y="-191" on="0"/>
        <pt x="312" y="-177" on="1"/>
        <pt x="318" y="-135" on="1"/>
      </contour>
      <contour>
        <pt x="80" y="0" on="1"/>
        <pt x="196" y="732" on="1"/>
        <pt x="221" y="732" on="1"/>
        <pt x="551" y="43" on="1"/>
        <pt x="661" y="732" on="1"/>
        <pt x="685" y="732" on="1"/>
        <pt x="569" y="0" on="1"/>
        <pt x="545" y="0" on="1"/>
        <pt x="214" y="690" on="1"/>
        <pt x="104" y="0" on="1"/>
      </contour>
    </TTGlyph>
    <TTGlyph name="Ncommaaccent.salt" xMin="80" yMin="-234" xMax="711" yMax="738">
      <contour>
        <pt x="309" y="-172" on="1"/>
        <pt x="299" y="-172" on="0"/>
        <pt x="300" y="-160" on="1"/>
        <pt x="309" y="-104" on="1"/>
        <pt x="311" y="-92" on="0"/>
        <pt x="322" y="-92" on="1"/>
        <pt x="331" y="-92" on="1"/>
        <pt x="342" y="-92" on="0"/>
        <pt x="340" y="-104" on="1"/>
        <pt x="324" y="-205" on="1"/>
        <pt x="321" y="-221" on="0"/>
        <pt x="306" y="-234" on="0"/>
        <pt x="299" y="-234" on="0"/>
        <pt x="291" y="-233" on="1"/>
        <pt x="292" y="-227" on="1"/>
        <pt x="306" y="-227" on="0"/>
        <pt x="308" y="-214" on="1"/>
        <pt x="315" y="-172" on="1"/>
      </contour>
      <contour>
        <pt x="182" y="656" on="1"/>
        <pt x="187" y="691" on="0"/>
        <pt x="240" y="737" on="0"/>
        <pt x="282" y="737" on="1"/>
        <pt x="295" y="737" on="0"/>
        <pt x="341" y="709" on="0"/>
        <pt x="347" y="677" on="1"/>
        <pt x="465" y="59" on="1"/>
        <pt x="473" y="16" on="0"/>
        <pt x="513" y="16" on="1"/>
        <pt x="550" y="28" on="1"/>
        <pt x="577" y="46" on="0"/>
        <pt x="583" y="77" on="1"/>
        <pt x="687" y="732" on="1"/>
        <pt x="711" y="732" on="1"/>
        <pt x="608" y="75" on="1"/>
        <pt x="601" y="30" on="0"/>
        <pt x="564" y="6" on="1"/>
        <pt x="539" y="-9" on="0"/>
        <pt x="520" y="-9" on="1"/>
        <pt x="453" y="-9" on="0"/>
        <pt x="441" y="52" on="1"/>
        <pt x="322" y="672" on="1"/>
        <pt x="316" y="702" on="0"/>
        <pt x="290" y="711" on="1"/>
        <pt x="282" y="714" on="0"/>
        <pt x="256" y="714" on="0"/>
        <pt x="213" y="686" on="0"/>
        <pt x="207" y="650" on="1"/>
        <pt x="104" y="0" on="1"/>
        <pt x="80" y="0" on="1"/>
      </contour>
    </TTGlyph>
    <TTGlyph name="Ntilde" xMin="80" yMin="0" xMax="685" yMax="886">
      <contour>
        <pt x="401" y="886" on="1"/>
        <pt x="418" y="886" on="0"/>
        <pt x="463" y="850" on="0"/>
        <pt x="505" y="813" on="0"/>
        <pt x="524" y="813" on="0"/>
        <pt x="537" y="815" on="0"/>
        <pt x="551" y="820" on="0"/>
        <pt x="563" y="825" on="0"/>
        <pt x="577" y="833" on="0"/>
        <pt x="587" y="839" on="0"/>
        <pt x="602" y="849" on="0"/>
        <pt x="609" y="854" on="0"/>
        <pt x="623" y="865" on="0"/>
        <pt x="625" y="866" on="1"/>
        <pt x="630" y="859" on="1"/>
        <pt x="572" y="810" on="0"/>
        <pt x="530" y="797" on="0"/>
        <pt x="501" y="797" on="0"/>
        <pt x="467" y="820" on="0"/>
        <pt x="454" y="834" on="1"/>
        <pt x="419" y="870" on="0"/>
        <pt x="400" y="870" on="1"/>
        <pt x="366" y="870" on="0"/>
        <pt x="307" y="831" on="1"/>
        <pt x="295" y="823" on="0"/>
        <pt x="291" y="820" on="1"/>
        <pt x="287" y="828" on="1"/>
        <pt x="362" y="886" on="0"/>
      </contour>
      <contour>
        <pt x="80" y="0" on="1"/>
        <pt x="196" y="732" on="1"/>
        <pt x="221" y="732" on="1"/>
        <pt x="551" y="43" on="1"/>
        <pt x="661" y="732" on="1"/>
        <pt x="685" y="732" on="1"/>
        <pt x="569" y="0" on="1"/>
        <pt x="545" y="0" on="1"/>
        <pt x="214" y="690" on="1"/>
        <pt x="104" y="0" on="1"/>
      </contour>
    </TTGlyph>
    <TTGlyph name="Ntilde.salt" xMin="80" yMin="-9" xMax="711" yMax="896">
      <contour>
        <pt x="398" y="896" on="1"/>
        <pt x="418" y="896" on="0"/>
        <pt x="499" y="823" on="0"/>
        <pt x="514" y="823" on="1"/>
        <pt x="548" y="823" on="0"/>
        <pt x="611" y="868" on="1"/>
        <pt x="620" y="875" on="0"/>
        <pt x="621" y="876" on="1"/>
        <pt x="626" y="869" on="1"/>
        <pt x="600" y="847" on="0"/>
        <pt x="586" y="837" on="1"/>
        <pt x="546" y="807" on="0"/>
        <pt x="511" y="807" on="1"/>
        <pt x="489" y="807" on="0"/>
        <pt x="411" y="880" on="0"/>
        <pt x="388" y="880" on="0"/>
        <pt x="373" y="878" on="0"/>
        <pt x="356" y="871" on="0"/>
        <pt x="344" y="866" on="0"/>
        <pt x="325" y="854" on="0"/>
        <pt x="320" y="852" on="1"/>
        <pt x="307" y="845" on="0"/>
        <pt x="287" y="830" on="1"/>
        <pt x="283" y="838" on="1"/>
        <pt x="358" y="896" on="0"/>
      </contour>
      <contour>
        <pt x="182" y="656" on="1"/>
        <pt x="187" y="691" on="0"/>
        <pt x="240" y="737" on="0"/>
        <pt x="282" y="737" on="1"/>
        <pt x="295" y="737" on="0"/>
        <pt x="341" y="709" on="0"/>
        <pt x="347" y="677" on="1"/>
        <pt x="465" y="59" on="1"/>
        <pt x="473" y="16" on="0"/>
        <pt x="513" y="16" on="1"/>
        <pt x="550" y="28" on="1"/>
        <pt x="577" y="46" on="0"/>
        <pt x="583" y="77" on="1"/>
        <pt x="687" y="732" on="1"/>
        <pt x="711" y="732" on="1"/>
        <pt x="608" y="75" on="1"/>
        <pt x="601" y="30" on="0"/>
        <pt x="564" y="6" on="1"/>
        <pt x="539" y="-9" on="0"/>
        <pt x="520" y="-9" on="1"/>
        <pt x="453" y="-9" on="0"/>
        <pt x="441" y="52" on="1"/>
        <pt x="322" y="672" on="1"/>
        <pt x="316" y="702" on="0"/>
        <pt x="290" y="711" on="1"/>
        <pt x="282" y="714" on="0"/>
        <pt x="256" y="714" on="0"/>
        <pt x="213" y="686" on="0"/>
        <pt x="207" y="650" on="1"/>
        <pt x="104" y="0" on="1"/>
        <pt x="80" y="0" on="1"/>
      </contour>
    </TTGlyph>
    <TTGlyph name="O" xMin="102" yMin="-4" xMax="670" yMax="737">
      <contour>
        <pt x="314" y="726" on="0"/>
        <pt x="388" y="737" on="0"/>
        <pt x="495" y="737" on="0"/>
        <pt x="559" y="728" on="0"/>
        <pt x="620" y="700" on="0"/>
        <pt x="636" y="674" on="1"/>
        <pt x="670" y="619" on="0"/>
        <pt x="670" y="526" on="1"/>
        <pt x="670" y="459" on="0"/>
        <pt x="639" y="258" on="0"/>
        <pt x="595" y="127" on="0"/>
        <pt x="543" y="50" on="0"/>
        <pt x="464" y="8" on="0"/>
        <pt x="386" y="-4" on="0"/>
        <pt x="266" y="-4" on="0"/>
        <pt x="193" y="9" on="0"/>
        <pt x="128" y="53" on="0"/>
        <pt x="102" y="136" on="0"/>
        <pt x="102" y="272" on="0"/>
        <pt x="134" y="469" on="0"/>
        <pt x="181" y="607" on="0"/>
        <pt x="233" y="685" on="0"/>
      </contour>
      <contour>
        <pt x="176" y="522" on="0"/>
        <pt x="152" y="423" on="0"/>
        <pt x="128" y="271" on="0"/>
        <pt x="127" y="206" on="0"/>
        <pt x="127" y="148" on="0"/>
        <pt x="147" y="74" on="0"/>
        <pt x="203" y="34" on="0"/>
        <pt x="274" y="20" on="0"/>
        <pt x="387" y="20" on="0"/>
        <pt x="462" y="34" on="0"/>
        <pt x="531" y="75" on="0"/>
        <pt x="554" y="113" on="1"/>
        <pt x="603" y="192" on="0"/>
        <pt x="630" y="361" on="1"/>
        <pt x="645" y="454" on="0"/>
        <pt x="645" y="585" on="0"/>
        <pt x="621" y="663" on="0"/>
        <pt x="561" y="702" on="0"/>
        <pt x="496" y="713" on="0"/>
        <pt x="409" y="713" on="0"/>
        <pt x="367" y="710" on="0"/>
        <pt x="314" y="701" on="0"/>
        <pt x="278" y="680" on="0"/>
        <pt x="236" y="647" on="0"/>
        <pt x="206" y="594" on="0"/>
      </contour>
    </TTGlyph>
    <TTGlyph name="OE" xMin="101" yMin="-4" xMax="1080" yMax="737">
      <contour>
        <pt x="446" y="737" on="1"/>
        <pt x="548" y="737" on="0"/>
        <pt x="652" y="678" on="0"/>
        <pt x="665" y="588" on="1"/>
        <pt x="672" y="664" on="0"/>
        <pt x="751" y="732" on="0"/>
        <pt x="808" y="732" on="1"/>
        <pt x="812" y="732" on="0"/>
        <pt x="815" y="732" on="1"/>
        <pt x="1080" y="722" on="1"/>
        <pt x="1078" y="708" on="1"/>
        <pt x="811" y="708" on="1"/>
        <pt x="709" y="708" on="0"/>
        <pt x="692" y="602" on="1"/>
        <pt x="656" y="375" on="1"/>
        <pt x="984" y="370" on="1"/>
        <pt x="982" y="356" on="1"/>
        <pt x="652" y="351" on="1"/>
        <pt x="616" y="123" on="1"/>
        <pt x="613" y="106" on="0"/>
        <pt x="613" y="93" on="1"/>
        <pt x="613" y="56" on="0"/>
        <pt x="660" y="21" on="0"/>
        <pt x="712" y="21" on="1"/>
        <pt x="969" y="21" on="1"/>
        <pt x="967" y="7" on="1"/>
        <pt x="708" y="-3" on="1"/>
        <pt x="703" y="-3" on="0"/>
        <pt x="698" y="-3" on="1"/>
        <pt x="644" y="-3" on="0"/>
        <pt x="588" y="47" on="0"/>
        <pt x="588" y="91" on="1"/>
        <pt x="588" y="110" on="0"/>
        <pt x="593" y="133" on="1"/>
        <pt x="553" y="49" on="0"/>
        <pt x="431" y="-4" on="0"/>
        <pt x="325" y="-4" on="1"/>
        <pt x="265" y="-4" on="0"/>
        <pt x="192" y="9" on="0"/>
        <pt x="127" y="53" on="0"/>
        <pt x="101" y="136" on="0"/>
        <pt x="101" y="272" on="0"/>
        <pt x="133" y="469" on="0"/>
        <pt x="180" y="607" on="0"/>
        <pt x="232" y="685" on="0"/>
        <pt x="313" y="726" on="0"/>
        <pt x="387" y="737" on="0"/>
      </contour>
      <contour>
        <pt x="175" y="522" on="0"/>
        <pt x="151" y="423" on="0"/>
        <pt x="127" y="271" on="0"/>
        <pt x="126" y="206" on="0"/>
        <pt x="126" y="148" on="0"/>
        <pt x="146" y="74" on="0"/>
        <pt x="202" y="34" on="0"/>
        <pt x="273" y="20" on="0"/>
        <pt x="386" y="20" on="0"/>
        <pt x="461" y="34" on="0"/>
        <pt x="530" y="75" on="0"/>
        <pt x="554" y="113" on="1"/>
        <pt x="602" y="192" on="0"/>
        <pt x="629" y="361" on="1"/>
        <pt x="644" y="454" on="0"/>
        <pt x="644" y="585" on="0"/>
        <pt x="620" y="663" on="0"/>
        <pt x="560" y="702" on="0"/>
        <pt x="495" y="713" on="0"/>
        <pt x="408" y="713" on="0"/>
        <pt x="366" y="710" on="0"/>
        <pt x="313" y="701" on="0"/>
        <pt x="277" y="680" on="0"/>
        <pt x="235" y="647" on="0"/>
        <pt x="205" y="594" on="0"/>
      </contour>
    </TTGlyph>
    <TTGlyph name="Oacute" xMin="102" yMin="-4" xMax="670" yMax="930">
      <contour>
        <pt x="450" y="797" on="1"/>
        <pt x="592" y="930" on="1"/>
        <pt x="618" y="930" on="1"/>
        <pt x="464" y="797" on="1"/>
      </contour>
      <contour>
        <pt x="314" y="726" on="0"/>
        <pt x="388" y="737" on="0"/>
        <pt x="495" y="737" on="0"/>
        <pt x="559" y="728" on="0"/>
        <pt x="620" y="700" on="0"/>
        <pt x="636" y="674" on="1"/>
        <pt x="670" y="619" on="0"/>
        <pt x="670" y="526" on="1"/>
        <pt x="670" y="459" on="0"/>
        <pt x="639" y="258" on="0"/>
        <pt x="595" y="127" on="0"/>
        <pt x="543" y="50" on="0"/>
        <pt x="464" y="8" on="0"/>
        <pt x="386" y="-4" on="0"/>
        <pt x="266" y="-4" on="0"/>
        <pt x="193" y="9" on="0"/>
        <pt x="128" y="53" on="0"/>
        <pt x="102" y="136" on="0"/>
        <pt x="102" y="272" on="0"/>
        <pt x="134" y="469" on="0"/>
        <pt x="181" y="607" on="0"/>
        <pt x="233" y="685" on="0"/>
      </contour>
      <contour>
        <pt x="176" y="522" on="0"/>
        <pt x="152" y="423" on="0"/>
        <pt x="128" y="271" on="0"/>
        <pt x="127" y="206" on="0"/>
        <pt x="127" y="148" on="0"/>
        <pt x="147" y="74" on="0"/>
        <pt x="203" y="34" on="0"/>
        <pt x="274" y="20" on="0"/>
        <pt x="387" y="20" on="0"/>
        <pt x="462" y="34" on="0"/>
        <pt x="531" y="75" on="0"/>
        <pt x="554" y="113" on="1"/>
        <pt x="603" y="192" on="0"/>
        <pt x="630" y="361" on="1"/>
        <pt x="645" y="454" on="0"/>
        <pt x="645" y="585" on="0"/>
        <pt x="621" y="663" on="0"/>
        <pt x="561" y="702" on="0"/>
        <pt x="496" y="713" on="0"/>
        <pt x="409" y="713" on="0"/>
        <pt x="367" y="710" on="0"/>
        <pt x="314" y="701" on="0"/>
        <pt x="278" y="680" on="0"/>
        <pt x="236" y="647" on="0"/>
        <pt x="206" y="594" on="0"/>
      </contour>
    </TTGlyph>
    <TTGlyph name="Ocircumflex" xMin="102" yMin="-4" xMax="670" yMax="927">
      <contour>
        <pt x="321" y="797" on="1"/>
        <pt x="474" y="927" on="1"/>
        <pt x="495" y="927" on="1"/>
        <pt x="593" y="797" on="1"/>
        <pt x="576" y="797" on="1"/>
        <pt x="482" y="912" on="1"/>
        <pt x="339" y="797" on="1"/>
      </contour>
      <contour>
        <pt x="314" y="726" on="0"/>
        <pt x="388" y="737" on="0"/>
        <pt x="495" y="737" on="0"/>
        <pt x="559" y="728" on="0"/>
        <pt x="620" y="700" on="0"/>
        <pt x="636" y="674" on="1"/>
        <pt x="670" y="619" on="0"/>
        <pt x="670" y="526" on="1"/>
        <pt x="670" y="459" on="0"/>
        <pt x="639" y="258" on="0"/>
        <pt x="595" y="127" on="0"/>
        <pt x="543" y="50" on="0"/>
        <pt x="464" y="8" on="0"/>
        <pt x="386" y="-4" on="0"/>
        <pt x="266" y="-4" on="0"/>
        <pt x="193" y="9" on="0"/>
        <pt x="128" y="53" on="0"/>
        <pt x="102" y="136" on="0"/>
        <pt x="102" y="272" on="0"/>
        <pt x="134" y="469" on="0"/>
        <pt x="181" y="607" on="0"/>
        <pt x="233" y="685" on="0"/>
      </contour>
      <contour>
        <pt x="176" y="522" on="0"/>
        <pt x="152" y="423" on="0"/>
        <pt x="128" y="271" on="0"/>
        <pt x="127" y="206" on="0"/>
        <pt x="127" y="148" on="0"/>
        <pt x="147" y="74" on="0"/>
        <pt x="203" y="34" on="0"/>
        <pt x="274" y="20" on="0"/>
        <pt x="387" y="20" on="0"/>
        <pt x="462" y="34" on="0"/>
        <pt x="531" y="75" on="0"/>
        <pt x="554" y="113" on="1"/>
        <pt x="603" y="192" on="0"/>
        <pt x="630" y="361" on="1"/>
        <pt x="645" y="454" on="0"/>
        <pt x="645" y="585" on="0"/>
        <pt x="621" y="663" on="0"/>
        <pt x="561" y="702" on="0"/>
        <pt x="496" y="713" on="0"/>
        <pt x="409" y="713" on="0"/>
        <pt x="367" y="710" on="0"/>
        <pt x="314" y="701" on="0"/>
        <pt x="278" y="680" on="0"/>
        <pt x="236" y="647" on="0"/>
        <pt x="206" y="594" on="0"/>
      </contour>
    </TTGlyph>
    <TTGlyph name="Odieresis" xMin="102" yMin="-4" xMax="670" yMax="832">
      <contour>
        <pt x="336" y="832" on="1"/>
        <pt x="343" y="832" on="0"/>
        <pt x="351" y="822" on="0"/>
        <pt x="350" y="815" on="1"/>
        <pt x="346" y="797" on="0"/>
        <pt x="330" y="797" on="1"/>
        <pt x="322" y="797" on="0"/>
        <pt x="313" y="808" on="0"/>
        <pt x="315" y="815" on="1"/>
        <pt x="318" y="832" on="0"/>
      </contour>
      <contour>
        <pt x="591" y="832" on="1"/>
        <pt x="598" y="832" on="0"/>
        <pt x="606" y="822" on="0"/>
        <pt x="605" y="815" on="1"/>
        <pt x="601" y="797" on="0"/>
        <pt x="585" y="797" on="1"/>
        <pt x="577" y="797" on="0"/>
        <pt x="568" y="808" on="0"/>
        <pt x="570" y="815" on="1"/>
        <pt x="573" y="832" on="0"/>
      </contour>
      <contour>
        <pt x="314" y="726" on="0"/>
        <pt x="388" y="737" on="0"/>
        <pt x="495" y="737" on="0"/>
        <pt x="559" y="728" on="0"/>
        <pt x="620" y="700" on="0"/>
        <pt x="636" y="674" on="1"/>
        <pt x="670" y="619" on="0"/>
        <pt x="670" y="526" on="1"/>
        <pt x="670" y="459" on="0"/>
        <pt x="639" y="258" on="0"/>
        <pt x="595" y="127" on="0"/>
        <pt x="543" y="50" on="0"/>
        <pt x="464" y="8" on="0"/>
        <pt x="386" y="-4" on="0"/>
        <pt x="266" y="-4" on="0"/>
        <pt x="193" y="9" on="0"/>
        <pt x="128" y="53" on="0"/>
        <pt x="102" y="136" on="0"/>
        <pt x="102" y="272" on="0"/>
        <pt x="134" y="469" on="0"/>
        <pt x="181" y="607" on="0"/>
        <pt x="233" y="685" on="0"/>
      </contour>
      <contour>
        <pt x="176" y="522" on="0"/>
        <pt x="152" y="423" on="0"/>
        <pt x="128" y="271" on="0"/>
        <pt x="127" y="206" on="0"/>
        <pt x="127" y="148" on="0"/>
        <pt x="147" y="74" on="0"/>
        <pt x="203" y="34" on="0"/>
        <pt x="274" y="20" on="0"/>
        <pt x="387" y="20" on="0"/>
        <pt x="462" y="34" on="0"/>
        <pt x="531" y="75" on="0"/>
        <pt x="554" y="113" on="1"/>
        <pt x="603" y="192" on="0"/>
        <pt x="630" y="361" on="1"/>
        <pt x="645" y="454" on="0"/>
        <pt x="645" y="585" on="0"/>
        <pt x="621" y="663" on="0"/>
        <pt x="561" y="702" on="0"/>
        <pt x="496" y="713" on="0"/>
        <pt x="409" y="713" on="0"/>
        <pt x="367" y="710" on="0"/>
        <pt x="314" y="701" on="0"/>
        <pt x="278" y="680" on="0"/>
        <pt x="236" y="647" on="0"/>
        <pt x="206" y="594" on="0"/>
      </contour>
    </TTGlyph>
    <TTGlyph name="Ograve" xMin="102" yMin="-4" xMax="670" yMax="930">
      <contour>
        <pt x="338" y="930" on="1"/>
        <pt x="364" y="930" on="1"/>
        <pt x="464" y="797" on="1"/>
        <pt x="450" y="797" on="1"/>
      </contour>
      <contour>
        <pt x="314" y="726" on="0"/>
        <pt x="388" y="737" on="0"/>
        <pt x="495" y="737" on="0"/>
        <pt x="559" y="728" on="0"/>
        <pt x="620" y="700" on="0"/>
        <pt x="636" y="674" on="1"/>
        <pt x="670" y="619" on="0"/>
        <pt x="670" y="526" on="1"/>
        <pt x="670" y="459" on="0"/>
        <pt x="639" y="258" on="0"/>
        <pt x="595" y="127" on="0"/>
        <pt x="543" y="50" on="0"/>
        <pt x="464" y="8" on="0"/>
        <pt x="386" y="-4" on="0"/>
        <pt x="266" y="-4" on="0"/>
        <pt x="193" y="9" on="0"/>
        <pt x="128" y="53" on="0"/>
        <pt x="102" y="136" on="0"/>
        <pt x="102" y="272" on="0"/>
        <pt x="134" y="469" on="0"/>
        <pt x="181" y="607" on="0"/>
        <pt x="233" y="685" on="0"/>
      </contour>
      <contour>
        <pt x="176" y="522" on="0"/>
        <pt x="152" y="423" on="0"/>
        <pt x="128" y="271" on="0"/>
        <pt x="127" y="206" on="0"/>
        <pt x="127" y="148" on="0"/>
        <pt x="147" y="74" on="0"/>
        <pt x="203" y="34" on="0"/>
        <pt x="274" y="20" on="0"/>
        <pt x="387" y="20" on="0"/>
        <pt x="462" y="34" on="0"/>
        <pt x="531" y="75" on="0"/>
        <pt x="554" y="113" on="1"/>
        <pt x="603" y="192" on="0"/>
        <pt x="630" y="361" on="1"/>
        <pt x="645" y="454" on="0"/>
        <pt x="645" y="585" on="0"/>
        <pt x="621" y="663" on="0"/>
        <pt x="561" y="702" on="0"/>
        <pt x="496" y="713" on="0"/>
        <pt x="409" y="713" on="0"/>
        <pt x="367" y="710" on="0"/>
        <pt x="314" y="701" on="0"/>
        <pt x="278" y="680" on="0"/>
        <pt x="236" y="647" on="0"/>
        <pt x="206" y="594" on="0"/>
      </contour>
    </TTGlyph>
    <TTGlyph name="Ohungarumlaut" xMin="102" yMin="-4" xMax="688" yMax="930">
      <contour>
        <pt x="380" y="797" on="1"/>
        <pt x="522" y="930" on="1"/>
        <pt x="548" y="930" on="1"/>
        <pt x="394" y="797" on="1"/>
      </contour>
      <contour>
        <pt x="519" y="797" on="1"/>
        <pt x="661" y="930" on="1"/>
        <pt x="687" y="930" on="1"/>
        <pt x="533" y="797" on="1"/>
      </contour>
      <contour>
        <pt x="314" y="726" on="0"/>
        <pt x="388" y="737" on="0"/>
        <pt x="495" y="737" on="0"/>
        <pt x="559" y="728" on="0"/>
        <pt x="620" y="700" on="0"/>
        <pt x="636" y="674" on="1"/>
        <pt x="670" y="619" on="0"/>
        <pt x="670" y="526" on="1"/>
        <pt x="670" y="459" on="0"/>
        <pt x="639" y="258" on="0"/>
        <pt x="595" y="127" on="0"/>
        <pt x="543" y="50" on="0"/>
        <pt x="464" y="8" on="0"/>
        <pt x="386" y="-4" on="0"/>
        <pt x="266" y="-4" on="0"/>
        <pt x="193" y="9" on="0"/>
        <pt x="128" y="53" on="0"/>
        <pt x="102" y="136" on="0"/>
        <pt x="102" y="272" on="0"/>
        <pt x="134" y="469" on="0"/>
        <pt x="181" y="607" on="0"/>
        <pt x="233" y="685" on="0"/>
      </contour>
      <contour>
        <pt x="176" y="522" on="0"/>
        <pt x="152" y="423" on="0"/>
        <pt x="128" y="271" on="0"/>
        <pt x="127" y="206" on="0"/>
        <pt x="127" y="148" on="0"/>
        <pt x="147" y="74" on="0"/>
        <pt x="203" y="34" on="0"/>
        <pt x="274" y="20" on="0"/>
        <pt x="387" y="20" on="0"/>
        <pt x="462" y="34" on="0"/>
        <pt x="531" y="75" on="0"/>
        <pt x="554" y="113" on="1"/>
        <pt x="603" y="192" on="0"/>
        <pt x="630" y="361" on="1"/>
        <pt x="645" y="454" on="0"/>
        <pt x="645" y="585" on="0"/>
        <pt x="621" y="663" on="0"/>
        <pt x="561" y="702" on="0"/>
        <pt x="496" y="713" on="0"/>
        <pt x="409" y="713" on="0"/>
        <pt x="367" y="710" on="0"/>
        <pt x="314" y="701" on="0"/>
        <pt x="278" y="680" on="0"/>
        <pt x="236" y="647" on="0"/>
        <pt x="206" y="594" on="0"/>
      </contour>
    </TTGlyph>
    <TTGlyph name="Omacron" xMin="102" yMin="-4" xMax="670" yMax="812">
      <contour>
        <pt x="331" y="797" on="1"/>
        <pt x="333" y="812" on="1"/>
        <pt x="585" y="812" on="1"/>
        <pt x="583" y="797" on="1"/>
      </contour>
      <contour>
        <pt x="314" y="726" on="0"/>
        <pt x="388" y="737" on="0"/>
        <pt x="495" y="737" on="0"/>
        <pt x="559" y="728" on="0"/>
        <pt x="620" y="700" on="0"/>
        <pt x="636" y="674" on="1"/>
        <pt x="670" y="619" on="0"/>
        <pt x="670" y="526" on="1"/>
        <pt x="670" y="459" on="0"/>
        <pt x="639" y="258" on="0"/>
        <pt x="595" y="127" on="0"/>
        <pt x="543" y="50" on="0"/>
        <pt x="464" y="8" on="0"/>
        <pt x="386" y="-4" on="0"/>
        <pt x="266" y="-4" on="0"/>
        <pt x="193" y="9" on="0"/>
        <pt x="128" y="53" on="0"/>
        <pt x="102" y="136" on="0"/>
        <pt x="102" y="272" on="0"/>
        <pt x="134" y="469" on="0"/>
        <pt x="181" y="607" on="0"/>
        <pt x="233" y="685" on="0"/>
      </contour>
      <contour>
        <pt x="176" y="522" on="0"/>
        <pt x="152" y="423" on="0"/>
        <pt x="128" y="271" on="0"/>
        <pt x="127" y="206" on="0"/>
        <pt x="127" y="148" on="0"/>
        <pt x="147" y="74" on="0"/>
        <pt x="203" y="34" on="0"/>
        <pt x="274" y="20" on="0"/>
        <pt x="387" y="20" on="0"/>
        <pt x="462" y="34" on="0"/>
        <pt x="531" y="75" on="0"/>
        <pt x="554" y="113" on="1"/>
        <pt x="603" y="192" on="0"/>
        <pt x="630" y="361" on="1"/>
        <pt x="645" y="454" on="0"/>
        <pt x="645" y="585" on="0"/>
        <pt x="621" y="663" on="0"/>
        <pt x="561" y="702" on="0"/>
        <pt x="496" y="713" on="0"/>
        <pt x="409" y="713" on="0"/>
        <pt x="367" y="710" on="0"/>
        <pt x="314" y="701" on="0"/>
        <pt x="278" y="680" on="0"/>
        <pt x="236" y="647" on="0"/>
        <pt x="206" y="594" on="0"/>
      </contour>
    </TTGlyph>
    <TTGlyph name="Omega" xMin="71" yMin="0" xMax="749" yMax="739">
      <contour>
        <pt x="119" y="271" on="0"/>
        <pt x="119" y="352" on="0"/>
        <pt x="127" y="400" on="1"/>
        <pt x="182" y="739" on="0"/>
        <pt x="489" y="739" on="1"/>
        <pt x="749" y="739" on="0"/>
        <pt x="749" y="483" on="1"/>
        <pt x="749" y="435" on="0"/>
        <pt x="740" y="379" on="1"/>
        <pt x="724" y="283" on="0"/>
        <pt x="601" y="88" on="0"/>
        <pt x="498" y="23" on="1"/>
        <pt x="686" y="12" on="1"/>
        <pt x="684" y="0" on="1"/>
        <pt x="456" y="0" on="1"/>
        <pt x="460" y="24" on="1"/>
        <pt x="572" y="91" on="0"/>
        <pt x="699" y="280" on="0"/>
        <pt x="716" y="385" on="1"/>
        <pt x="725" y="449" on="0"/>
        <pt x="725" y="538" on="0"/>
        <pt x="699" y="618" on="0"/>
        <pt x="674" y="649" on="1"/>
        <pt x="621" y="715" on="0"/>
        <pt x="488" y="715" on="1"/>
        <pt x="323" y="715" on="0"/>
        <pt x="244" y="616" on="1"/>
        <pt x="173" y="530" on="0"/>
        <pt x="149" y="383" on="1"/>
        <pt x="143" y="344" on="0"/>
        <pt x="143" y="294" on="1"/>
        <pt x="143" y="159" on="0"/>
        <pt x="295" y="24" on="1"/>
        <pt x="291" y="0" on="1"/>
        <pt x="71" y="0" on="1"/>
        <pt x="73" y="12" on="1"/>
        <pt x="264" y="24" on="1"/>
        <pt x="152" y="117" on="0"/>
        <pt x="130" y="220" on="1"/>
      </contour>
    </TTGlyph>
    <TTGlyph name="Oslash" xMin="85" yMin="-4" xMax="690" yMax="737">
      <contour>
        <pt x="132" y="59" on="1"/>
        <pt x="103" y="103" on="0"/>
        <pt x="103" y="269" on="0"/>
        <pt x="129" y="437" on="0"/>
        <pt x="159" y="548" on="0"/>
        <pt x="192" y="628" on="0"/>
        <pt x="237" y="682" on="0"/>
        <pt x="281" y="714" on="0"/>
        <pt x="312" y="723" on="1"/>
        <pt x="361" y="737" on="0"/>
        <pt x="514" y="737" on="0"/>
        <pt x="606" y="715" on="0"/>
        <pt x="632" y="682" on="1"/>
        <pt x="672" y="732" on="1"/>
        <pt x="690" y="732" on="1"/>
        <pt x="640" y="670" on="1"/>
        <pt x="670" y="622" on="0"/>
        <pt x="670" y="452" on="0"/>
        <pt x="639" y="258" on="0"/>
        <pt x="595" y="127" on="0"/>
        <pt x="543" y="50" on="0"/>
        <pt x="464" y="8" on="0"/>
        <pt x="386" y="-4" on="0"/>
        <pt x="253" y="-4" on="0"/>
        <pt x="167" y="16" on="0"/>
        <pt x="141" y="47" on="1"/>
        <pt x="103" y="0" on="1"/>
        <pt x="85" y="0" on="1"/>
      </contour>
      <contour>
        <pt x="176" y="522" on="0"/>
        <pt x="152" y="423" on="0"/>
        <pt x="127" y="267" on="0"/>
        <pt x="127" y="119" on="0"/>
        <pt x="150" y="80" on="1"/>
        <pt x="615" y="662" on="1"/>
        <pt x="592" y="694" on="0"/>
        <pt x="511" y="713" on="0"/>
        <pt x="409" y="713" on="0"/>
        <pt x="367" y="710" on="0"/>
        <pt x="314" y="701" on="0"/>
        <pt x="278" y="680" on="0"/>
        <pt x="236" y="647" on="0"/>
        <pt x="206" y="594" on="0"/>
      </contour>
      <contour>
        <pt x="180" y="40" on="0"/>
        <pt x="265" y="20" on="0"/>
        <pt x="404" y="20" on="0"/>
        <pt x="491" y="43" on="0"/>
        <pt x="566" y="115" on="0"/>
        <pt x="612" y="250" on="0"/>
        <pt x="645" y="457" on="0"/>
        <pt x="645" y="607" on="0"/>
        <pt x="623" y="649" on="1"/>
        <pt x="158" y="68" on="1"/>
      </contour>
    </TTGlyph>
    <TTGlyph name="Otilde" xMin="102" yMin="-4" xMax="670" yMax="886">
      <contour>
        <pt x="394" y="886" on="0"/>
        <pt x="424" y="886" on="0"/>
        <pt x="469" y="850" on="0"/>
        <pt x="510" y="813" on="0"/>
        <pt x="529" y="813" on="0"/>
        <pt x="542" y="815" on="0"/>
        <pt x="553" y="818" on="0"/>
        <pt x="565" y="824" on="0"/>
        <pt x="576" y="829" on="0"/>
        <pt x="588" y="836" on="0"/>
        <pt x="597" y="842" on="0"/>
        <pt x="610" y="851" on="0"/>
        <pt x="616" y="856" on="0"/>
        <pt x="628" y="864" on="0"/>
        <pt x="631" y="866" on="1"/>
        <pt x="636" y="859" on="1"/>
        <pt x="577" y="810" on="0"/>
        <pt x="536" y="797" on="0"/>
        <pt x="506" y="797" on="0"/>
        <pt x="473" y="820" on="0"/>
        <pt x="460" y="834" on="1"/>
        <pt x="425" y="870" on="0"/>
        <pt x="406" y="870" on="1"/>
        <pt x="372" y="870" on="0"/>
        <pt x="313" y="831" on="1"/>
        <pt x="301" y="823" on="0"/>
        <pt x="297" y="820" on="1"/>
        <pt x="293" y="828" on="1"/>
        <pt x="351" y="873" on="0"/>
      </contour>
      <contour>
        <pt x="314" y="726" on="0"/>
        <pt x="388" y="737" on="0"/>
        <pt x="495" y="737" on="0"/>
        <pt x="559" y="728" on="0"/>
        <pt x="620" y="700" on="0"/>
        <pt x="636" y="674" on="1"/>
        <pt x="670" y="619" on="0"/>
        <pt x="670" y="526" on="1"/>
        <pt x="670" y="459" on="0"/>
        <pt x="639" y="258" on="0"/>
        <pt x="595" y="127" on="0"/>
        <pt x="543" y="50" on="0"/>
        <pt x="464" y="8" on="0"/>
        <pt x="386" y="-4" on="0"/>
        <pt x="266" y="-4" on="0"/>
        <pt x="193" y="9" on="0"/>
        <pt x="128" y="53" on="0"/>
        <pt x="102" y="136" on="0"/>
        <pt x="102" y="272" on="0"/>
        <pt x="134" y="469" on="0"/>
        <pt x="181" y="607" on="0"/>
        <pt x="233" y="685" on="0"/>
      </contour>
      <contour>
        <pt x="176" y="522" on="0"/>
        <pt x="152" y="423" on="0"/>
        <pt x="128" y="271" on="0"/>
        <pt x="127" y="206" on="0"/>
        <pt x="127" y="148" on="0"/>
        <pt x="147" y="74" on="0"/>
        <pt x="203" y="34" on="0"/>
        <pt x="274" y="20" on="0"/>
        <pt x="387" y="20" on="0"/>
        <pt x="462" y="34" on="0"/>
        <pt x="531" y="75" on="0"/>
        <pt x="554" y="113" on="1"/>
        <pt x="603" y="192" on="0"/>
        <pt x="630" y="361" on="1"/>
        <pt x="645" y="454" on="0"/>
        <pt x="645" y="585" on="0"/>
        <pt x="621" y="663" on="0"/>
        <pt x="561" y="702" on="0"/>
        <pt x="496" y="713" on="0"/>
        <pt x="409" y="713" on="0"/>
        <pt x="367" y="710" on="0"/>
        <pt x="314" y="701" on="0"/>
        <pt x="278" y="680" on="0"/>
        <pt x="236" y="647" on="0"/>
        <pt x="206" y="594" on="0"/>
      </contour>
    </TTGlyph>
    <TTGlyph name="P" xMin="75" yMin="0" xMax="616" yMax="732">
      <contour>
        <pt x="467" y="732" on="1"/>
        <pt x="549" y="732" on="0"/>
        <pt x="580" y="700" on="1"/>
        <pt x="616" y="661" on="0"/>
        <pt x="616" y="612" on="1"/>
        <pt x="616" y="583" on="0"/>
        <pt x="611" y="532" on="1"/>
        <pt x="594" y="430" on="0"/>
        <pt x="558" y="387" on="1"/>
        <pt x="540" y="365" on="0"/>
        <pt x="506" y="337" on="0"/>
        <pt x="482" y="332" on="1"/>
        <pt x="444" y="323" on="0"/>
        <pt x="368" y="323" on="0"/>
        <pt x="155" y="331" on="0"/>
        <pt x="152" y="333" on="1"/>
        <pt x="99" y="0" on="1"/>
        <pt x="75" y="0" on="1"/>
        <pt x="191" y="732" on="1"/>
      </contour>
      <contour>
        <pt x="406" y="347" on="1"/>
        <pt x="472" y="347" on="0"/>
        <pt x="516" y="380" on="1"/>
        <pt x="570" y="420" on="0"/>
        <pt x="586" y="533" on="1"/>
        <pt x="591" y="577" on="0"/>
        <pt x="591" y="628" on="0"/>
        <pt x="572" y="666" on="0"/>
        <pt x="552" y="690" on="0"/>
        <pt x="534" y="696" on="1"/>
        <pt x="505" y="707" on="0"/>
        <pt x="463" y="707" on="1"/>
        <pt x="211" y="707" on="1"/>
        <pt x="154" y="347" on="1"/>
      </contour>
    </TTGlyph>
    <TTGlyph name="Q" xMin="106" yMin="-131" xMax="674" yMax="737">
      <contour>
        <pt x="318" y="726" on="0"/>
        <pt x="392" y="737" on="0"/>
        <pt x="499" y="737" on="0"/>
        <pt x="563" y="728" on="0"/>
        <pt x="624" y="700" on="0"/>
        <pt x="640" y="674" on="1"/>
        <pt x="674" y="619" on="0"/>
        <pt x="674" y="526" on="1"/>
        <pt x="674" y="459" on="0"/>
        <pt x="643" y="258" on="0"/>
        <pt x="599" y="127" on="0"/>
        <pt x="547" y="50" on="0"/>
        <pt x="468" y="8" on="0"/>
        <pt x="390" y="-4" on="0"/>
        <pt x="270" y="-4" on="0"/>
        <pt x="197" y="9" on="0"/>
        <pt x="132" y="53" on="0"/>
        <pt x="106" y="136" on="0"/>
        <pt x="106" y="272" on="0"/>
        <pt x="138" y="469" on="0"/>
        <pt x="185" y="607" on="0"/>
        <pt x="237" y="685" on="0"/>
      </contour>
      <contour>
        <pt x="180" y="522" on="0"/>
        <pt x="156" y="423" on="0"/>
        <pt x="132" y="271" on="0"/>
        <pt x="131" y="206" on="0"/>
        <pt x="131" y="148" on="0"/>
        <pt x="151" y="74" on="0"/>
        <pt x="207" y="34" on="0"/>
        <pt x="278" y="20" on="0"/>
        <pt x="391" y="20" on="0"/>
        <pt x="466" y="34" on="0"/>
        <pt x="535" y="75" on="0"/>
        <pt x="558" y="113" on="1"/>
        <pt x="607" y="192" on="0"/>
        <pt x="634" y="361" on="1"/>
        <pt x="649" y="454" on="0"/>
        <pt x="649" y="585" on="0"/>
        <pt x="625" y="663" on="0"/>
        <pt x="565" y="702" on="0"/>
        <pt x="500" y="713" on="0"/>
        <pt x="413" y="713" on="0"/>
        <pt x="371" y="710" on="0"/>
        <pt x="318" y="701" on="0"/>
        <pt x="282" y="680" on="0"/>
        <pt x="240" y="647" on="0"/>
        <pt x="210" y="594" on="0"/>
      </contour>
      <contour>
        <pt x="499" y="-96" on="1"/>
        <pt x="495" y="-120" on="1"/>
        <pt x="459" y="-131" on="0"/>
        <pt x="421" y="-131" on="0"/>
        <pt x="417" y="-130" on="1"/>
        <pt x="379" y="-129" on="0"/>
        <pt x="321" y="-78" on="0"/>
        <pt x="319" y="-33" on="1"/>
        <pt x="333" y="-33" on="1"/>
        <pt x="341" y="-71" on="0"/>
        <pt x="395" y="-107" on="0"/>
        <pt x="457" y="-107" on="0"/>
      </contour>
    </TTGlyph>
    <TTGlyph name="R" xMin="75" yMin="0" xMax="616" yMax="732">
      <contour>
        <pt x="467" y="732" on="1"/>
        <pt x="546" y="732" on="0"/>
        <pt x="579" y="697" on="1"/>
        <pt x="616" y="658" on="0"/>
        <pt x="616" y="599" on="1"/>
        <pt x="616" y="569" on="0"/>
        <pt x="611" y="528" on="1"/>
        <pt x="589" y="393" on="0"/>
        <pt x="531" y="355" on="1"/>
        <pt x="502" y="336" on="0"/>
        <pt x="455" y="324" on="0"/>
        <pt x="420" y="323" on="1"/>
        <pt x="529" y="0" on="1"/>
        <pt x="503" y="0" on="1"/>
        <pt x="394" y="323" on="1"/>
        <pt x="159" y="327" on="0"/>
        <pt x="152" y="333" on="1"/>
        <pt x="99" y="0" on="1"/>
        <pt x="75" y="0" on="1"/>
        <pt x="191" y="732" on="1"/>
      </contour>
      <contour>
        <pt x="406" y="347" on="1"/>
        <pt x="440" y="347" on="0"/>
        <pt x="490" y="360" on="0"/>
        <pt x="516" y="378" on="1"/>
        <pt x="568" y="417" on="0"/>
        <pt x="586" y="532" on="1"/>
        <pt x="591" y="576" on="0"/>
        <pt x="591" y="627" on="0"/>
        <pt x="572" y="665" on="0"/>
        <pt x="552" y="689" on="0"/>
        <pt x="534" y="696" on="1"/>
        <pt x="502" y="707" on="0"/>
        <pt x="463" y="707" on="1"/>
        <pt x="211" y="707" on="1"/>
        <pt x="154" y="347" on="1"/>
      </contour>
    </TTGlyph>
    <TTGlyph name="Racute" xMin="75" yMin="0" xMax="616" yMax="930">
      <contour>
        <pt x="402" y="797" on="1"/>
        <pt x="544" y="930" on="1"/>
        <pt x="570" y="930" on="1"/>
        <pt x="416" y="797" on="1"/>
      </contour>
      <contour>
        <pt x="467" y="732" on="1"/>
        <pt x="546" y="732" on="0"/>
        <pt x="579" y="697" on="1"/>
        <pt x="616" y="658" on="0"/>
        <pt x="616" y="599" on="1"/>
        <pt x="616" y="569" on="0"/>
        <pt x="611" y="528" on="1"/>
        <pt x="589" y="393" on="0"/>
        <pt x="531" y="355" on="1"/>
        <pt x="502" y="336" on="0"/>
        <pt x="455" y="324" on="0"/>
        <pt x="420" y="323" on="1"/>
        <pt x="529" y="0" on="1"/>
        <pt x="503" y="0" on="1"/>
        <pt x="394" y="323" on="1"/>
        <pt x="159" y="327" on="0"/>
        <pt x="152" y="333" on="1"/>
        <pt x="99" y="0" on="1"/>
        <pt x="75" y="0" on="1"/>
        <pt x="191" y="732" on="1"/>
      </contour>
      <contour>
        <pt x="406" y="347" on="1"/>
        <pt x="440" y="347" on="0"/>
        <pt x="490" y="360" on="0"/>
        <pt x="516" y="378" on="1"/>
        <pt x="568" y="417" on="0"/>
        <pt x="586" y="532" on="1"/>
        <pt x="591" y="576" on="0"/>
        <pt x="591" y="627" on="0"/>
        <pt x="572" y="665" on="0"/>
        <pt x="552" y="689" on="0"/>
        <pt x="534" y="696" on="1"/>
        <pt x="502" y="707" on="0"/>
        <pt x="463" y="707" on="1"/>
        <pt x="211" y="707" on="1"/>
        <pt x="154" y="347" on="1"/>
      </contour>
    </TTGlyph>
    <TTGlyph name="Rcaron" xMin="75" yMin="0" xMax="616" yMax="927">
      <contour>
        <pt x="294" y="927" on="1"/>
        <pt x="311" y="927" on="1"/>
        <pt x="405" y="812" on="1"/>
        <pt x="548" y="927" on="1"/>
        <pt x="566" y="927" on="1"/>
        <pt x="413" y="797" on="1"/>
        <pt x="392" y="797" on="1"/>
      </contour>
      <contour>
        <pt x="467" y="732" on="1"/>
        <pt x="546" y="732" on="0"/>
        <pt x="579" y="697" on="1"/>
        <pt x="616" y="658" on="0"/>
        <pt x="616" y="599" on="1"/>
        <pt x="616" y="569" on="0"/>
        <pt x="611" y="528" on="1"/>
        <pt x="589" y="393" on="0"/>
        <pt x="531" y="355" on="1"/>
        <pt x="502" y="336" on="0"/>
        <pt x="455" y="324" on="0"/>
        <pt x="420" y="323" on="1"/>
        <pt x="529" y="0" on="1"/>
        <pt x="503" y="0" on="1"/>
        <pt x="394" y="323" on="1"/>
        <pt x="159" y="327" on="0"/>
        <pt x="152" y="333" on="1"/>
        <pt x="99" y="0" on="1"/>
        <pt x="75" y="0" on="1"/>
        <pt x="191" y="732" on="1"/>
      </contour>
      <contour>
        <pt x="406" y="347" on="1"/>
        <pt x="440" y="347" on="0"/>
        <pt x="490" y="360" on="0"/>
        <pt x="516" y="378" on="1"/>
        <pt x="568" y="417" on="0"/>
        <pt x="586" y="532" on="1"/>
        <pt x="591" y="576" on="0"/>
        <pt x="591" y="627" on="0"/>
        <pt x="572" y="665" on="0"/>
        <pt x="552" y="689" on="0"/>
        <pt x="534" y="696" on="1"/>
        <pt x="502" y="707" on="0"/>
        <pt x="463" y="707" on="1"/>
        <pt x="211" y="707" on="1"/>
        <pt x="154" y="347" on="1"/>
      </contour>
    </TTGlyph>
    <TTGlyph name="Rcommaaccent" xMin="75" yMin="-198" xMax="616" yMax="732">
      <contour>
        <pt x="284" y="-135" on="1"/>
        <pt x="273" y="-135" on="0"/>
        <pt x="275" y="-123" on="1"/>
        <pt x="284" y="-68" on="1"/>
        <pt x="286" y="-56" on="0"/>
        <pt x="296" y="-56" on="1"/>
        <pt x="305" y="-56" on="1"/>
        <pt x="316" y="-56" on="0"/>
        <pt x="314" y="-68" on="1"/>
        <pt x="298" y="-168" on="1"/>
        <pt x="296" y="-184" on="0"/>
        <pt x="280" y="-197" on="0"/>
        <pt x="273" y="-197" on="0"/>
        <pt x="265" y="-196" on="1"/>
        <pt x="266" y="-191" on="1"/>
        <pt x="280" y="-191" on="0"/>
        <pt x="283" y="-177" on="1"/>
        <pt x="289" y="-135" on="1"/>
      </contour>
      <contour>
        <pt x="467" y="732" on="1"/>
        <pt x="546" y="732" on="0"/>
        <pt x="579" y="697" on="1"/>
        <pt x="616" y="658" on="0"/>
        <pt x="616" y="599" on="1"/>
        <pt x="616" y="569" on="0"/>
        <pt x="611" y="528" on="1"/>
        <pt x="589" y="393" on="0"/>
        <pt x="531" y="355" on="1"/>
        <pt x="502" y="336" on="0"/>
        <pt x="455" y="324" on="0"/>
        <pt x="420" y="323" on="1"/>
        <pt x="529" y="0" on="1"/>
        <pt x="503" y="0" on="1"/>
        <pt x="394" y="323" on="1"/>
        <pt x="159" y="327" on="0"/>
        <pt x="152" y="333" on="1"/>
        <pt x="99" y="0" on="1"/>
        <pt x="75" y="0" on="1"/>
        <pt x="191" y="732" on="1"/>
      </contour>
      <contour>
        <pt x="406" y="347" on="1"/>
        <pt x="440" y="347" on="0"/>
        <pt x="490" y="360" on="0"/>
        <pt x="516" y="378" on="1"/>
        <pt x="568" y="417" on="0"/>
        <pt x="586" y="532" on="1"/>
        <pt x="591" y="576" on="0"/>
        <pt x="591" y="627" on="0"/>
        <pt x="572" y="665" on="0"/>
        <pt x="552" y="689" on="0"/>
        <pt x="534" y="696" on="1"/>
        <pt x="502" y="707" on="0"/>
        <pt x="463" y="707" on="1"/>
        <pt x="211" y="707" on="1"/>
        <pt x="154" y="347" on="1"/>
      </contour>
    </TTGlyph>
    <TTGlyph name="S" xMin="79" yMin="-8" xMax="589" yMax="738">
      <contour>
        <pt x="318" y="16" on="1"/>
        <pt x="441" y="16" on="0"/>
        <pt x="484" y="85" on="1"/>
        <pt x="502" y="114" on="0"/>
        <pt x="508" y="156" on="1"/>
        <pt x="518" y="224" on="1"/>
        <pt x="521" y="242" on="0"/>
        <pt x="521" y="257" on="1"/>
        <pt x="521" y="297" on="0"/>
        <pt x="501" y="318" on="1"/>
        <pt x="474" y="347" on="0"/>
        <pt x="400" y="347" on="1"/>
        <pt x="288" y="347" on="1"/>
        <pt x="178" y="347" on="0"/>
        <pt x="150" y="393" on="1"/>
        <pt x="133" y="422" on="0"/>
        <pt x="133" y="479" on="0"/>
        <pt x="138" y="498" on="1"/>
        <pt x="149" y="564" on="1"/>
        <pt x="165" y="665" on="0"/>
        <pt x="275" y="738" on="0"/>
        <pt x="475" y="738" on="0"/>
        <pt x="589" y="719" on="1"/>
        <pt x="587" y="706" on="1"/>
        <pt x="366" y="714" on="1"/>
        <pt x="359" y="714" on="0"/>
        <pt x="353" y="714" on="1"/>
        <pt x="279" y="714" on="0"/>
        <pt x="187" y="647" on="0"/>
        <pt x="173" y="560" on="1"/>
        <pt x="162" y="494" on="1"/>
        <pt x="159" y="475" on="0"/>
        <pt x="159" y="459" on="1"/>
        <pt x="159" y="415" on="0"/>
        <pt x="214" y="371" on="0"/>
        <pt x="290" y="371" on="1"/>
        <pt x="404" y="371" on="1"/>
        <pt x="496" y="371" on="0"/>
        <pt x="524" y="330" on="1"/>
        <pt x="545" y="301" on="0"/>
        <pt x="545" y="256" on="1"/>
        <pt x="545" y="239" on="0"/>
        <pt x="542" y="219" on="1"/>
        <pt x="532" y="151" on="1"/>
        <pt x="516" y="49" on="0"/>
        <pt x="450" y="18" on="1"/>
        <pt x="393" y="-8" on="0"/>
        <pt x="312" y="-8" on="1"/>
        <pt x="270" y="-8" on="0"/>
        <pt x="110" y="1" on="0"/>
        <pt x="79" y="7" on="1"/>
        <pt x="81" y="22" on="1"/>
        <pt x="146" y="16" on="0"/>
      </contour>
    </TTGlyph>
    <TTGlyph name="Sacute" xMin="79" yMin="-8" xMax="589" yMax="931">
      <contour>
        <pt x="403" y="798" on="1"/>
        <pt x="545" y="931" on="1"/>
        <pt x="571" y="931" on="1"/>
        <pt x="417" y="798" on="1"/>
      </contour>
      <contour>
        <pt x="318" y="16" on="1"/>
        <pt x="441" y="16" on="0"/>
        <pt x="484" y="85" on="1"/>
        <pt x="502" y="114" on="0"/>
        <pt x="508" y="156" on="1"/>
        <pt x="518" y="224" on="1"/>
        <pt x="521" y="242" on="0"/>
        <pt x="521" y="257" on="1"/>
        <pt x="521" y="297" on="0"/>
        <pt x="501" y="318" on="1"/>
        <pt x="474" y="347" on="0"/>
        <pt x="400" y="347" on="1"/>
        <pt x="288" y="347" on="1"/>
        <pt x="178" y="347" on="0"/>
        <pt x="150" y="393" on="1"/>
        <pt x="133" y="422" on="0"/>
        <pt x="133" y="479" on="0"/>
        <pt x="138" y="498" on="1"/>
        <pt x="149" y="564" on="1"/>
        <pt x="165" y="665" on="0"/>
        <pt x="275" y="738" on="0"/>
        <pt x="475" y="738" on="0"/>
        <pt x="589" y="719" on="1"/>
        <pt x="587" y="706" on="1"/>
        <pt x="366" y="714" on="1"/>
        <pt x="359" y="714" on="0"/>
        <pt x="353" y="714" on="1"/>
        <pt x="279" y="714" on="0"/>
        <pt x="187" y="647" on="0"/>
        <pt x="173" y="560" on="1"/>
        <pt x="162" y="494" on="1"/>
        <pt x="159" y="475" on="0"/>
        <pt x="159" y="459" on="1"/>
        <pt x="159" y="415" on="0"/>
        <pt x="214" y="371" on="0"/>
        <pt x="290" y="371" on="1"/>
        <pt x="404" y="371" on="1"/>
        <pt x="496" y="371" on="0"/>
        <pt x="524" y="330" on="1"/>
        <pt x="545" y="301" on="0"/>
        <pt x="545" y="256" on="1"/>
        <pt x="545" y="239" on="0"/>
        <pt x="542" y="219" on="1"/>
        <pt x="532" y="151" on="1"/>
        <pt x="516" y="49" on="0"/>
        <pt x="450" y="18" on="1"/>
        <pt x="393" y="-8" on="0"/>
        <pt x="312" y="-8" on="1"/>
        <pt x="270" y="-8" on="0"/>
        <pt x="110" y="1" on="0"/>
        <pt x="79" y="7" on="1"/>
        <pt x="81" y="22" on="1"/>
        <pt x="146" y="16" on="0"/>
      </contour>
    </TTGlyph>
    <TTGlyph name="Scaron" xMin="79" yMin="-8" xMax="589" yMax="928">
      <contour>
        <pt x="297" y="928" on="1"/>
        <pt x="314" y="928" on="1"/>
        <pt x="408" y="813" on="1"/>
        <pt x="551" y="928" on="1"/>
        <pt x="569" y="928" on="1"/>
        <pt x="416" y="798" on="1"/>
        <pt x="395" y="798" on="1"/>
      </contour>
      <contour>
        <pt x="318" y="16" on="1"/>
        <pt x="441" y="16" on="0"/>
        <pt x="484" y="85" on="1"/>
        <pt x="502" y="114" on="0"/>
        <pt x="508" y="156" on="1"/>
        <pt x="518" y="224" on="1"/>
        <pt x="521" y="242" on="0"/>
        <pt x="521" y="257" on="1"/>
        <pt x="521" y="297" on="0"/>
        <pt x="501" y="318" on="1"/>
        <pt x="474" y="347" on="0"/>
        <pt x="400" y="347" on="1"/>
        <pt x="288" y="347" on="1"/>
        <pt x="178" y="347" on="0"/>
        <pt x="150" y="393" on="1"/>
        <pt x="133" y="422" on="0"/>
        <pt x="133" y="479" on="0"/>
        <pt x="138" y="498" on="1"/>
        <pt x="149" y="564" on="1"/>
        <pt x="165" y="665" on="0"/>
        <pt x="275" y="738" on="0"/>
        <pt x="475" y="738" on="0"/>
        <pt x="589" y="719" on="1"/>
        <pt x="587" y="706" on="1"/>
        <pt x="366" y="714" on="1"/>
        <pt x="359" y="714" on="0"/>
        <pt x="353" y="714" on="1"/>
        <pt x="279" y="714" on="0"/>
        <pt x="187" y="647" on="0"/>
        <pt x="173" y="560" on="1"/>
        <pt x="162" y="494" on="1"/>
        <pt x="159" y="475" on="0"/>
        <pt x="159" y="459" on="1"/>
        <pt x="159" y="415" on="0"/>
        <pt x="214" y="371" on="0"/>
        <pt x="290" y="371" on="1"/>
        <pt x="404" y="371" on="1"/>
        <pt x="496" y="371" on="0"/>
        <pt x="524" y="330" on="1"/>
        <pt x="545" y="301" on="0"/>
        <pt x="545" y="256" on="1"/>
        <pt x="545" y="239" on="0"/>
        <pt x="542" y="219" on="1"/>
        <pt x="532" y="151" on="1"/>
        <pt x="516" y="49" on="0"/>
        <pt x="450" y="18" on="1"/>
        <pt x="393" y="-8" on="0"/>
        <pt x="312" y="-8" on="1"/>
        <pt x="270" y="-8" on="0"/>
        <pt x="110" y="1" on="0"/>
        <pt x="79" y="7" on="1"/>
        <pt x="81" y="22" on="1"/>
        <pt x="146" y="16" on="0"/>
      </contour>
    </TTGlyph>
    <TTGlyph name="Scedilla" xMin="79" yMin="-181" xMax="589" yMax="738">
      <contour>
        <pt x="197" y="-181" on="1"/>
        <pt x="166" y="-181" on="1"/>
        <pt x="167" y="-174" on="1"/>
        <pt x="201" y="-169" on="1"/>
        <pt x="234" y="-164" on="0"/>
        <pt x="266" y="-150" on="0"/>
        <pt x="296" y="-97" on="0"/>
        <pt x="303" y="-45" on="1"/>
        <pt x="320" y="-45" on="1"/>
        <pt x="308" y="-122" on="0"/>
        <pt x="258" y="-181" on="0"/>
      </contour>
      <contour>
        <pt x="318" y="16" on="1"/>
        <pt x="441" y="16" on="0"/>
        <pt x="484" y="85" on="1"/>
        <pt x="502" y="114" on="0"/>
        <pt x="508" y="156" on="1"/>
        <pt x="518" y="224" on="1"/>
        <pt x="521" y="242" on="0"/>
        <pt x="521" y="257" on="1"/>
        <pt x="521" y="297" on="0"/>
        <pt x="501" y="318" on="1"/>
        <pt x="474" y="347" on="0"/>
        <pt x="400" y="347" on="1"/>
        <pt x="288" y="347" on="1"/>
        <pt x="178" y="347" on="0"/>
        <pt x="150" y="393" on="1"/>
        <pt x="133" y="422" on="0"/>
        <pt x="133" y="479" on="0"/>
        <pt x="138" y="498" on="1"/>
        <pt x="149" y="564" on="1"/>
        <pt x="165" y="665" on="0"/>
        <pt x="275" y="738" on="0"/>
        <pt x="475" y="738" on="0"/>
        <pt x="589" y="719" on="1"/>
        <pt x="587" y="706" on="1"/>
        <pt x="366" y="714" on="1"/>
        <pt x="359" y="714" on="0"/>
        <pt x="353" y="714" on="1"/>
        <pt x="279" y="714" on="0"/>
        <pt x="187" y="647" on="0"/>
        <pt x="173" y="560" on="1"/>
        <pt x="162" y="494" on="1"/>
        <pt x="159" y="475" on="0"/>
        <pt x="159" y="459" on="1"/>
        <pt x="159" y="415" on="0"/>
        <pt x="214" y="371" on="0"/>
        <pt x="290" y="371" on="1"/>
        <pt x="404" y="371" on="1"/>
        <pt x="496" y="371" on="0"/>
        <pt x="524" y="330" on="1"/>
        <pt x="545" y="301" on="0"/>
        <pt x="545" y="256" on="1"/>
        <pt x="545" y="239" on="0"/>
        <pt x="542" y="219" on="1"/>
        <pt x="532" y="151" on="1"/>
        <pt x="516" y="49" on="0"/>
        <pt x="450" y="18" on="1"/>
        <pt x="393" y="-8" on="0"/>
        <pt x="312" y="-8" on="1"/>
        <pt x="270" y="-8" on="0"/>
        <pt x="110" y="1" on="0"/>
        <pt x="79" y="7" on="1"/>
        <pt x="81" y="22" on="1"/>
        <pt x="146" y="16" on="0"/>
      </contour>
    </TTGlyph>
    <TTGlyph name="Scircumflex" xMin="79" yMin="-8" xMax="589" yMax="928">
      <contour>
        <pt x="244" y="798" on="1"/>
        <pt x="397" y="928" on="1"/>
        <pt x="418" y="928" on="1"/>
        <pt x="516" y="798" on="1"/>
        <pt x="499" y="798" on="1"/>
        <pt x="405" y="913" on="1"/>
        <pt x="262" y="798" on="1"/>
      </contour>
      <contour>
        <pt x="318" y="16" on="1"/>
        <pt x="441" y="16" on="0"/>
        <pt x="484" y="85" on="1"/>
        <pt x="502" y="114" on="0"/>
        <pt x="508" y="156" on="1"/>
        <pt x="518" y="224" on="1"/>
        <pt x="521" y="242" on="0"/>
        <pt x="521" y="257" on="1"/>
        <pt x="521" y="297" on="0"/>
        <pt x="501" y="318" on="1"/>
        <pt x="474" y="347" on="0"/>
        <pt x="400" y="347" on="1"/>
        <pt x="288" y="347" on="1"/>
        <pt x="178" y="347" on="0"/>
        <pt x="150" y="393" on="1"/>
        <pt x="133" y="422" on="0"/>
        <pt x="133" y="479" on="0"/>
        <pt x="138" y="498" on="1"/>
        <pt x="149" y="564" on="1"/>
        <pt x="165" y="665" on="0"/>
        <pt x="275" y="738" on="0"/>
        <pt x="475" y="738" on="0"/>
        <pt x="589" y="719" on="1"/>
        <pt x="587" y="706" on="1"/>
        <pt x="366" y="714" on="1"/>
        <pt x="359" y="714" on="0"/>
        <pt x="353" y="714" on="1"/>
        <pt x="279" y="714" on="0"/>
        <pt x="187" y="647" on="0"/>
        <pt x="173" y="560" on="1"/>
        <pt x="162" y="494" on="1"/>
        <pt x="159" y="475" on="0"/>
        <pt x="159" y="459" on="1"/>
        <pt x="159" y="415" on="0"/>
        <pt x="214" y="371" on="0"/>
        <pt x="290" y="371" on="1"/>
        <pt x="404" y="371" on="1"/>
        <pt x="496" y="371" on="0"/>
        <pt x="524" y="330" on="1"/>
        <pt x="545" y="301" on="0"/>
        <pt x="545" y="256" on="1"/>
        <pt x="545" y="239" on="0"/>
        <pt x="542" y="219" on="1"/>
        <pt x="532" y="151" on="1"/>
        <pt x="516" y="49" on="0"/>
        <pt x="450" y="18" on="1"/>
        <pt x="393" y="-8" on="0"/>
        <pt x="312" y="-8" on="1"/>
        <pt x="270" y="-8" on="0"/>
        <pt x="110" y="1" on="0"/>
        <pt x="79" y="7" on="1"/>
        <pt x="81" y="22" on="1"/>
        <pt x="146" y="16" on="0"/>
      </contour>
    </TTGlyph>
    <TTGlyph name="T" xMin="139" yMin="0" xMax="681" yMax="732">
      <contour>
        <pt x="139" y="708" on="1"/>
        <pt x="143" y="732" on="1"/>
        <pt x="681" y="732" on="1"/>
        <pt x="677" y="708" on="1"/>
        <pt x="417" y="708" on="1"/>
        <pt x="305" y="0" on="1"/>
        <pt x="281" y="0" on="1"/>
        <pt x="393" y="708" on="1"/>
      </contour>
    </TTGlyph>
    <TTGlyph name="Tbar" xMin="139" yMin="0" xMax="641" yMax="732">
      <contour>
        <pt x="139" y="708" on="1"/>
        <pt x="143" y="732" on="1"/>
        <pt x="641" y="732" on="1"/>
        <pt x="637" y="708" on="1"/>
        <pt x="397" y="708" on="1"/>
        <pt x="352" y="424" on="1"/>
        <pt x="482" y="424" on="1"/>
        <pt x="480" y="410" on="1"/>
        <pt x="350" y="410" on="1"/>
        <pt x="285" y="0" on="1"/>
        <pt x="261" y="0" on="1"/>
        <pt x="326" y="410" on="1"/>
        <pt x="196" y="410" on="1"/>
        <pt x="198" y="424" on="1"/>
        <pt x="328" y="424" on="1"/>
        <pt x="373" y="708" on="1"/>
      </contour>
    </TTGlyph>
    <TTGlyph name="Tcaron" xMin="139" yMin="0" xMax="681" yMax="927">
      <contour>
        <pt x="307" y="927" on="1"/>
        <pt x="324" y="927" on="1"/>
        <pt x="418" y="812" on="1"/>
        <pt x="561" y="927" on="1"/>
        <pt x="579" y="927" on="1"/>
        <pt x="426" y="797" on="1"/>
        <pt x="405" y="797" on="1"/>
      </contour>
      <contour>
        <pt x="139" y="708" on="1"/>
        <pt x="143" y="732" on="1"/>
        <pt x="681" y="732" on="1"/>
        <pt x="677" y="708" on="1"/>
        <pt x="417" y="708" on="1"/>
        <pt x="305" y="0" on="1"/>
        <pt x="281" y="0" on="1"/>
        <pt x="393" y="708" on="1"/>
      </contour>
    </TTGlyph>
    <TTGlyph name="Tcommaaccent" xMin="138" yMin="-185" xMax="680" yMax="732">
      <contour>
        <pt x="170" y="-185" on="1"/>
        <pt x="139" y="-185" on="1"/>
        <pt x="140" y="-178" on="1"/>
        <pt x="174" y="-173" on="1"/>
        <pt x="207" y="-168" on="0"/>
        <pt x="239" y="-154" on="0"/>
        <pt x="269" y="-101" on="0"/>
        <pt x="276" y="-49" on="1"/>
        <pt x="293" y="-49" on="1"/>
        <pt x="281" y="-126" on="0"/>
        <pt x="231" y="-185" on="0"/>
      </contour>
      <contour>
        <pt x="138" y="708" on="1"/>
        <pt x="142" y="732" on="1"/>
        <pt x="680" y="732" on="1"/>
        <pt x="676" y="708" on="1"/>
        <pt x="416" y="708" on="1"/>
        <pt x="304" y="0" on="1"/>
        <pt x="280" y="0" on="1"/>
        <pt x="392" y="708" on="1"/>
      </contour>
    </TTGlyph>
    <TTGlyph name="Thorn" xMin="60" yMin="0" xMax="544" yMax="729">
      <contour>
        <pt x="60" y="0" on="1"/>
        <pt x="60" y="0" on="0"/>
        <pt x="175" y="729" on="1"/>
        <pt x="199" y="729" on="1"/>
        <pt x="177" y="588" on="1"/>
        <pt x="394" y="588" on="1"/>
        <pt x="446" y="588" on="0"/>
        <pt x="486" y="563" on="1"/>
        <pt x="528" y="537" on="0"/>
        <pt x="540" y="462" on="1"/>
        <pt x="543" y="447" on="0"/>
        <pt x="543" y="403" on="0"/>
        <pt x="528" y="312" on="0"/>
        <pt x="491" y="227" on="0"/>
        <pt x="450" y="182" on="0"/>
        <pt x="422" y="169" on="1"/>
        <pt x="379" y="149" on="0"/>
        <pt x="325" y="149" on="1"/>
        <pt x="147" y="153" on="0"/>
        <pt x="109" y="159" on="1"/>
        <pt x="84" y="0" on="1"/>
      </contour>
      <contour>
        <pt x="328" y="173" on="1"/>
        <pt x="403" y="173" on="0"/>
        <pt x="495" y="265" on="0"/>
        <pt x="513" y="377" on="1"/>
        <pt x="519" y="406" on="0"/>
        <pt x="519" y="446" on="0"/>
        <pt x="510" y="493" on="0"/>
        <pt x="490" y="533" on="0"/>
        <pt x="470" y="544" on="1"/>
        <pt x="435" y="564" on="0"/>
        <pt x="390" y="564" on="1"/>
        <pt x="173" y="564" on="1"/>
        <pt x="111" y="173" on="1"/>
      </contour>
    </TTGlyph>
    <TTGlyph name="U" xMin="119" yMin="-5" xMax="703" yMax="732">
      <contour>
        <pt x="155" y="320" on="1"/>
        <pt x="142" y="240" on="0"/>
        <pt x="142" y="184" on="0"/>
        <pt x="145" y="145" on="0"/>
        <pt x="151" y="101" on="0"/>
        <pt x="170" y="69" on="0"/>
        <pt x="186" y="46" on="0"/>
        <pt x="219" y="32" on="0"/>
        <pt x="241" y="23" on="0"/>
        <pt x="263" y="22" on="1"/>
        <pt x="300" y="19" on="0"/>
        <pt x="370" y="19" on="0"/>
        <pt x="413" y="22" on="0"/>
        <pt x="467" y="36" on="0"/>
        <pt x="505" y="60" on="0"/>
        <pt x="547" y="104" on="0"/>
        <pt x="562" y="136" on="1"/>
        <pt x="598" y="210" on="0"/>
        <pt x="614" y="320" on="1"/>
        <pt x="679" y="732" on="1"/>
        <pt x="703" y="732" on="1"/>
        <pt x="638" y="320" on="1"/>
        <pt x="621" y="219" on="0"/>
        <pt x="587" y="132" on="0"/>
        <pt x="563" y="83" on="0"/>
        <pt x="530" y="49" on="0"/>
        <pt x="503" y="24" on="0"/>
        <pt x="463" y="9" on="0"/>
        <pt x="436" y="0" on="0"/>
        <pt x="414" y="-2" on="1"/>
        <pt x="380" y="-5" on="0"/>
        <pt x="242" y="-5" on="0"/>
        <pt x="205" y="10" on="1"/>
        <pt x="119" y="43" on="0"/>
        <pt x="119" y="188" on="1"/>
        <pt x="119" y="244" on="0"/>
        <pt x="131" y="320" on="1"/>
        <pt x="196" y="732" on="1"/>
        <pt x="220" y="732" on="1"/>
      </contour>
    </TTGlyph>
    <TTGlyph name="Uacute" xMin="119" yMin="-5" xMax="703" yMax="930">
      <contour>
        <pt x="453" y="797" on="1"/>
        <pt x="595" y="930" on="1"/>
        <pt x="621" y="930" on="1"/>
        <pt x="467" y="797" on="1"/>
      </contour>
      <contour>
        <pt x="155" y="320" on="1"/>
        <pt x="142" y="240" on="0"/>
        <pt x="142" y="184" on="0"/>
        <pt x="145" y="145" on="0"/>
        <pt x="151" y="101" on="0"/>
        <pt x="170" y="69" on="0"/>
        <pt x="186" y="46" on="0"/>
        <pt x="219" y="32" on="0"/>
        <pt x="241" y="23" on="0"/>
        <pt x="263" y="22" on="1"/>
        <pt x="300" y="19" on="0"/>
        <pt x="370" y="19" on="0"/>
        <pt x="413" y="22" on="0"/>
        <pt x="467" y="36" on="0"/>
        <pt x="505" y="60" on="0"/>
        <pt x="547" y="104" on="0"/>
        <pt x="562" y="136" on="1"/>
        <pt x="598" y="210" on="0"/>
        <pt x="614" y="320" on="1"/>
        <pt x="679" y="732" on="1"/>
        <pt x="703" y="732" on="1"/>
        <pt x="638" y="320" on="1"/>
        <pt x="621" y="219" on="0"/>
        <pt x="587" y="132" on="0"/>
        <pt x="563" y="83" on="0"/>
        <pt x="530" y="49" on="0"/>
        <pt x="503" y="24" on="0"/>
        <pt x="463" y="9" on="0"/>
        <pt x="436" y="0" on="0"/>
        <pt x="414" y="-2" on="1"/>
        <pt x="380" y="-5" on="0"/>
        <pt x="242" y="-5" on="0"/>
        <pt x="205" y="10" on="1"/>
        <pt x="119" y="43" on="0"/>
        <pt x="119" y="188" on="1"/>
        <pt x="119" y="244" on="0"/>
        <pt x="131" y="320" on="1"/>
        <pt x="196" y="732" on="1"/>
        <pt x="220" y="732" on="1"/>
      </contour>
    </TTGlyph>
    <TTGlyph name="Ubreve" xMin="119" yMin="-5" xMax="703" yMax="911">
      <contour>
        <pt x="376" y="894" on="1"/>
        <pt x="376" y="862" on="0"/>
        <pt x="420" y="811" on="0"/>
        <pt x="459" y="811" on="1"/>
        <pt x="505" y="811" on="0"/>
        <pt x="572" y="868" on="0"/>
        <pt x="579" y="911" on="1"/>
        <pt x="593" y="911" on="1"/>
        <pt x="585" y="858" on="0"/>
        <pt x="505" y="797" on="0"/>
        <pt x="416" y="797" on="0"/>
        <pt x="361" y="853" on="0"/>
        <pt x="361" y="891" on="1"/>
        <pt x="361" y="900" on="0"/>
        <pt x="363" y="911" on="1"/>
        <pt x="377" y="911" on="1"/>
        <pt x="376" y="902" on="0"/>
      </contour>
      <contour>
        <pt x="155" y="320" on="1"/>
        <pt x="142" y="240" on="0"/>
        <pt x="142" y="184" on="0"/>
        <pt x="145" y="145" on="0"/>
        <pt x="151" y="101" on="0"/>
        <pt x="170" y="69" on="0"/>
        <pt x="186" y="46" on="0"/>
        <pt x="219" y="32" on="0"/>
        <pt x="241" y="23" on="0"/>
        <pt x="263" y="22" on="1"/>
        <pt x="300" y="19" on="0"/>
        <pt x="370" y="19" on="0"/>
        <pt x="413" y="22" on="0"/>
        <pt x="467" y="36" on="0"/>
        <pt x="505" y="60" on="0"/>
        <pt x="547" y="104" on="0"/>
        <pt x="562" y="136" on="1"/>
        <pt x="598" y="210" on="0"/>
        <pt x="614" y="320" on="1"/>
        <pt x="679" y="732" on="1"/>
        <pt x="703" y="732" on="1"/>
        <pt x="638" y="320" on="1"/>
        <pt x="621" y="219" on="0"/>
        <pt x="587" y="132" on="0"/>
        <pt x="563" y="83" on="0"/>
        <pt x="530" y="49" on="0"/>
        <pt x="503" y="24" on="0"/>
        <pt x="463" y="9" on="0"/>
        <pt x="436" y="0" on="0"/>
        <pt x="414" y="-2" on="1"/>
        <pt x="380" y="-5" on="0"/>
        <pt x="242" y="-5" on="0"/>
        <pt x="205" y="10" on="1"/>
        <pt x="119" y="43" on="0"/>
        <pt x="119" y="188" on="1"/>
        <pt x="119" y="244" on="0"/>
        <pt x="131" y="320" on="1"/>
        <pt x="196" y="732" on="1"/>
        <pt x="220" y="732" on="1"/>
      </contour>
    </TTGlyph>
    <TTGlyph name="Ucircumflex" xMin="119" yMin="-5" xMax="703" yMax="927">
      <contour>
        <pt x="324" y="797" on="1"/>
        <pt x="477" y="927" on="1"/>
        <pt x="498" y="927" on="1"/>
        <pt x="596" y="797" on="1"/>
        <pt x="579" y="797" on="1"/>
        <pt x="485" y="912" on="1"/>
        <pt x="342" y="797" on="1"/>
      </contour>
      <contour>
        <pt x="155" y="320" on="1"/>
        <pt x="142" y="240" on="0"/>
        <pt x="142" y="184" on="0"/>
        <pt x="145" y="145" on="0"/>
        <pt x="151" y="101" on="0"/>
        <pt x="170" y="69" on="0"/>
        <pt x="186" y="46" on="0"/>
        <pt x="219" y="32" on="0"/>
        <pt x="241" y="23" on="0"/>
        <pt x="263" y="22" on="1"/>
        <pt x="300" y="19" on="0"/>
        <pt x="370" y="19" on="0"/>
        <pt x="413" y="22" on="0"/>
        <pt x="467" y="36" on="0"/>
        <pt x="505" y="60" on="0"/>
        <pt x="547" y="104" on="0"/>
        <pt x="562" y="136" on="1"/>
        <pt x="598" y="210" on="0"/>
        <pt x="614" y="320" on="1"/>
        <pt x="679" y="732" on="1"/>
        <pt x="703" y="732" on="1"/>
        <pt x="638" y="320" on="1"/>
        <pt x="621" y="219" on="0"/>
        <pt x="587" y="132" on="0"/>
        <pt x="563" y="83" on="0"/>
        <pt x="530" y="49" on="0"/>
        <pt x="503" y="24" on="0"/>
        <pt x="463" y="9" on="0"/>
        <pt x="436" y="0" on="0"/>
        <pt x="414" y="-2" on="1"/>
        <pt x="380" y="-5" on="0"/>
        <pt x="242" y="-5" on="0"/>
        <pt x="205" y="10" on="1"/>
        <pt x="119" y="43" on="0"/>
        <pt x="119" y="188" on="1"/>
        <pt x="119" y="244" on="0"/>
        <pt x="131" y="320" on="1"/>
        <pt x="196" y="732" on="1"/>
        <pt x="220" y="732" on="1"/>
      </contour>
    </TTGlyph>
    <TTGlyph name="Udieresis" xMin="119" yMin="-5" xMax="703" yMax="832">
      <contour>
        <pt x="339" y="832" on="1"/>
        <pt x="346" y="832" on="0"/>
        <pt x="354" y="822" on="0"/>
        <pt x="353" y="815" on="1"/>
        <pt x="349" y="797" on="0"/>
        <pt x="333" y="797" on="1"/>
        <pt x="325" y="797" on="0"/>
        <pt x="316" y="808" on="0"/>
        <pt x="318" y="815" on="1"/>
        <pt x="321" y="832" on="0"/>
      </contour>
      <contour>
        <pt x="594" y="832" on="1"/>
        <pt x="601" y="832" on="0"/>
        <pt x="609" y="822" on="0"/>
        <pt x="608" y="815" on="1"/>
        <pt x="604" y="797" on="0"/>
        <pt x="588" y="797" on="1"/>
        <pt x="580" y="797" on="0"/>
        <pt x="571" y="808" on="0"/>
        <pt x="573" y="815" on="1"/>
        <pt x="576" y="832" on="0"/>
      </contour>
      <contour>
        <pt x="155" y="320" on="1"/>
        <pt x="142" y="240" on="0"/>
        <pt x="142" y="184" on="0"/>
        <pt x="145" y="145" on="0"/>
        <pt x="151" y="101" on="0"/>
        <pt x="170" y="69" on="0"/>
        <pt x="186" y="46" on="0"/>
        <pt x="219" y="32" on="0"/>
        <pt x="241" y="23" on="0"/>
        <pt x="263" y="22" on="1"/>
        <pt x="300" y="19" on="0"/>
        <pt x="370" y="19" on="0"/>
        <pt x="413" y="22" on="0"/>
        <pt x="467" y="36" on="0"/>
        <pt x="505" y="60" on="0"/>
        <pt x="547" y="104" on="0"/>
        <pt x="562" y="136" on="1"/>
        <pt x="598" y="210" on="0"/>
        <pt x="614" y="320" on="1"/>
        <pt x="679" y="732" on="1"/>
        <pt x="703" y="732" on="1"/>
        <pt x="638" y="320" on="1"/>
        <pt x="621" y="219" on="0"/>
        <pt x="587" y="132" on="0"/>
        <pt x="563" y="83" on="0"/>
        <pt x="530" y="49" on="0"/>
        <pt x="503" y="24" on="0"/>
        <pt x="463" y="9" on="0"/>
        <pt x="436" y="0" on="0"/>
        <pt x="414" y="-2" on="1"/>
        <pt x="380" y="-5" on="0"/>
        <pt x="242" y="-5" on="0"/>
        <pt x="205" y="10" on="1"/>
        <pt x="119" y="43" on="0"/>
        <pt x="119" y="188" on="1"/>
        <pt x="119" y="244" on="0"/>
        <pt x="131" y="320" on="1"/>
        <pt x="196" y="732" on="1"/>
        <pt x="220" y="732" on="1"/>
      </contour>
    </TTGlyph>
    <TTGlyph name="Ugrave" xMin="119" yMin="-5" xMax="703" yMax="930">
      <contour>
        <pt x="341" y="930" on="1"/>
        <pt x="367" y="930" on="1"/>
        <pt x="467" y="797" on="1"/>
        <pt x="453" y="797" on="1"/>
      </contour>
      <contour>
        <pt x="155" y="320" on="1"/>
        <pt x="142" y="240" on="0"/>
        <pt x="142" y="184" on="0"/>
        <pt x="145" y="145" on="0"/>
        <pt x="151" y="101" on="0"/>
        <pt x="170" y="69" on="0"/>
        <pt x="186" y="46" on="0"/>
        <pt x="219" y="32" on="0"/>
        <pt x="241" y="23" on="0"/>
        <pt x="263" y="22" on="1"/>
        <pt x="300" y="19" on="0"/>
        <pt x="370" y="19" on="0"/>
        <pt x="413" y="22" on="0"/>
        <pt x="467" y="36" on="0"/>
        <pt x="505" y="60" on="0"/>
        <pt x="547" y="104" on="0"/>
        <pt x="562" y="136" on="1"/>
        <pt x="598" y="210" on="0"/>
        <pt x="614" y="320" on="1"/>
        <pt x="679" y="732" on="1"/>
        <pt x="703" y="732" on="1"/>
        <pt x="638" y="320" on="1"/>
        <pt x="621" y="219" on="0"/>
        <pt x="587" y="132" on="0"/>
        <pt x="563" y="83" on="0"/>
        <pt x="530" y="49" on="0"/>
        <pt x="503" y="24" on="0"/>
        <pt x="463" y="9" on="0"/>
        <pt x="436" y="0" on="0"/>
        <pt x="414" y="-2" on="1"/>
        <pt x="380" y="-5" on="0"/>
        <pt x="242" y="-5" on="0"/>
        <pt x="205" y="10" on="1"/>
        <pt x="119" y="43" on="0"/>
        <pt x="119" y="188" on="1"/>
        <pt x="119" y="244" on="0"/>
        <pt x="131" y="320" on="1"/>
        <pt x="196" y="732" on="1"/>
        <pt x="220" y="732" on="1"/>
      </contour>
    </TTGlyph>
    <TTGlyph name="Uhungarumlaut" xMin="119" yMin="-5" xMax="703" yMax="930">
      <contour>
        <pt x="383" y="797" on="1"/>
        <pt x="525" y="930" on="1"/>
        <pt x="551" y="930" on="1"/>
        <pt x="397" y="797" on="1"/>
      </contour>
      <contour>
        <pt x="522" y="797" on="1"/>
        <pt x="664" y="930" on="1"/>
        <pt x="690" y="930" on="1"/>
        <pt x="536" y="797" on="1"/>
      </contour>
      <contour>
        <pt x="155" y="320" on="1"/>
        <pt x="142" y="240" on="0"/>
        <pt x="142" y="184" on="0"/>
        <pt x="145" y="145" on="0"/>
        <pt x="151" y="101" on="0"/>
        <pt x="170" y="69" on="0"/>
        <pt x="186" y="46" on="0"/>
        <pt x="219" y="32" on="0"/>
        <pt x="241" y="23" on="0"/>
        <pt x="263" y="22" on="1"/>
        <pt x="300" y="19" on="0"/>
        <pt x="370" y="19" on="0"/>
        <pt x="413" y="22" on="0"/>
        <pt x="467" y="36" on="0"/>
        <pt x="505" y="60" on="0"/>
        <pt x="547" y="104" on="0"/>
        <pt x="562" y="136" on="1"/>
        <pt x="598" y="210" on="0"/>
        <pt x="614" y="320" on="1"/>
        <pt x="679" y="732" on="1"/>
        <pt x="703" y="732" on="1"/>
        <pt x="638" y="320" on="1"/>
        <pt x="621" y="219" on="0"/>
        <pt x="587" y="132" on="0"/>
        <pt x="563" y="83" on="0"/>
        <pt x="530" y="49" on="0"/>
        <pt x="503" y="24" on="0"/>
        <pt x="463" y="9" on="0"/>
        <pt x="436" y="0" on="0"/>
        <pt x="414" y="-2" on="1"/>
        <pt x="380" y="-5" on="0"/>
        <pt x="242" y="-5" on="0"/>
        <pt x="205" y="10" on="1"/>
        <pt x="119" y="43" on="0"/>
        <pt x="119" y="188" on="1"/>
        <pt x="119" y="244" on="0"/>
        <pt x="131" y="320" on="1"/>
        <pt x="196" y="732" on="1"/>
        <pt x="220" y="732" on="1"/>
      </contour>
    </TTGlyph>
    <TTGlyph name="Umacron" xMin="119" yMin="-5" xMax="703" yMax="812">
      <contour>
        <pt x="334" y="797" on="1"/>
        <pt x="336" y="812" on="1"/>
        <pt x="588" y="812" on="1"/>
        <pt x="586" y="797" on="1"/>
      </contour>
      <contour>
        <pt x="155" y="320" on="1"/>
        <pt x="142" y="240" on="0"/>
        <pt x="142" y="184" on="0"/>
        <pt x="145" y="145" on="0"/>
        <pt x="151" y="101" on="0"/>
        <pt x="170" y="69" on="0"/>
        <pt x="186" y="46" on="0"/>
        <pt x="219" y="32" on="0"/>
        <pt x="241" y="23" on="0"/>
        <pt x="263" y="22" on="1"/>
        <pt x="300" y="19" on="0"/>
        <pt x="370" y="19" on="0"/>
        <pt x="413" y="22" on="0"/>
        <pt x="467" y="36" on="0"/>
        <pt x="505" y="60" on="0"/>
        <pt x="547" y="104" on="0"/>
        <pt x="562" y="136" on="1"/>
        <pt x="598" y="210" on="0"/>
        <pt x="614" y="320" on="1"/>
        <pt x="679" y="732" on="1"/>
        <pt x="703" y="732" on="1"/>
        <pt x="638" y="320" on="1"/>
        <pt x="621" y="219" on="0"/>
        <pt x="587" y="132" on="0"/>
        <pt x="563" y="83" on="0"/>
        <pt x="530" y="49" on="0"/>
        <pt x="503" y="24" on="0"/>
        <pt x="463" y="9" on="0"/>
        <pt x="436" y="0" on="0"/>
        <pt x="414" y="-2" on="1"/>
        <pt x="380" y="-5" on="0"/>
        <pt x="242" y="-5" on="0"/>
        <pt x="205" y="10" on="1"/>
        <pt x="119" y="43" on="0"/>
        <pt x="119" y="188" on="1"/>
        <pt x="119" y="244" on="0"/>
        <pt x="131" y="320" on="1"/>
        <pt x="196" y="732" on="1"/>
        <pt x="220" y="732" on="1"/>
      </contour>
    </TTGlyph>
    <TTGlyph name="Uogonek" xMin="119" yMin="-187" xMax="703" yMax="732">
      <contour>
        <pt x="239" y="-114" on="1"/>
        <pt x="239" y="-45" on="0"/>
        <pt x="338" y="-4" on="1"/>
        <pt x="350" y="-4" on="1"/>
        <pt x="316" y="-17" on="0"/>
        <pt x="293" y="-39" on="1"/>
        <pt x="260" y="-69" on="0"/>
        <pt x="260" y="-106" on="1"/>
        <pt x="260" y="-142" on="0"/>
        <pt x="293" y="-159" on="1"/>
        <pt x="316" y="-171" on="0"/>
        <pt x="351" y="-171" on="1"/>
        <pt x="353" y="-171" on="0"/>
        <pt x="355" y="-171" on="1"/>
        <pt x="353" y="-185" on="1"/>
        <pt x="342" y="-186" on="0"/>
        <pt x="331" y="-186" on="1"/>
        <pt x="289" y="-186" on="0"/>
        <pt x="239" y="-141" on="0"/>
      </contour>
      <contour>
        <pt x="155" y="320" on="1"/>
        <pt x="142" y="240" on="0"/>
        <pt x="142" y="184" on="0"/>
        <pt x="145" y="145" on="0"/>
        <pt x="151" y="101" on="0"/>
        <pt x="170" y="69" on="0"/>
        <pt x="186" y="46" on="0"/>
        <pt x="219" y="32" on="0"/>
        <pt x="241" y="23" on="0"/>
        <pt x="263" y="22" on="1"/>
        <pt x="300" y="19" on="0"/>
        <pt x="370" y="19" on="0"/>
        <pt x="413" y="22" on="0"/>
        <pt x="467" y="36" on="0"/>
        <pt x="505" y="60" on="0"/>
        <pt x="547" y="104" on="0"/>
        <pt x="562" y="136" on="1"/>
        <pt x="598" y="210" on="0"/>
        <pt x="614" y="320" on="1"/>
        <pt x="679" y="732" on="1"/>
        <pt x="703" y="732" on="1"/>
        <pt x="638" y="320" on="1"/>
        <pt x="621" y="219" on="0"/>
        <pt x="587" y="132" on="0"/>
        <pt x="563" y="83" on="0"/>
        <pt x="530" y="49" on="0"/>
        <pt x="503" y="24" on="0"/>
        <pt x="463" y="9" on="0"/>
        <pt x="436" y="0" on="0"/>
        <pt x="414" y="-2" on="1"/>
        <pt x="380" y="-5" on="0"/>
        <pt x="242" y="-5" on="0"/>
        <pt x="205" y="10" on="1"/>
        <pt x="119" y="43" on="0"/>
        <pt x="119" y="188" on="1"/>
        <pt x="119" y="244" on="0"/>
        <pt x="131" y="320" on="1"/>
        <pt x="196" y="732" on="1"/>
        <pt x="220" y="732" on="1"/>
      </contour>
    </TTGlyph>
    <TTGlyph name="Uring" xMin="119" yMin="-5" xMax="703" yMax="1002">
      <contour>
        <pt x="451" y="1002" on="0"/>
        <pt x="536" y="1002" on="0"/>
        <pt x="579" y="948" on="0"/>
        <pt x="579" y="917" on="1"/>
        <pt x="579" y="879" on="0"/>
        <pt x="559" y="852" on="1"/>
        <pt x="519" y="797" on="0"/>
        <pt x="461" y="797" on="1"/>
        <pt x="418" y="797" on="0"/>
        <pt x="373" y="850" on="0"/>
        <pt x="373" y="882" on="1"/>
        <pt x="373" y="935" on="0"/>
      </contour>
      <contour>
        <pt x="388" y="884" on="1"/>
        <pt x="388" y="858" on="0"/>
        <pt x="427" y="812" on="0"/>
        <pt x="487" y="812" on="0"/>
        <pt x="509" y="824" on="1"/>
        <pt x="565" y="854" on="0"/>
        <pt x="565" y="914" on="1"/>
        <pt x="565" y="941" on="0"/>
        <pt x="527" y="987" on="0"/>
        <pt x="467" y="987" on="0"/>
        <pt x="445" y="975" on="1"/>
        <pt x="388" y="944" on="0"/>
      </contour>
      <contour>
        <pt x="155" y="320" on="1"/>
        <pt x="142" y="240" on="0"/>
        <pt x="142" y="184" on="0"/>
        <pt x="145" y="145" on="0"/>
        <pt x="151" y="101" on="0"/>
        <pt x="170" y="69" on="0"/>
        <pt x="186" y="46" on="0"/>
        <pt x="219" y="32" on="0"/>
        <pt x="241" y="23" on="0"/>
        <pt x="263" y="22" on="1"/>
        <pt x="300" y="19" on="0"/>
        <pt x="370" y="19" on="0"/>
        <pt x="413" y="22" on="0"/>
        <pt x="467" y="36" on="0"/>
        <pt x="505" y="60" on="0"/>
        <pt x="547" y="104" on="0"/>
        <pt x="562" y="136" on="1"/>
        <pt x="598" y="210" on="0"/>
        <pt x="614" y="320" on="1"/>
        <pt x="679" y="732" on="1"/>
        <pt x="703" y="732" on="1"/>
        <pt x="638" y="320" on="1"/>
        <pt x="621" y="219" on="0"/>
        <pt x="587" y="132" on="0"/>
        <pt x="563" y="83" on="0"/>
        <pt x="530" y="49" on="0"/>
        <pt x="503" y="24" on="0"/>
        <pt x="463" y="9" on="0"/>
        <pt x="436" y="0" on="0"/>
        <pt x="414" y="-2" on="1"/>
        <pt x="380" y="-5" on="0"/>
        <pt x="242" y="-5" on="0"/>
        <pt x="205" y="10" on="1"/>
        <pt x="119" y="43" on="0"/>
        <pt x="119" y="188" on="1"/>
        <pt x="119" y="244" on="0"/>
        <pt x="131" y="320" on="1"/>
        <pt x="196" y="732" on="1"/>
        <pt x="220" y="732" on="1"/>
      </contour>
    </TTGlyph>
    <TTGlyph name="Utilde" xMin="119" yMin="-5" xMax="703" yMax="886">
      <contour>
        <pt x="410" y="886" on="1"/>
        <pt x="427" y="886" on="0"/>
        <pt x="472" y="850" on="0"/>
        <pt x="514" y="813" on="0"/>
        <pt x="533" y="813" on="0"/>
        <pt x="546" y="815" on="0"/>
        <pt x="560" y="820" on="0"/>
        <pt x="572" y="825" on="0"/>
        <pt x="586" y="833" on="0"/>
        <pt x="596" y="839" on="0"/>
        <pt x="611" y="849" on="0"/>
        <pt x="618" y="854" on="0"/>
        <pt x="632" y="865" on="0"/>
        <pt x="634" y="866" on="1"/>
        <pt x="639" y="859" on="1"/>
        <pt x="581" y="810" on="0"/>
        <pt x="539" y="797" on="0"/>
        <pt x="510" y="797" on="0"/>
        <pt x="476" y="820" on="0"/>
        <pt x="463" y="834" on="1"/>
        <pt x="428" y="870" on="0"/>
        <pt x="409" y="870" on="1"/>
        <pt x="375" y="870" on="0"/>
        <pt x="316" y="831" on="1"/>
        <pt x="304" y="823" on="0"/>
        <pt x="300" y="820" on="1"/>
        <pt x="296" y="828" on="1"/>
        <pt x="371" y="886" on="0"/>
      </contour>
      <contour>
        <pt x="155" y="320" on="1"/>
        <pt x="142" y="240" on="0"/>
        <pt x="142" y="184" on="0"/>
        <pt x="145" y="145" on="0"/>
        <pt x="151" y="101" on="0"/>
        <pt x="170" y="69" on="0"/>
        <pt x="186" y="46" on="0"/>
        <pt x="219" y="32" on="0"/>
        <pt x="241" y="23" on="0"/>
        <pt x="263" y="22" on="1"/>
        <pt x="300" y="19" on="0"/>
        <pt x="370" y="19" on="0"/>
        <pt x="413" y="22" on="0"/>
        <pt x="467" y="36" on="0"/>
        <pt x="505" y="60" on="0"/>
        <pt x="547" y="104" on="0"/>
        <pt x="562" y="136" on="1"/>
        <pt x="598" y="210" on="0"/>
        <pt x="614" y="320" on="1"/>
        <pt x="679" y="732" on="1"/>
        <pt x="703" y="732" on="1"/>
        <pt x="638" y="320" on="1"/>
        <pt x="621" y="219" on="0"/>
        <pt x="587" y="132" on="0"/>
        <pt x="563" y="83" on="0"/>
        <pt x="530" y="49" on="0"/>
        <pt x="503" y="24" on="0"/>
        <pt x="463" y="9" on="0"/>
        <pt x="436" y="0" on="0"/>
        <pt x="414" y="-2" on="1"/>
        <pt x="380" y="-5" on="0"/>
        <pt x="242" y="-5" on="0"/>
        <pt x="205" y="10" on="1"/>
        <pt x="119" y="43" on="0"/>
        <pt x="119" y="188" on="1"/>
        <pt x="119" y="244" on="0"/>
        <pt x="131" y="320" on="1"/>
        <pt x="196" y="732" on="1"/>
        <pt x="220" y="732" on="1"/>
      </contour>
    </TTGlyph>
    <TTGlyph name="V" xMin="150" yMin="0" xMax="720" yMax="732">
      <contour>
        <pt x="150" y="732" on="1"/>
        <pt x="175" y="732" on="1"/>
        <pt x="316" y="26" on="1"/>
        <pt x="693" y="732" on="1"/>
        <pt x="720" y="732" on="1"/>
        <pt x="330" y="0" on="1"/>
        <pt x="296" y="0" on="1"/>
      </contour>
    </TTGlyph>
    <TTGlyph name="W" xMin="150" yMin="0" xMax="1032" yMax="732">
      <contour>
        <pt x="150" y="732" on="1"/>
        <pt x="174" y="732" on="1"/>
        <pt x="316" y="25" on="1"/>
        <pt x="674" y="732" on="1"/>
        <pt x="700" y="732" on="1"/>
        <pt x="550" y="431" on="1"/>
        <pt x="647" y="24" on="1"/>
        <pt x="1006" y="732" on="1"/>
        <pt x="1032" y="732" on="1"/>
        <pt x="662" y="0" on="1"/>
        <pt x="628" y="0" on="1"/>
        <pt x="532" y="396" on="1"/>
        <pt x="330" y="0" on="1"/>
        <pt x="296" y="0" on="1"/>
      </contour>
    </TTGlyph>
    <TTGlyph name="Wacute" xMin="150" yMin="0" xMax="1032" yMax="930">
      <contour>
        <pt x="594" y="797" on="1"/>
        <pt x="736" y="930" on="1"/>
        <pt x="762" y="930" on="1"/>
        <pt x="608" y="797" on="1"/>
      </contour>
      <contour>
        <pt x="150" y="732" on="1"/>
        <pt x="174" y="732" on="1"/>
        <pt x="316" y="25" on="1"/>
        <pt x="674" y="732" on="1"/>
        <pt x="700" y="732" on="1"/>
        <pt x="550" y="431" on="1"/>
        <pt x="647" y="24" on="1"/>
        <pt x="1006" y="732" on="1"/>
        <pt x="1032" y="732" on="1"/>
        <pt x="662" y="0" on="1"/>
        <pt x="628" y="0" on="1"/>
        <pt x="532" y="396" on="1"/>
        <pt x="330" y="0" on="1"/>
        <pt x="296" y="0" on="1"/>
      </contour>
    </TTGlyph>
    <TTGlyph name="Wcircumflex" xMin="150" yMin="0" xMax="1032" yMax="927">
      <contour>
        <pt x="465" y="797" on="1"/>
        <pt x="618" y="927" on="1"/>
        <pt x="639" y="927" on="1"/>
        <pt x="737" y="797" on="1"/>
        <pt x="720" y="797" on="1"/>
        <pt x="626" y="912" on="1"/>
        <pt x="483" y="797" on="1"/>
      </contour>
      <contour>
        <pt x="150" y="732" on="1"/>
        <pt x="174" y="732" on="1"/>
        <pt x="316" y="25" on="1"/>
        <pt x="674" y="732" on="1"/>
        <pt x="700" y="732" on="1"/>
        <pt x="550" y="431" on="1"/>
        <pt x="647" y="24" on="1"/>
        <pt x="1006" y="732" on="1"/>
        <pt x="1032" y="732" on="1"/>
        <pt x="662" y="0" on="1"/>
        <pt x="628" y="0" on="1"/>
        <pt x="532" y="396" on="1"/>
        <pt x="330" y="0" on="1"/>
        <pt x="296" y="0" on="1"/>
      </contour>
    </TTGlyph>
    <TTGlyph name="Wdieresis" xMin="150" yMin="0" xMax="1032" yMax="832">
      <contour>
        <pt x="480" y="832" on="1"/>
        <pt x="488" y="832" on="0"/>
        <pt x="496" y="822" on="0"/>
        <pt x="494" y="815" on="1"/>
        <pt x="491" y="797" on="0"/>
        <pt x="474" y="797" on="1"/>
        <pt x="467" y="797" on="0"/>
        <pt x="458" y="808" on="0"/>
        <pt x="459" y="815" on="1"/>
        <pt x="463" y="832" on="0"/>
      </contour>
      <contour>
        <pt x="735" y="832" on="1"/>
        <pt x="743" y="832" on="0"/>
        <pt x="751" y="822" on="0"/>
        <pt x="749" y="815" on="1"/>
        <pt x="746" y="797" on="0"/>
        <pt x="729" y="797" on="1"/>
        <pt x="722" y="797" on="0"/>
        <pt x="713" y="808" on="0"/>
        <pt x="714" y="815" on="1"/>
        <pt x="718" y="832" on="0"/>
      </contour>
      <contour>
        <pt x="150" y="732" on="1"/>
        <pt x="174" y="732" on="1"/>
        <pt x="316" y="25" on="1"/>
        <pt x="674" y="732" on="1"/>
        <pt x="700" y="732" on="1"/>
        <pt x="550" y="431" on="1"/>
        <pt x="647" y="24" on="1"/>
        <pt x="1006" y="732" on="1"/>
        <pt x="1032" y="732" on="1"/>
        <pt x="662" y="0" on="1"/>
        <pt x="628" y="0" on="1"/>
        <pt x="532" y="396" on="1"/>
        <pt x="330" y="0" on="1"/>
        <pt x="296" y="0" on="1"/>
      </contour>
    </TTGlyph>
    <TTGlyph name="Wgrave" xMin="150" yMin="0" xMax="1032" yMax="930">
      <contour>
        <pt x="482" y="930" on="1"/>
        <pt x="508" y="930" on="1"/>
        <pt x="608" y="797" on="1"/>
        <pt x="594" y="797" on="1"/>
      </contour>
      <contour>
        <pt x="150" y="732" on="1"/>
        <pt x="174" y="732" on="1"/>
        <pt x="316" y="25" on="1"/>
        <pt x="674" y="732" on="1"/>
        <pt x="700" y="732" on="1"/>
        <pt x="550" y="431" on="1"/>
        <pt x="647" y="24" on="1"/>
        <pt x="1006" y="732" on="1"/>
        <pt x="1032" y="732" on="1"/>
        <pt x="662" y="0" on="1"/>
        <pt x="628" y="0" on="1"/>
        <pt x="532" y="396" on="1"/>
        <pt x="330" y="0" on="1"/>
        <pt x="296" y="0" on="1"/>
      </contour>
    </TTGlyph>
    <TTGlyph name="X" xMin="38" yMin="0" xMax="627" yMax="732">
      <contour>
        <pt x="38" y="0" on="1"/>
        <pt x="313" y="365" on="1"/>
        <pt x="151" y="732" on="1"/>
        <pt x="179" y="732" on="1"/>
        <pt x="331" y="388" on="1"/>
        <pt x="596" y="732" on="1"/>
        <pt x="627" y="732" on="1"/>
        <pt x="343" y="363" on="1"/>
        <pt x="506" y="0" on="1"/>
        <pt x="478" y="0" on="1"/>
        <pt x="326" y="339" on="1"/>
        <pt x="69" y="0" on="1"/>
      </contour>
    </TTGlyph>
    <TTGlyph name="X.salt" xMin="20" yMin="0" xMax="688" yMax="732">
      <contour>
        <pt x="280" y="295" on="1"/>
        <pt x="316" y="336" on="0"/>
        <pt x="316" y="426" on="0"/>
        <pt x="287" y="475" on="1"/>
        <pt x="137" y="732" on="1"/>
        <pt x="165" y="732" on="1"/>
        <pt x="311" y="483" on="1"/>
        <pt x="340" y="441" on="0"/>
        <pt x="340" y="325" on="0"/>
        <pt x="300" y="280" on="1"/>
        <pt x="52" y="0" on="1"/>
        <pt x="20" y="0" on="1"/>
      </contour>
      <contour>
        <pt x="366" y="342" on="1"/>
        <pt x="366" y="417" on="0"/>
        <pt x="435" y="491" on="1"/>
        <pt x="656" y="732" on="1"/>
        <pt x="688" y="732" on="1"/>
        <pt x="455" y="476" on="1"/>
        <pt x="391" y="411" on="0"/>
        <pt x="391" y="351" on="1"/>
        <pt x="391" y="322" on="0"/>
        <pt x="406" y="295" on="1"/>
        <pt x="572" y="0" on="1"/>
        <pt x="542" y="0" on="1"/>
        <pt x="382" y="288" on="1"/>
        <pt x="366" y="312" on="0"/>
      </contour>
    </TTGlyph>
    <TTGlyph name="Y" xMin="150" yMin="0" xMax="680" yMax="732">
      <contour>
        <pt x="150" y="732" on="1"/>
        <pt x="177" y="732" on="1"/>
        <pt x="333" y="292" on="1"/>
        <pt x="651" y="732" on="1"/>
        <pt x="680" y="732" on="1"/>
        <pt x="342" y="260" on="1"/>
        <pt x="301" y="0" on="1"/>
        <pt x="277" y="0" on="1"/>
        <pt x="318" y="260" on="1"/>
      </contour>
    </TTGlyph>
    <TTGlyph name="Yacute" xMin="150" yMin="0" xMax="680" yMax="930">
      <contour>
        <pt x="418" y="797" on="1"/>
        <pt x="560" y="930" on="1"/>
        <pt x="586" y="930" on="1"/>
        <pt x="432" y="797" on="1"/>
      </contour>
      <contour>
        <pt x="150" y="732" on="1"/>
        <pt x="177" y="732" on="1"/>
        <pt x="333" y="292" on="1"/>
        <pt x="651" y="732" on="1"/>
        <pt x="680" y="732" on="1"/>
        <pt x="342" y="260" on="1"/>
        <pt x="301" y="0" on="1"/>
        <pt x="277" y="0" on="1"/>
        <pt x="318" y="260" on="1"/>
      </contour>
    </TTGlyph>
    <TTGlyph name="Ycircumflex" xMin="150" yMin="0" xMax="680" yMax="927">
      <contour>
        <pt x="289" y="797" on="1"/>
        <pt x="442" y="927" on="1"/>
        <pt x="463" y="927" on="1"/>
        <pt x="561" y="797" on="1"/>
        <pt x="544" y="797" on="1"/>
        <pt x="450" y="912" on="1"/>
        <pt x="307" y="797" on="1"/>
      </contour>
      <contour>
        <pt x="150" y="732" on="1"/>
        <pt x="177" y="732" on="1"/>
        <pt x="333" y="292" on="1"/>
        <pt x="651" y="732" on="1"/>
        <pt x="680" y="732" on="1"/>
        <pt x="342" y="260" on="1"/>
        <pt x="301" y="0" on="1"/>
        <pt x="277" y="0" on="1"/>
        <pt x="318" y="260" on="1"/>
      </contour>
    </TTGlyph>
    <TTGlyph name="Ydieresis" xMin="150" yMin="0" xMax="680" yMax="832">
      <contour>
        <pt x="304" y="832" on="1"/>
        <pt x="312" y="832" on="0"/>
        <pt x="320" y="822" on="0"/>
        <pt x="318" y="815" on="1"/>
        <pt x="315" y="797" on="0"/>
        <pt x="298" y="797" on="1"/>
        <pt x="291" y="797" on="0"/>
        <pt x="282" y="808" on="0"/>
        <pt x="283" y="815" on="1"/>
        <pt x="287" y="832" on="0"/>
      </contour>
      <contour>
        <pt x="559" y="832" on="1"/>
        <pt x="567" y="832" on="0"/>
        <pt x="575" y="822" on="0"/>
        <pt x="573" y="815" on="1"/>
        <pt x="570" y="797" on="0"/>
        <pt x="553" y="797" on="1"/>
        <pt x="546" y="797" on="0"/>
        <pt x="537" y="808" on="0"/>
        <pt x="538" y="815" on="1"/>
        <pt x="542" y="832" on="0"/>
      </contour>
      <contour>
        <pt x="150" y="732" on="1"/>
        <pt x="177" y="732" on="1"/>
        <pt x="333" y="292" on="1"/>
        <pt x="651" y="732" on="1"/>
        <pt x="680" y="732" on="1"/>
        <pt x="342" y="260" on="1"/>
        <pt x="301" y="0" on="1"/>
        <pt x="277" y="0" on="1"/>
        <pt x="318" y="260" on="1"/>
      </contour>
    </TTGlyph>
    <TTGlyph name="Ygrave" xMin="150" yMin="0" xMax="680" yMax="930">
      <contour>
        <pt x="306" y="930" on="1"/>
        <pt x="332" y="930" on="1"/>
        <pt x="432" y="797" on="1"/>
        <pt x="418" y="797" on="1"/>
      </contour>
      <contour>
        <pt x="150" y="732" on="1"/>
        <pt x="177" y="732" on="1"/>
        <pt x="333" y="292" on="1"/>
        <pt x="651" y="732" on="1"/>
        <pt x="680" y="732" on="1"/>
        <pt x="342" y="260" on="1"/>
        <pt x="301" y="0" on="1"/>
        <pt x="277" y="0" on="1"/>
        <pt x="318" y="260" on="1"/>
      </contour>
    </TTGlyph>
    <TTGlyph name="Z" xMin="35" yMin="0" xMax="614" yMax="732">
      <contour>
        <pt x="35" y="0" on="1"/>
        <pt x="39" y="24" on="1"/>
        <pt x="578" y="708" on="1"/>
        <pt x="147" y="708" on="1"/>
        <pt x="151" y="732" on="1"/>
        <pt x="614" y="732" on="1"/>
        <pt x="610" y="708" on="1"/>
        <pt x="71" y="24" on="1"/>
        <pt x="502" y="24" on="1"/>
        <pt x="498" y="0" on="1"/>
      </contour>
    </TTGlyph>
    <TTGlyph name="Zacute" xMin="35" yMin="0" xMax="614" yMax="930">
      <contour>
        <pt x="386" y="797" on="1"/>
        <pt x="528" y="930" on="1"/>
        <pt x="554" y="930" on="1"/>
        <pt x="400" y="797" on="1"/>
      </contour>
      <contour>
        <pt x="35" y="0" on="1"/>
        <pt x="39" y="24" on="1"/>
        <pt x="578" y="708" on="1"/>
        <pt x="147" y="708" on="1"/>
        <pt x="151" y="732" on="1"/>
        <pt x="614" y="732" on="1"/>
        <pt x="610" y="708" on="1"/>
        <pt x="71" y="24" on="1"/>
        <pt x="502" y="24" on="1"/>
        <pt x="498" y="0" on="1"/>
      </contour>
    </TTGlyph>
    <TTGlyph name="Zcaron" xMin="35" yMin="0" xMax="614" yMax="927">
      <contour>
        <pt x="278" y="927" on="1"/>
        <pt x="295" y="927" on="1"/>
        <pt x="389" y="812" on="1"/>
        <pt x="532" y="927" on="1"/>
        <pt x="550" y="927" on="1"/>
        <pt x="397" y="797" on="1"/>
        <pt x="376" y="797" on="1"/>
      </contour>
      <contour>
        <pt x="35" y="0" on="1"/>
        <pt x="39" y="24" on="1"/>
        <pt x="578" y="708" on="1"/>
        <pt x="147" y="708" on="1"/>
        <pt x="151" y="732" on="1"/>
        <pt x="614" y="732" on="1"/>
        <pt x="610" y="708" on="1"/>
        <pt x="71" y="24" on="1"/>
        <pt x="502" y="24" on="1"/>
        <pt x="498" y="0" on="1"/>
      </contour>
    </TTGlyph>
    <TTGlyph name="Zdotaccent" xMin="35" yMin="0" xMax="614" yMax="864">
      <contour>
        <pt x="369" y="864" on="1"/>
        <pt x="380" y="864" on="1"/>
        <pt x="392" y="864" on="0"/>
        <pt x="390" y="852" on="1"/>
        <pt x="380" y="790" on="1"/>
        <pt x="378" y="778" on="0"/>
        <pt x="366" y="778" on="1"/>
        <pt x="355" y="778" on="1"/>
        <pt x="343" y="778" on="0"/>
        <pt x="345" y="790" on="1"/>
        <pt x="355" y="852" on="1"/>
        <pt x="357" y="864" on="0"/>
      </contour>
      <contour>
        <pt x="35" y="0" on="1"/>
        <pt x="39" y="24" on="1"/>
        <pt x="578" y="708" on="1"/>
        <pt x="147" y="708" on="1"/>
        <pt x="151" y="732" on="1"/>
        <pt x="614" y="732" on="1"/>
        <pt x="610" y="708" on="1"/>
        <pt x="71" y="24" on="1"/>
        <pt x="502" y="24" on="1"/>
        <pt x="498" y="0" on="1"/>
      </contour>
    </TTGlyph>
    <TTGlyph name="a" xMin="78" yMin="-7" xMax="536" yMax="544">
      <contour>
        <pt x="238" y="527" on="0"/>
        <pt x="280" y="537" on="0"/>
        <pt x="326" y="543" on="0"/>
        <pt x="385" y="543" on="0"/>
        <pt x="499" y="514" on="0"/>
        <pt x="536" y="479" on="1"/>
        <pt x="466" y="0" on="1"/>
        <pt x="452" y="0" on="1"/>
        <pt x="453" y="60" on="1"/>
        <pt x="422" y="40" on="0"/>
        <pt x="297" y="-7" on="0"/>
        <pt x="209" y="-7" on="0"/>
        <pt x="155" y="8" on="0"/>
        <pt x="105" y="45" on="0"/>
        <pt x="94" y="77" on="1"/>
        <pt x="79" y="121" on="0"/>
        <pt x="79" y="223" on="0"/>
        <pt x="102" y="345" on="0"/>
        <pt x="140" y="441" on="0"/>
        <pt x="181" y="493" on="0"/>
      </contour>
      <contour>
        <pt x="103" y="175" on="1"/>
        <pt x="103" y="16" on="0"/>
        <pt x="238" y="16" on="1"/>
        <pt x="276" y="16" on="0"/>
        <pt x="327" y="28" on="0"/>
        <pt x="346" y="31" on="0"/>
        <pt x="391" y="49" on="0"/>
        <pt x="399" y="52" on="0"/>
        <pt x="452" y="75" on="0"/>
        <pt x="453" y="75" on="1"/>
        <pt x="511" y="476" on="1"/>
        <pt x="440" y="520" on="0"/>
        <pt x="355" y="520" on="1"/>
        <pt x="232" y="520" on="0"/>
        <pt x="176" y="446" on="1"/>
        <pt x="131" y="388" on="0"/>
        <pt x="109" y="246" on="1"/>
        <pt x="103" y="207" on="0"/>
      </contour>
    </TTGlyph>
    <TTGlyph name="a.salt" xMin="82" yMin="-12" xMax="546" yMax="535">
      <contour>
        <pt x="327" y="535" on="1"/>
        <pt x="456" y="535" on="0"/>
        <pt x="546" y="490" on="1"/>
        <pt x="473" y="0" on="1"/>
        <pt x="396" y="-12" on="0"/>
        <pt x="240" y="-12" on="1"/>
        <pt x="147" y="-12" on="0"/>
        <pt x="108" y="60" on="1"/>
        <pt x="82" y="108" on="0"/>
        <pt x="82" y="179" on="1"/>
        <pt x="82" y="216" on="0"/>
        <pt x="89" y="259" on="1"/>
        <pt x="110" y="390" on="0"/>
        <pt x="220" y="535" on="0"/>
      </contour>
      <contour>
        <pt x="113" y="257" on="1"/>
        <pt x="108" y="218" on="0"/>
        <pt x="108" y="156" on="0"/>
        <pt x="111" y="132" on="1"/>
        <pt x="118" y="78" on="0"/>
        <pt x="186" y="12" on="0"/>
        <pt x="244" y="12" on="1"/>
        <pt x="451" y="12" on="1"/>
        <pt x="525" y="480" on="1"/>
        <pt x="407" y="511" on="0"/>
        <pt x="233" y="511" on="0"/>
        <pt x="133" y="383" on="0"/>
      </contour>
    </TTGlyph>
    <TTGlyph name="a.smcp" xMin="45" yMin="0" xMax="536" yMax="570">
      <contour>
        <pt x="45" y="0" on="1"/>
        <pt x="376" y="570" on="1"/>
        <pt x="400" y="570" on="1"/>
        <pt x="536" y="0" on="1"/>
        <pt x="511" y="0" on="1"/>
        <pt x="468" y="182" on="1"/>
        <pt x="179" y="182" on="1"/>
        <pt x="73" y="0" on="1"/>
      </contour>
      <contour>
        <pt x="192" y="206" on="1"/>
        <pt x="462" y="206" on="1"/>
        <pt x="385" y="541" on="1"/>
      </contour>
    </TTGlyph>
    <TTGlyph name="a.superior" xMin="110" yMin="364" xMax="439" yMax="736">
      <contour>
        <pt x="266" y="735" on="1"/>
        <pt x="275" y="736" on="0"/>
        <pt x="320" y="736" on="0"/>
        <pt x="415" y="714" on="0"/>
        <pt x="439" y="691" on="1"/>
        <pt x="387" y="369" on="1"/>
        <pt x="374" y="369" on="1"/>
        <pt x="377" y="423" on="1"/>
        <pt x="358" y="405" on="0"/>
        <pt x="260" y="364" on="0"/>
        <pt x="218" y="364" on="1"/>
        <pt x="155" y="364" on="0"/>
        <pt x="128" y="405" on="1"/>
        <pt x="110" y="431" on="0"/>
        <pt x="110" y="514" on="0"/>
        <pt x="116" y="553" on="1"/>
        <pt x="143" y="728" on="0"/>
      </contour>
      <contour>
        <pt x="134" y="549" on="1"/>
        <pt x="129" y="512" on="0"/>
        <pt x="129" y="440" on="0"/>
        <pt x="142" y="418" on="1"/>
        <pt x="165" y="384" on="0"/>
        <pt x="252" y="384" on="0"/>
        <pt x="345" y="414" on="0"/>
        <pt x="379" y="437" on="1"/>
        <pt x="420" y="688" on="1"/>
        <pt x="360" y="716" on="0"/>
        <pt x="276" y="716" on="1"/>
        <pt x="160" y="716" on="0"/>
      </contour>
    </TTGlyph>
    <TTGlyph name="aacute" xMin="78" yMin="-7" xMax="536" yMax="736">
      <contour>
        <pt x="345" y="603" on="1"/>
        <pt x="487" y="736" on="1"/>
        <pt x="513" y="736" on="1"/>
        <pt x="359" y="603" on="1"/>
      </contour>
      <contour>
        <pt x="238" y="527" on="0"/>
        <pt x="280" y="537" on="0"/>
        <pt x="326" y="543" on="0"/>
        <pt x="385" y="543" on="0"/>
        <pt x="499" y="514" on="0"/>
        <pt x="536" y="479" on="1"/>
        <pt x="466" y="0" on="1"/>
        <pt x="452" y="0" on="1"/>
        <pt x="453" y="60" on="1"/>
        <pt x="422" y="40" on="0"/>
        <pt x="297" y="-7" on="0"/>
        <pt x="209" y="-7" on="0"/>
        <pt x="155" y="8" on="0"/>
        <pt x="105" y="45" on="0"/>
        <pt x="94" y="77" on="1"/>
        <pt x="79" y="121" on="0"/>
        <pt x="79" y="223" on="0"/>
        <pt x="102" y="345" on="0"/>
        <pt x="140" y="441" on="0"/>
        <pt x="181" y="493" on="0"/>
      </contour>
      <contour>
        <pt x="103" y="175" on="1"/>
        <pt x="103" y="16" on="0"/>
        <pt x="238" y="16" on="1"/>
        <pt x="276" y="16" on="0"/>
        <pt x="327" y="28" on="0"/>
        <pt x="346" y="31" on="0"/>
        <pt x="391" y="49" on="0"/>
        <pt x="399" y="52" on="0"/>
        <pt x="452" y="75" on="0"/>
        <pt x="453" y="75" on="1"/>
        <pt x="511" y="476" on="1"/>
        <pt x="440" y="520" on="0"/>
        <pt x="355" y="520" on="1"/>
        <pt x="232" y="520" on="0"/>
        <pt x="176" y="446" on="1"/>
        <pt x="131" y="388" on="0"/>
        <pt x="109" y="246" on="1"/>
        <pt x="103" y="207" on="0"/>
      </contour>
    </TTGlyph>
    <TTGlyph name="aacute.salt" xMin="82" yMin="-12" xMax="546" yMax="729">
      <contour>
        <pt x="360" y="596" on="1"/>
        <pt x="502" y="729" on="1"/>
        <pt x="528" y="729" on="1"/>
        <pt x="374" y="596" on="1"/>
      </contour>
      <contour>
        <pt x="327" y="535" on="1"/>
        <pt x="456" y="535" on="0"/>
        <pt x="546" y="490" on="1"/>
        <pt x="473" y="0" on="1"/>
        <pt x="396" y="-12" on="0"/>
        <pt x="240" y="-12" on="1"/>
        <pt x="147" y="-12" on="0"/>
        <pt x="108" y="60" on="1"/>
        <pt x="82" y="108" on="0"/>
        <pt x="82" y="179" on="1"/>
        <pt x="82" y="216" on="0"/>
        <pt x="89" y="259" on="1"/>
        <pt x="110" y="390" on="0"/>
        <pt x="220" y="535" on="0"/>
      </contour>
      <contour>
        <pt x="113" y="257" on="1"/>
        <pt x="108" y="218" on="0"/>
        <pt x="108" y="156" on="0"/>
        <pt x="111" y="132" on="1"/>
        <pt x="118" y="78" on="0"/>
        <pt x="186" y="12" on="0"/>
        <pt x="244" y="12" on="1"/>
        <pt x="451" y="12" on="1"/>
        <pt x="525" y="480" on="1"/>
        <pt x="407" y="511" on="0"/>
        <pt x="233" y="511" on="0"/>
        <pt x="133" y="383" on="0"/>
      </contour>
    </TTGlyph>
    <TTGlyph name="aacute.smcp" xMin="45" yMin="0" xMax="559" yMax="763">
      <contour>
        <pt x="391" y="630" on="1"/>
        <pt x="533" y="763" on="1"/>
        <pt x="559" y="763" on="1"/>
        <pt x="405" y="630" on="1"/>
      </contour>
      <contour>
        <pt x="45" y="0" on="1"/>
        <pt x="376" y="570" on="1"/>
        <pt x="400" y="570" on="1"/>
        <pt x="536" y="0" on="1"/>
        <pt x="511" y="0" on="1"/>
        <pt x="468" y="182" on="1"/>
        <pt x="179" y="182" on="1"/>
        <pt x="73" y="0" on="1"/>
      </contour>
      <contour>
        <pt x="192" y="206" on="1"/>
        <pt x="462" y="206" on="1"/>
        <pt x="385" y="541" on="1"/>
      </contour>
    </TTGlyph>
    <TTGlyph name="abreve" xMin="78" yMin="-7" xMax="536" yMax="717">
      <contour>
        <pt x="268" y="700" on="1"/>
        <pt x="268" y="668" on="0"/>
        <pt x="312" y="617" on="0"/>
        <pt x="351" y="617" on="1"/>
        <pt x="397" y="617" on="0"/>
        <pt x="465" y="674" on="0"/>
        <pt x="471" y="717" on="1"/>
        <pt x="485" y="717" on="1"/>
        <pt x="477" y="664" on="0"/>
        <pt x="398" y="603" on="0"/>
        <pt x="308" y="603" on="0"/>
        <pt x="254" y="659" on="0"/>
        <pt x="254" y="697" on="1"/>
        <pt x="254" y="706" on="0"/>
        <pt x="255" y="717" on="1"/>
        <pt x="269" y="717" on="1"/>
        <pt x="268" y="708" on="0"/>
      </contour>
      <contour>
        <pt x="238" y="527" on="0"/>
        <pt x="280" y="537" on="0"/>
        <pt x="326" y="543" on="0"/>
        <pt x="385" y="543" on="0"/>
        <pt x="499" y="514" on="0"/>
        <pt x="536" y="479" on="1"/>
        <pt x="466" y="0" on="1"/>
        <pt x="452" y="0" on="1"/>
        <pt x="453" y="60" on="1"/>
        <pt x="422" y="40" on="0"/>
        <pt x="297" y="-7" on="0"/>
        <pt x="209" y="-7" on="0"/>
        <pt x="155" y="8" on="0"/>
        <pt x="105" y="45" on="0"/>
        <pt x="94" y="77" on="1"/>
        <pt x="79" y="121" on="0"/>
        <pt x="79" y="223" on="0"/>
        <pt x="102" y="345" on="0"/>
        <pt x="140" y="441" on="0"/>
        <pt x="181" y="493" on="0"/>
      </contour>
      <contour>
        <pt x="103" y="175" on="1"/>
        <pt x="103" y="16" on="0"/>
        <pt x="238" y="16" on="1"/>
        <pt x="276" y="16" on="0"/>
        <pt x="327" y="28" on="0"/>
        <pt x="346" y="31" on="0"/>
        <pt x="391" y="49" on="0"/>
        <pt x="399" y="52" on="0"/>
        <pt x="452" y="75" on="0"/>
        <pt x="453" y="75" on="1"/>
        <pt x="511" y="476" on="1"/>
        <pt x="440" y="520" on="0"/>
        <pt x="355" y="520" on="1"/>
        <pt x="232" y="520" on="0"/>
        <pt x="176" y="446" on="1"/>
        <pt x="131" y="388" on="0"/>
        <pt x="109" y="246" on="1"/>
        <pt x="103" y="207" on="0"/>
      </contour>
    </TTGlyph>
    <TTGlyph name="abreve.salt" xMin="82" yMin="-12" xMax="546" yMax="710">
      <contour>
        <pt x="282" y="693" on="1"/>
        <pt x="282" y="661" on="0"/>
        <pt x="326" y="610" on="0"/>
        <pt x="366" y="610" on="1"/>
        <pt x="412" y="610" on="0"/>
        <pt x="479" y="667" on="0"/>
        <pt x="486" y="710" on="1"/>
        <pt x="500" y="710" on="1"/>
        <pt x="491" y="657" on="0"/>
        <pt x="412" y="596" on="0"/>
        <pt x="322" y="596" on="0"/>
        <pt x="268" y="652" on="0"/>
        <pt x="268" y="690" on="1"/>
        <pt x="268" y="699" on="0"/>
        <pt x="270" y="710" on="1"/>
        <pt x="284" y="710" on="1"/>
        <pt x="282" y="701" on="0"/>
      </contour>
      <contour>
        <pt x="327" y="535" on="1"/>
        <pt x="456" y="535" on="0"/>
        <pt x="546" y="490" on="1"/>
        <pt x="473" y="0" on="1"/>
        <pt x="396" y="-12" on="0"/>
        <pt x="240" y="-12" on="1"/>
        <pt x="147" y="-12" on="0"/>
        <pt x="108" y="60" on="1"/>
        <pt x="82" y="108" on="0"/>
        <pt x="82" y="179" on="1"/>
        <pt x="82" y="216" on="0"/>
        <pt x="89" y="259" on="1"/>
        <pt x="110" y="390" on="0"/>
        <pt x="220" y="535" on="0"/>
      </contour>
      <contour>
        <pt x="113" y="257" on="1"/>
        <pt x="108" y="218" on="0"/>
        <pt x="108" y="156" on="0"/>
        <pt x="111" y="132" on="1"/>
        <pt x="118" y="78" on="0"/>
        <pt x="186" y="12" on="0"/>
        <pt x="244" y="12" on="1"/>
        <pt x="451" y="12" on="1"/>
        <pt x="525" y="480" on="1"/>
        <pt x="407" y="511" on="0"/>
        <pt x="233" y="511" on="0"/>
        <pt x="133" y="383" on="0"/>
      </contour>
    </TTGlyph>
    <TTGlyph name="abreve.smcp" xMin="45" yMin="0" xMax="536" yMax="744">
      <contour>
        <pt x="313" y="727" on="1"/>
        <pt x="313" y="695" on="0"/>
        <pt x="357" y="644" on="0"/>
        <pt x="397" y="644" on="1"/>
        <pt x="442" y="644" on="0"/>
        <pt x="510" y="701" on="0"/>
        <pt x="517" y="744" on="1"/>
        <pt x="531" y="744" on="1"/>
        <pt x="522" y="691" on="0"/>
        <pt x="443" y="630" on="0"/>
        <pt x="353" y="630" on="0"/>
        <pt x="299" y="686" on="0"/>
        <pt x="299" y="724" on="1"/>
        <pt x="299" y="733" on="0"/>
        <pt x="301" y="744" on="1"/>
        <pt x="315" y="744" on="1"/>
        <pt x="313" y="735" on="0"/>
      </contour>
      <contour>
        <pt x="45" y="0" on="1"/>
        <pt x="376" y="570" on="1"/>
        <pt x="400" y="570" on="1"/>
        <pt x="536" y="0" on="1"/>
        <pt x="511" y="0" on="1"/>
        <pt x="468" y="182" on="1"/>
        <pt x="179" y="182" on="1"/>
        <pt x="73" y="0" on="1"/>
      </contour>
      <contour>
        <pt x="192" y="206" on="1"/>
        <pt x="462" y="206" on="1"/>
        <pt x="385" y="541" on="1"/>
      </contour>
    </TTGlyph>
    <TTGlyph name="acircumflex" xMin="78" yMin="-7" xMax="536" yMax="733">
      <contour>
        <pt x="216" y="603" on="1"/>
        <pt x="369" y="733" on="1"/>
        <pt x="390" y="733" on="1"/>
        <pt x="488" y="603" on="1"/>
        <pt x="471" y="603" on="1"/>
        <pt x="377" y="718" on="1"/>
        <pt x="234" y="603" on="1"/>
      </contour>
      <contour>
        <pt x="238" y="527" on="0"/>
        <pt x="280" y="537" on="0"/>
        <pt x="326" y="543" on="0"/>
        <pt x="385" y="543" on="0"/>
        <pt x="499" y="514" on="0"/>
        <pt x="536" y="479" on="1"/>
        <pt x="466" y="0" on="1"/>
        <pt x="452" y="0" on="1"/>
        <pt x="453" y="60" on="1"/>
        <pt x="422" y="40" on="0"/>
        <pt x="297" y="-7" on="0"/>
        <pt x="209" y="-7" on="0"/>
        <pt x="155" y="8" on="0"/>
        <pt x="105" y="45" on="0"/>
        <pt x="94" y="77" on="1"/>
        <pt x="79" y="121" on="0"/>
        <pt x="79" y="223" on="0"/>
        <pt x="102" y="345" on="0"/>
        <pt x="140" y="441" on="0"/>
        <pt x="181" y="493" on="0"/>
      </contour>
      <contour>
        <pt x="103" y="175" on="1"/>
        <pt x="103" y="16" on="0"/>
        <pt x="238" y="16" on="1"/>
        <pt x="276" y="16" on="0"/>
        <pt x="327" y="28" on="0"/>
        <pt x="346" y="31" on="0"/>
        <pt x="391" y="49" on="0"/>
        <pt x="399" y="52" on="0"/>
        <pt x="452" y="75" on="0"/>
        <pt x="453" y="75" on="1"/>
        <pt x="511" y="476" on="1"/>
        <pt x="440" y="520" on="0"/>
        <pt x="355" y="520" on="1"/>
        <pt x="232" y="520" on="0"/>
        <pt x="176" y="446" on="1"/>
        <pt x="131" y="388" on="0"/>
        <pt x="109" y="246" on="1"/>
        <pt x="103" y="207" on="0"/>
      </contour>
    </TTGlyph>
    <TTGlyph name="acircumflex.salt" xMin="82" yMin="-12" xMax="546" yMax="726">
      <contour>
        <pt x="231" y="596" on="1"/>
        <pt x="384" y="726" on="1"/>
        <pt x="405" y="726" on="1"/>
        <pt x="503" y="596" on="1"/>
        <pt x="486" y="596" on="1"/>
        <pt x="392" y="711" on="1"/>
        <pt x="249" y="596" on="1"/>
      </contour>
      <contour>
        <pt x="327" y="535" on="1"/>
        <pt x="456" y="535" on="0"/>
        <pt x="546" y="490" on="1"/>
        <pt x="473" y="0" on="1"/>
        <pt x="396" y="-12" on="0"/>
        <pt x="240" y="-12" on="1"/>
        <pt x="147" y="-12" on="0"/>
        <pt x="108" y="60" on="1"/>
        <pt x="82" y="108" on="0"/>
        <pt x="82" y="179" on="1"/>
        <pt x="82" y="216" on="0"/>
        <pt x="89" y="259" on="1"/>
        <pt x="110" y="390" on="0"/>
        <pt x="220" y="535" on="0"/>
      </contour>
      <contour>
        <pt x="113" y="257" on="1"/>
        <pt x="108" y="218" on="0"/>
        <pt x="108" y="156" on="0"/>
        <pt x="111" y="132" on="1"/>
        <pt x="118" y="78" on="0"/>
        <pt x="186" y="12" on="0"/>
        <pt x="244" y="12" on="1"/>
        <pt x="451" y="12" on="1"/>
        <pt x="525" y="480" on="1"/>
        <pt x="407" y="511" on="0"/>
        <pt x="233" y="511" on="0"/>
        <pt x="133" y="383" on="0"/>
      </contour>
    </TTGlyph>
    <TTGlyph name="acircumflex.smcp" xMin="45" yMin="0" xMax="536" yMax="760">
      <contour>
        <pt x="262" y="630" on="1"/>
        <pt x="415" y="760" on="1"/>
        <pt x="436" y="760" on="1"/>
        <pt x="534" y="630" on="1"/>
        <pt x="517" y="630" on="1"/>
        <pt x="423" y="745" on="1"/>
        <pt x="280" y="630" on="1"/>
      </contour>
      <contour>
        <pt x="45" y="0" on="1"/>
        <pt x="376" y="570" on="1"/>
        <pt x="400" y="570" on="1"/>
        <pt x="536" y="0" on="1"/>
        <pt x="511" y="0" on="1"/>
        <pt x="468" y="182" on="1"/>
        <pt x="179" y="182" on="1"/>
        <pt x="73" y="0" on="1"/>
      </contour>
      <contour>
        <pt x="192" y="206" on="1"/>
        <pt x="462" y="206" on="1"/>
        <pt x="385" y="541" on="1"/>
      </contour>
    </TTGlyph>
    <TTGlyph name="acute" xMin="104" yMin="531" xMax="272" yMax="664">
      <contour>
        <pt x="104" y="531" on="1"/>
        <pt x="246" y="664" on="1"/>
        <pt x="272" y="664" on="1"/>
        <pt x="118" y="531" on="1"/>
      </contour>
    </TTGlyph>
    <TTGlyph name="acute.smcp" xMin="104" yMin="531" xMax="272" yMax="664">
      <contour>
        <pt x="104" y="531" on="1"/>
        <pt x="246" y="664" on="1"/>
        <pt x="272" y="664" on="1"/>
        <pt x="118" y="531" on="1"/>
      </contour>
    </TTGlyph>
    <TTGlyph name="adieresis" xMin="78" yMin="-7" xMax="536" yMax="638">
      <contour>
        <pt x="231" y="638" on="1"/>
        <pt x="239" y="638" on="0"/>
        <pt x="247" y="628" on="0"/>
        <pt x="245" y="621" on="1"/>
        <pt x="242" y="603" on="0"/>
        <pt x="225" y="603" on="1"/>
        <pt x="218" y="603" on="0"/>
        <pt x="209" y="614" on="0"/>
        <pt x="210" y="621" on="1"/>
        <pt x="214" y="638" on="0"/>
      </contour>
      <contour>
        <pt x="486" y="638" on="1"/>
        <pt x="494" y="638" on="0"/>
        <pt x="502" y="628" on="0"/>
        <pt x="500" y="621" on="1"/>
        <pt x="497" y="603" on="0"/>
        <pt x="480" y="603" on="1"/>
        <pt x="473" y="603" on="0"/>
        <pt x="464" y="614" on="0"/>
        <pt x="465" y="621" on="1"/>
        <pt x="469" y="638" on="0"/>
      </contour>
      <contour>
        <pt x="238" y="527" on="0"/>
        <pt x="280" y="537" on="0"/>
        <pt x="326" y="543" on="0"/>
        <pt x="385" y="543" on="0"/>
        <pt x="499" y="514" on="0"/>
        <pt x="536" y="479" on="1"/>
        <pt x="466" y="0" on="1"/>
        <pt x="452" y="0" on="1"/>
        <pt x="453" y="60" on="1"/>
        <pt x="422" y="40" on="0"/>
        <pt x="297" y="-7" on="0"/>
        <pt x="209" y="-7" on="0"/>
        <pt x="155" y="8" on="0"/>
        <pt x="105" y="45" on="0"/>
        <pt x="94" y="77" on="1"/>
        <pt x="79" y="121" on="0"/>
        <pt x="79" y="223" on="0"/>
        <pt x="102" y="345" on="0"/>
        <pt x="140" y="441" on="0"/>
        <pt x="181" y="493" on="0"/>
      </contour>
      <contour>
        <pt x="103" y="175" on="1"/>
        <pt x="103" y="16" on="0"/>
        <pt x="238" y="16" on="1"/>
        <pt x="276" y="16" on="0"/>
        <pt x="327" y="28" on="0"/>
        <pt x="346" y="31" on="0"/>
        <pt x="391" y="49" on="0"/>
        <pt x="399" y="52" on="0"/>
        <pt x="452" y="75" on="0"/>
        <pt x="453" y="75" on="1"/>
        <pt x="511" y="476" on="1"/>
        <pt x="440" y="520" on="0"/>
        <pt x="355" y="520" on="1"/>
        <pt x="232" y="520" on="0"/>
        <pt x="176" y="446" on="1"/>
        <pt x="131" y="388" on="0"/>
        <pt x="109" y="246" on="1"/>
        <pt x="103" y="207" on="0"/>
      </contour>
    </TTGlyph>
</ttFont>
